<svg width="154" height="142" viewBox="0 0 154 142" fill="none" xmlns="http://www.w3.org/2000/svg">
<rect width="154" height="142" rx="6" fill="#00BCD4" fill-opacity="0.25"/>
<path d="M71.2698 17.8489C70.079 19.0398 70.2343 19.6093 71.9947 19.92C73.082 20.1788 73.548 20.5413 73.548 21.2144C73.548 21.7839 73.9104 22.1981 74.3246 22.1981C74.7906 22.1981 75.1013 22.6641 75.1013 23.4925C75.1013 24.2174 74.8424 24.7352 74.48 24.6316C74.1175 24.5798 73.7551 25.0976 73.6515 25.8225C73.548 26.5473 73.1338 27.324 72.7196 27.5311C72.3054 27.7382 71.9947 28.5149 71.9947 29.188C71.9947 30.327 71.7876 30.4824 70.1825 30.4824C67.283 30.4824 60.6039 31.9839 57.7562 33.2783C54.3907 34.7798 51.3359 37.4722 50.4039 39.7504C49.9897 40.7341 49.5237 43.6336 49.3684 46.2224C49.1095 50.0021 48.8506 51.0894 48.0739 51.6072C47.5562 51.9696 47.142 52.7463 47.142 53.3158C47.142 55.2315 45.6922 57.8722 44.1389 58.6488C43.2587 59.063 41.8608 60.1503 40.9806 61.0305C39.6344 62.4285 39.3755 63.0498 39.3755 65.1726C39.3755 67.4508 39.5308 67.8132 41.4983 69.5219C51.9572 78.4792 91.9804 79.5147 108.549 71.2823C112.329 69.4183 113.416 67.9686 113.416 64.7584C113.416 62.3249 112.536 61.0823 109.015 58.8041C106.789 57.3544 106.323 56.7848 105.805 54.6102C105.442 53.2123 104.717 51.7625 104.096 51.3483C103.216 50.727 103.061 50.0539 103.061 46.6366C103.061 39.6986 101.507 36.6956 96.3814 33.9514C93.3784 32.2945 86.8546 30.5341 83.282 30.3788C81.0556 30.2753 80.7967 30.1199 80.7967 29.0326C80.7967 28.256 80.4343 27.6864 79.7612 27.5311C79.0363 27.324 78.7256 26.8062 78.7256 25.7189C78.7256 24.8387 78.5185 24.321 78.2079 24.5281C77.2759 25.0976 76.9652 23.1301 77.8454 22.457C78.3632 22.0946 78.7256 21.4215 78.7256 20.9555C78.7256 20.4377 79.1916 20.1271 80.0201 20.1271C81.7287 20.1271 82.35 18.6773 81.0556 17.7453C79.6058 16.7098 72.3054 16.7616 71.2698 17.8489Z" fill="#00BCD4"/>
<path d="M41.6538 96.3939C42.4822 97.0152 42.5858 97.7401 42.3787 102.296L42.1716 107.474H43.5695C44.9675 107.474 44.9675 107.422 44.7086 104.73L44.398 101.986H47.3492H50.2487V103.798C50.2487 104.833 50.0416 106.076 49.7309 106.594C49.3167 107.422 49.4203 107.526 50.9218 107.474L52.6304 107.422L52.4233 102.348C52.268 98.8274 52.3715 97.0152 52.8375 96.4974C53.4071 95.8243 53.1482 95.7208 51.0771 95.7208C48.8507 95.7208 48.6954 95.7726 49.4203 96.5492C49.8863 96.9634 50.2487 98.2061 50.2487 99.2934V101.209H47.401H44.5533V98.9827C44.5533 97.4812 44.8122 96.6528 45.4853 96.2903C46.1584 95.8761 45.6924 95.7726 43.5695 95.7208C41.0843 95.7208 40.8254 95.8243 41.6538 96.3939Z" fill="#00BCD4"/>
<path d="M61.3807 96.3421C59.3614 97.4294 58.533 98.9827 58.5848 101.675C58.5848 103.073 58.8437 104.626 59.2061 105.041C62.0538 108.665 68.1635 108.406 70.1827 104.523C72.4091 100.225 69.4061 95.7208 64.3838 95.7208C63.2965 95.7208 61.9503 96.0314 61.3807 96.3421ZM67.1279 97.8436C67.8528 98.6203 68.1117 99.7076 68.1117 101.675C68.1117 105.817 65.73 107.733 62.6751 106.076C60.6041 104.989 60.3452 99.7076 62.2092 97.4812C63.1411 96.3939 65.9888 96.601 67.1279 97.8436Z" fill="#00BCD4"/>
<path d="M74.8942 96.601C74.4282 97.7919 75.1013 98.4649 75.8262 97.533C76.1886 97.0152 76.9653 96.7563 77.7419 96.8599C78.9328 97.0152 78.9846 97.2223 78.9846 100.381C78.9846 102.245 78.8292 104.575 78.6739 105.61C78.3633 107.474 78.415 107.526 79.9683 107.474L81.5734 107.422L81.4181 102.089L81.211 96.7563H82.816C83.748 96.7563 84.5764 97.1188 84.8871 97.6365C85.3531 98.4649 85.4049 98.3614 85.4566 97.1705V95.7726H80.3308C76.1886 95.7726 75.1013 95.9279 74.8942 96.601Z" fill="#00BCD4"/>
<path d="M90.1684 96.5492C90.5308 96.9634 90.6861 99.0345 90.5308 102.296L90.3755 107.371L93.9481 107.526C97.7795 107.681 98.4008 107.319 98.4008 105.196C98.4008 104.057 98.4008 104.057 97.1064 105.299C96.4333 106.024 95.2943 106.594 94.6212 106.594C93.4821 106.594 93.3267 106.335 93.1196 104.471C92.9125 101.934 93.275 101.623 95.2943 102.659L96.8475 103.384V101.623C96.8475 99.9147 96.7958 99.8629 96.0191 100.64C95.1907 101.468 93.1714 101.572 93.2232 100.743C93.2232 100.536 93.2232 99.5523 93.2232 98.5685C93.2232 96.9634 93.3785 96.7563 94.6212 96.7563C95.346 96.7563 96.4333 97.1188 96.9511 97.6365C97.8313 98.4132 97.8831 98.4132 97.8831 97.067V95.7208L93.741 95.7726C90.2719 95.8243 89.6506 95.9797 90.1684 96.5492Z" fill="#00BCD4"/>
<path d="M103.578 96.4974C104.044 97.0152 104.148 98.7756 103.993 102.348L103.786 107.371L107.513 107.526C110.982 107.681 111.241 107.578 111.552 106.49C112.122 104.316 111.863 104.057 110.568 105.299C109.792 106.128 108.704 106.594 107.721 106.594H106.167V101.986C106.167 98.4649 106.374 97.1705 106.996 96.5492C107.721 95.7726 107.565 95.7208 105.339 95.7208C103.268 95.7208 103.009 95.8243 103.578 96.4974Z" fill="#00BCD4"/>
<path d="M50.404 115.085C48.6954 116.638 48.4883 117.053 48.4883 119.486C48.4883 121.661 48.7472 122.386 49.9898 123.68C54.9086 128.806 62.6233 122.8 59.3096 116.431C57.5492 113.014 53.3553 112.393 50.404 115.085ZM56.0994 114.93C57.7045 115.655 58.5329 117.415 58.5329 120.004C58.5329 124.923 52.5786 126.528 50.3522 122.282C49.2132 120.211 49.5756 117.519 51.2324 115.862C52.8375 114.257 54.0801 113.998 56.0994 114.93Z" fill="#00BCD4"/>
<path d="M68.5776 113.843C65.1086 115.241 64.0731 120.781 66.7137 123.68C69.3025 126.58 73.6517 126.269 75.6192 123.059C78.7776 117.829 74.0142 111.616 68.5776 113.843ZM73.8588 115.448C74.9979 116.38 75.6192 119.331 75.0497 121.35C74.1177 124.716 70.6487 125.751 68.0081 123.473C66.7654 122.386 66.5583 121.816 66.5583 119.538C66.5583 117.208 66.7654 116.69 68.0599 115.551C69.2507 114.516 69.9756 114.309 71.3736 114.516C72.3055 114.723 73.4446 115.085 73.8588 115.448Z" fill="#00BCD4"/>
<path d="M89.0811 113.687C88.6669 113.791 87.4242 115.189 86.3369 116.742L84.3176 119.59L85.612 121.247C87.8384 124.094 89.0811 125.233 90.013 125.233C90.6861 125.233 90.1684 124.405 88.2009 122.334L85.5085 119.383L87.6313 116.897C88.8222 115.499 89.9613 114.36 90.2201 114.36C90.4273 114.36 90.6344 114.101 90.6344 113.843C90.6344 113.325 90.4273 113.273 89.0811 113.687Z" fill="#00BCD4"/>
<path d="M98.6598 113.687L96.071 113.894L96.2263 119.124C96.3816 123.007 96.2263 124.457 95.7085 124.767C95.2943 125.026 96.537 125.233 98.7116 125.233C102.129 125.233 102.439 125.13 102.698 124.094C103.113 122.489 102.802 122.386 101.559 123.628C100.938 124.25 99.9024 124.716 99.1776 124.716C98.0903 124.716 97.8832 124.457 97.8832 123.214C97.8832 122.386 97.7278 121.35 97.5725 120.884C97.3136 120.263 97.6243 120.056 98.7634 120.056C99.5918 120.056 100.524 120.315 100.886 120.677C101.352 121.143 101.508 120.988 101.508 120.004C101.508 118.813 101.352 118.761 99.4882 118.917L97.4689 119.124L97.7278 116.846C97.8832 115.655 98.0385 114.567 98.0903 114.516C98.142 114.464 99.0222 114.619 100.11 114.826C101.818 115.241 102.025 115.189 102.025 114.309C102.025 113.791 101.87 113.377 101.663 113.428C101.404 113.48 100.11 113.584 98.6598 113.687Z" fill="#00BCD4"/>
<path d="M36.1654 114.464C36.9939 115.292 36.9939 123.784 36.1654 124.612C35.2335 125.544 40.9807 125.441 42.2233 124.509C43.4659 123.628 43.5177 120.677 42.2751 119.797C41.5502 119.227 41.4984 118.917 42.0162 117.829C42.534 116.69 42.4822 116.224 41.7573 115.137C41.0324 114.05 40.5147 113.843 38.2365 113.843C36.1654 113.843 35.6995 113.998 36.1654 114.464ZM39.5827 114.878C41.136 115.448 41.4466 117.467 40.1522 118.502C39.4274 119.072 39.4791 119.227 40.5147 119.745C41.7055 120.366 42.3268 122.386 41.602 123.473C41.3431 123.784 40.4111 124.25 39.5309 124.457L37.8223 124.819V119.59C37.8223 116.69 37.9258 114.36 38.0294 114.36C38.1847 114.36 38.8578 114.567 39.5827 114.878Z" fill="#00BCD4"/>
<path d="M82.2465 114.464C83.0749 115.292 83.0749 123.784 82.2465 124.612C81.7805 125.078 81.884 125.233 82.9195 125.233H84.1622V119.538V113.843H82.9195C81.884 113.843 81.7805 113.998 82.2465 114.464Z" fill="#00BCD4"/>
<path d="M108.497 119.538V125.233L110.051 125.182C110.931 125.182 111.293 125.026 110.983 124.871C110.206 124.56 109.999 114.36 110.775 114.36C111.034 114.36 111.863 114.567 112.588 114.878C114.452 115.551 114.503 118.192 112.639 119.176L111.345 119.849L113.002 122.127C115.021 124.975 115.384 125.233 117.04 125.182C118.283 125.182 118.283 125.13 117.248 124.716C116.678 124.509 115.435 123.369 114.503 122.179C112.898 120.159 112.898 120.108 113.882 119.538C115.384 118.761 115.798 116.69 114.762 115.137C114.037 114.05 113.52 113.843 111.19 113.843H108.497V119.538Z" fill="#00BCD4"/>
</svg>
