<svg width="154" height="142" viewBox="0 0 154 142" fill="none" xmlns="http://www.w3.org/2000/svg">
<rect width="154" height="142" rx="6" fill="#00BCD4" fill-opacity="0.25"/>
<path d="M78.2329 16.3383C78.1407 16.5229 77.8023 16.8151 77.464 16.9842C76.895 17.2764 75.0804 19.0142 73.8501 20.4751C73.5579 20.8135 73.1734 21.2594 73.0043 21.444C72.8351 21.6285 72.4507 22.0899 72.1585 22.4743C71.8663 22.8434 71.2665 23.5047 70.8359 23.9506C70.39 24.3812 69.9901 24.8734 69.944 25.0271C69.8825 25.1809 69.2212 25.9652 68.4523 26.7649C66.8222 28.4719 65.7764 29.979 65.515 31.0247C65.4074 31.4246 65.2382 31.8705 65.1305 32.0089C64.9152 32.2704 64.8537 33.4699 65.069 33.5929C65.1305 33.639 65.3458 34.1158 65.5458 34.6386C65.9302 35.6844 67.099 37.1761 67.6526 37.3145C67.8371 37.3606 68.0678 37.499 68.1755 37.622C68.2677 37.7451 68.4677 37.8373 68.6061 37.8373C68.7445 37.8373 69.0674 37.9604 69.3135 38.0988C69.6364 38.2833 70.1439 38.3602 71.0051 38.3602C73.1273 38.3756 74.1884 37.6374 77.2795 33.9466C78.0792 33.0085 78.925 32.0089 79.171 31.7321C79.4171 31.4707 79.863 30.9478 80.1552 30.5941C80.4474 30.2404 81.0318 29.5945 81.447 29.1639C82.1544 28.4411 83.0771 27.3185 83.9691 26.1036C84.169 25.8268 84.6457 25.2732 85.0456 24.858C85.8914 23.9506 86.6142 22.3821 86.6142 21.4132C86.6142 21.0441 86.4758 20.4751 86.2912 20.106C85.9837 19.4909 84.4304 17.8454 84.1536 17.8454C84.0767 17.8454 83.7999 17.6609 83.5231 17.4302C83.154 17.1226 82.8926 17.0304 82.4774 17.0457C82.1698 17.0765 81.7853 16.9996 81.6316 16.8766C81.3548 16.6767 81.3701 16.6613 81.8315 16.569C82.1083 16.5075 82.3082 16.3691 82.3082 16.2307C82.3082 16.0308 82.0006 16 80.3398 16C78.479 16 78.3713 16.0154 78.2329 16.3383ZM80.9703 17.9992C81.9238 17.9992 82.2467 18.1222 83.1233 18.8758C83.4308 19.1526 83.8153 19.3833 83.9691 19.3833C84.4919 19.3833 85.5377 20.8135 85.5377 21.5362C85.5377 21.8746 85.0148 23.0126 84.8149 23.1048C84.738 23.1202 83.8153 24.1506 82.7696 25.3808C81.7085 26.6111 80.6935 27.7799 80.5243 27.9952C80.3398 28.2105 79.0634 29.6868 77.6947 31.3015C76.3106 32.9009 75.1419 34.2542 75.0957 34.3003C75.0342 34.3464 74.7574 34.6848 74.4652 35.0692C73.6502 36.1611 72.7582 36.9146 72.2815 36.9146C72.0354 36.9146 71.8048 36.93 71.7433 36.9454C71.6664 36.9608 71.4049 37.0069 71.1281 37.0684C70.1593 37.2991 68.6983 36.8224 67.791 36.0073C66.6684 34.977 66.1609 33.4391 66.4838 31.9474C66.7299 30.7633 66.9144 30.4557 68.2062 29.0717C68.7906 28.4565 69.5134 27.6261 69.821 27.2416C70.1285 26.8572 70.4822 26.4266 70.6206 26.2882C71.328 25.55 72.1892 24.5658 73.2657 23.2894C73.927 22.4897 74.5883 21.7208 74.7267 21.567C74.8804 21.4132 75.2803 20.9519 75.6186 20.5366C76.6028 19.3371 77.1257 18.7374 77.5102 18.399C78.0023 17.9531 78.8942 17.7224 79.5401 17.8608C79.8323 17.9377 80.4782 17.9992 80.9703 17.9992Z" fill="#00BCD4"/>
<path d="M80.0936 19.3217C79.7552 19.4447 79.3862 19.6293 79.2785 19.7215C78.9863 19.9522 79.0325 20.9672 79.3554 21.5208C79.663 22.0744 79.9398 22.1359 80.0782 21.69C80.1397 21.5054 80.5549 20.9826 81.0163 20.5058C81.4776 20.0137 81.8313 19.5216 81.8159 19.3832C81.7544 19.0756 80.8625 19.0449 80.0936 19.3217Z" fill="#00BCD4"/>
<path d="M77.1567 21.6592C76.8184 22.136 76.234 22.828 75.8649 23.1971C75.0191 24.0275 75.1421 24.1505 76.8184 24.0275C78.0794 23.9506 78.3101 23.843 78.7253 23.1048C78.8945 22.828 78.8637 22.6588 78.5561 22.0437C78.3562 21.6438 78.1409 21.1825 78.0948 21.0287C77.9717 20.6135 77.818 20.7211 77.1567 21.6592Z" fill="#00BCD4"/>
<path d="M80.5553 22.7204C80.3861 22.8896 80.463 23.0741 80.6937 23.0741C80.8167 23.0741 80.9243 23.0126 80.9243 22.9357C80.9243 22.7358 80.6783 22.5974 80.5553 22.7204Z" fill="#00BCD4"/>
<path d="M75.6956 25.1656C75.4803 25.2117 75.0035 25.2732 74.6344 25.3193C74.0962 25.3962 73.8348 25.5346 73.2965 26.119C72.9274 26.5035 72.6199 26.9494 72.6199 27.0879C72.6199 27.38 73.5887 28.9333 73.7733 28.9486C73.8348 28.9486 74.0039 28.7795 74.1423 28.5642C74.4499 28.1028 75.5725 26.7803 76.3568 25.9652C77.1411 25.1502 76.9873 24.981 75.6956 25.1656Z" fill="#00BCD4"/>
<path d="M71.3281 28.4257C71.282 28.5795 70.8975 29.0409 70.4669 29.4561C70.0517 29.8867 69.698 30.3327 69.698 30.4557C69.698 30.6864 71.0513 31.2246 71.6203 31.2246C71.7279 31.2246 72.097 30.9017 72.4354 30.5172L73.0351 29.8098L72.4969 28.9794C71.9432 28.1336 71.4819 27.9029 71.3281 28.4257Z" fill="#00BCD4"/>
<path d="M68.4216 31.9628C68.2678 32.1166 68.1602 32.4549 68.1602 32.7163C68.1602 33.1777 68.9906 34.6079 69.252 34.6079C69.3443 34.6079 69.5135 34.3464 69.6519 34.0235C69.7749 33.7159 70.1286 33.1931 70.4208 32.8547C70.7283 32.5164 70.8975 32.2088 70.8206 32.132C70.6976 32.0089 69.2828 31.686 68.8522 31.686C68.7599 31.686 68.56 31.809 68.4216 31.9628Z" fill="#00BCD4"/>
<path d="M116.341 16.3229C116.325 16.5075 116.033 16.8766 115.695 17.1688C114.788 17.9531 113.973 19.1526 113.742 20.0445C112.973 23.0741 112.758 23.4893 111.312 24.8887C110.666 25.5192 110.036 26.2266 109.913 26.4573C109.79 26.7034 109.59 26.9648 109.482 27.0263C109.174 27.2109 108.713 29.1793 108.698 30.3019C108.682 31.4553 109.067 32.4241 109.82 33.1315C110.174 33.4699 110.482 33.5929 111.174 33.6698L112.066 33.7621L112.019 34.5002C111.989 34.9462 111.82 35.4537 111.62 35.7459C111.343 36.1611 111.281 36.4994 111.251 37.5451C111.204 38.9753 111.404 39.6827 111.989 40.3901C112.85 41.4051 113.819 41.5435 115.234 40.8207C116.279 40.2825 120.078 40.4517 121.185 41.0822C121.462 41.2513 121.785 41.3744 121.908 41.3744C122.277 41.3744 123.953 42.3278 124.584 42.9122C124.922 43.2351 125.229 43.4504 125.26 43.4197C125.306 43.3889 125.645 43.6042 126.045 43.9118C126.598 44.327 126.89 44.45 127.413 44.45C128.874 44.45 130.597 42.4201 130.935 40.2979C131.027 39.7443 131.058 38.6216 131.012 37.8066C130.95 36.5302 130.858 36.1765 130.443 35.346C130.166 34.8078 129.797 34.1619 129.597 33.9158C129.259 33.4545 128.966 32.3472 129.043 31.7629C129.059 31.5937 129.305 31.0708 129.582 30.6095C130.889 28.4104 131.273 27.2416 131.258 25.4577C131.242 24.4735 131.058 23.6584 130.35 21.5055C129.735 19.6601 128.705 18.3375 126.998 17.1995C126.491 16.8612 126.383 16.692 126.414 16.3845L126.46 16H121.416C116.387 16 116.356 16 116.341 16.3229ZM123.753 17.2918C124.015 17.4302 124.353 17.5378 124.522 17.5378C124.891 17.5378 125.645 17.9069 126.521 18.5067C126.86 18.7374 127.213 18.9219 127.306 18.9219C127.398 18.9219 127.598 19.1833 127.767 19.4909C127.921 19.8138 128.244 20.3367 128.49 20.675C128.72 20.998 128.905 21.4132 128.905 21.567C128.905 21.7361 129.105 22.259 129.336 22.7357C129.735 23.5354 130.012 24.8118 130.012 25.8422C130.028 26.9033 129.505 28.518 129.12 28.6718C128.997 28.7179 128.905 28.9025 128.905 29.087C128.905 29.4561 128.351 29.979 127.951 29.9943C127.659 29.9943 127.629 30.0866 127.382 31.8398C127.244 32.8394 127.259 33.0393 127.49 33.3622C127.629 33.5621 127.828 33.8697 127.936 34.0542C128.044 34.2234 128.397 34.7001 128.736 35.0846C129.474 35.9458 129.828 37.1914 129.828 39.0061C129.828 40.2825 129.751 40.5747 129.182 41.359C129.028 41.5589 128.905 41.8357 128.905 41.9741C128.89 42.1125 128.597 42.5585 128.228 42.9737C127.459 43.8195 127.152 43.8349 126.69 43.0352C126.06 41.928 125.691 41.6819 122.523 40.221C121.462 39.7289 120.908 39.5597 119.601 39.3444C119.094 39.2675 118.325 39.1291 117.894 39.0368C116.664 38.7754 115.418 39.0522 114.526 39.7596C113.634 40.467 113.434 40.4978 113.065 40.0364C112.896 39.8211 112.758 39.529 112.758 39.3905C112.758 39.2368 112.65 38.9907 112.527 38.8215C112.204 38.391 112.25 37.5913 112.65 36.9454C112.85 36.6378 113.065 36.0996 113.111 35.7612C113.173 35.3614 113.342 35.0538 113.588 34.8693C113.788 34.7309 114.142 34.2849 114.372 33.9158C114.588 33.5314 114.864 33.2238 114.987 33.2238C115.48 33.2238 116.448 32.6856 116.448 32.4241C116.448 32.2088 116.325 32.1473 115.879 32.1473C115.556 32.1473 114.741 32.0704 114.049 31.9782C112.804 31.7936 112.804 31.7936 111.773 32.3011L110.728 32.7932L110.389 32.4703C109.989 32.0858 109.836 30.8094 110.02 29.3792C110.097 28.7179 110.543 27.6876 110.728 27.6876C110.805 27.6876 110.912 27.503 110.974 27.257C111.097 26.6726 111.312 26.4419 112.419 25.7807C113.111 25.3654 113.465 25.0271 113.696 24.5812C113.88 24.2274 114.234 23.7507 114.495 23.5047C114.926 23.1202 114.957 23.0279 114.788 22.7665C114.542 22.3667 114.557 21.6746 114.834 21.3209C114.957 21.1518 115.064 20.7519 115.064 20.4136C115.064 19.983 115.187 19.6601 115.495 19.3064C115.726 19.0295 116.033 18.6143 116.187 18.399C116.341 18.1837 116.602 17.9992 116.771 17.9992C116.925 17.9992 117.325 17.8608 117.633 17.6916C117.956 17.5225 118.417 17.3841 118.678 17.3841C118.94 17.3841 119.217 17.3225 119.309 17.2303C119.463 17.0765 121.477 16.9381 122.6 17.015C122.984 17.0304 123.507 17.1688 123.753 17.2918Z" fill="#00BCD4"/>
<path d="M117.309 21.3363C117.079 21.5362 116.94 21.7823 117.002 21.8592C117.063 21.9514 117.202 21.9207 117.386 21.7515C117.586 21.567 117.817 21.5208 118.186 21.5977C118.509 21.6592 118.801 21.6131 118.986 21.4747C119.278 21.2594 119.278 21.244 118.909 21.1671C117.863 20.9518 117.694 20.9672 117.309 21.3363Z" fill="#00BCD4"/>
<path d="M121.062 21.3824C121.062 21.4593 121.308 21.5362 121.615 21.5362C121.938 21.5362 122.123 21.4747 122.061 21.3824C122.015 21.2902 121.769 21.2287 121.508 21.2287C121.262 21.2287 121.062 21.2902 121.062 21.3824Z" fill="#00BCD4"/>
<path d="M122.907 21.8438C122.907 21.9207 123.046 21.9976 123.215 21.9976C123.384 21.9976 123.522 21.9207 123.522 21.8438C123.522 21.7515 123.384 21.69 123.215 21.69C123.046 21.69 122.907 21.7515 122.907 21.8438Z" fill="#00BCD4"/>
<path d="M123.891 22.1667C123.768 22.382 124.399 22.9049 124.799 22.9203C125.168 22.9203 125.137 22.8587 124.537 22.3974C124.168 22.1206 123.968 22.0591 123.891 22.1667Z" fill="#00BCD4"/>
<path d="M125.291 23.2278C125.337 23.3047 125.491 23.3816 125.614 23.3816C125.737 23.3816 125.829 23.4739 125.829 23.5969C125.829 23.7199 125.937 23.843 126.06 23.9045C126.183 23.9506 126.291 24.089 126.291 24.2274C126.291 24.3505 126.368 24.4581 126.444 24.4581C126.767 24.4581 126.583 23.9352 126.106 23.5046C125.645 23.0894 125.091 22.9049 125.291 23.2278Z" fill="#00BCD4"/>
<path d="M118.447 24.0429C118.447 24.1967 118.186 24.2582 117.54 24.2582C117.048 24.2736 116.479 24.3659 116.279 24.4735L115.91 24.6581L116.264 24.8119C116.494 24.9195 116.786 24.9195 117.109 24.8272C117.54 24.6888 119.109 24.6734 119.831 24.7811C120.37 24.858 120.908 24.7503 120.908 24.5504C120.908 24.412 120.6 24.3197 119.954 24.2429C119.432 24.1967 118.924 24.0737 118.847 23.9968C118.632 23.7815 118.447 23.8123 118.447 24.0429Z" fill="#00BCD4"/>
<path d="M122.384 24.5196C122.461 24.7349 122.031 24.9195 121.415 24.9195C121.216 24.9195 121.062 24.981 121.062 25.0732C121.062 25.1501 121.446 25.227 121.908 25.227C122.523 25.227 122.784 25.2885 122.846 25.4577C122.907 25.5807 122.999 25.6884 123.061 25.6884C123.23 25.6884 125.214 27.703 125.214 27.8721C125.214 27.9336 125.491 28.2873 125.829 28.6257C126.367 29.1793 126.444 29.2254 126.444 28.9332C126.444 28.5795 124.968 26.6111 124.691 26.6111C124.599 26.6111 124.66 26.5034 124.814 26.3804C125.122 26.1497 125.122 26.1497 124.814 25.9191C124.445 25.6422 124.337 25.6422 124.26 25.8729C124.214 26.0113 124.122 25.996 123.922 25.796C123.691 25.5654 123.691 25.5346 123.891 25.5346C124.03 25.5346 124.137 25.4577 124.137 25.3654C124.137 25.1348 123.492 24.6273 123.184 24.6119C123.046 24.6119 122.876 24.535 122.83 24.4581C122.692 24.2274 122.292 24.2736 122.384 24.5196Z" fill="#00BCD4"/>
<path d="M126.752 25.1348C126.752 25.2732 126.86 25.3808 126.998 25.3808C127.136 25.3808 127.213 25.3039 127.183 25.1963C127.09 24.9195 126.752 24.8733 126.752 25.1348Z" fill="#00BCD4"/>
<path d="M127.213 25.8268C127.213 26.0114 127.29 26.1498 127.367 26.1498C127.459 26.1498 127.521 26.0575 127.521 25.9345C127.521 25.8115 127.459 25.6577 127.367 25.6115C127.29 25.5654 127.213 25.6577 127.213 25.8268Z" fill="#00BCD4"/>
<path d="M127.628 26.8725C127.459 27.0263 127.505 27.5338 127.674 27.5338C127.767 27.5338 127.828 27.3646 127.828 27.1493C127.828 26.7495 127.798 26.7033 127.628 26.8725Z" fill="#00BCD4"/>
<path d="M121.923 27.9644C121.877 28.0567 121.908 28.1797 122 28.2258C122.231 28.3796 122.384 28.1797 122.184 27.9798C122.077 27.8721 121.985 27.8721 121.923 27.9644Z" fill="#00BCD4"/>
<path d="M121.984 30.6095C121.662 30.7171 121.692 30.7325 122.261 30.7479C122.615 30.7632 122.907 30.6864 122.907 30.6095C122.907 30.4249 122.538 30.4249 121.984 30.6095Z" fill="#00BCD4"/>
<path d="M123.261 30.8709C122.892 31.0094 123.061 31.2093 123.599 31.3169C123.891 31.3631 124.184 31.4707 124.23 31.5476C124.276 31.6245 124.445 31.686 124.614 31.686C124.922 31.686 124.922 31.686 124.599 31.2247C124.276 30.7787 123.799 30.6403 123.261 30.8709Z" fill="#00BCD4"/>
<path d="M120.293 31.0708C120.293 31.1477 120.493 31.2246 120.739 31.2246C121 31.2246 121.246 31.1477 121.293 31.0708C121.354 30.9786 121.17 30.917 120.847 30.917C120.539 30.917 120.293 30.9786 120.293 31.0708Z" fill="#00BCD4"/>
<path d="M119.124 33.962C119.155 34.0235 119.862 34.1004 120.677 34.1158C121.677 34.1465 122.138 34.1004 122.061 33.9927C122.015 33.9005 121.354 33.839 120.508 33.839C119.708 33.839 119.078 33.9005 119.124 33.962Z" fill="#00BCD4"/>
<path d="M29.7604 19.3371C28.8069 19.4601 27.0999 21.4901 27.0999 22.5051C27.0999 22.705 26.9923 22.9664 26.8693 23.0741C26.7462 23.1817 26.6386 23.3509 26.6386 23.4431C26.6386 23.5508 26.4694 23.9968 26.2541 24.4274C26.0388 24.8733 25.8697 25.3654 25.8697 25.5346C25.8697 25.7191 25.7466 26.0728 25.6082 26.3497C25.4698 26.6265 25.3468 27.0878 25.316 27.38C25.2699 28.2258 24.8547 29.6714 24.5779 29.979C24.2549 30.3327 24.2703 31.6091 24.6086 32.2396C24.9008 32.7778 26.8693 34.4541 27.2076 34.4541C27.469 34.4541 28.2072 34.9154 28.3763 35.1769C28.4378 35.2845 28.607 35.3768 28.7454 35.3768C29.1453 35.3768 30.0833 35.7459 30.2217 35.9458C30.2833 36.0534 30.4063 36.1457 30.4832 36.1457C30.6831 36.1457 32.2824 37.176 32.4055 37.376C32.4516 37.4529 32.6362 37.5297 32.7899 37.5297C32.9437 37.5297 33.4051 37.7912 33.8203 38.1141C34.2201 38.4371 34.7737 38.7908 35.0506 38.8984C35.3274 39.0061 35.6349 39.206 35.7272 39.329C35.9271 39.5597 36.8345 39.9903 37.7418 40.2825C38.0647 40.3901 38.3723 40.5593 38.4338 40.6669C38.5107 40.7746 38.8029 40.9438 39.0951 41.0668C39.3873 41.1744 39.8332 41.4205 40.0793 41.5896C40.3407 41.7588 40.879 41.9126 41.3403 41.9587C42.1246 42.0202 42.1708 42.0049 42.9243 41.2975C43.6317 40.6362 43.7086 40.4978 43.7086 39.898C43.7086 39.5443 43.6471 39.1906 43.5548 39.1445C43.4779 39.0983 43.401 38.9292 43.401 38.7754C43.401 38.4371 42.3245 36.3149 41.8632 35.7305C41.6787 35.4998 41.4941 35.1153 41.448 34.8847C41.4018 34.654 41.2019 34.3618 41.002 34.2234C40.8021 34.1004 40.6329 33.8389 40.6329 33.6698C40.6329 33.4852 40.4484 33.1315 40.2331 32.8701C39.7871 32.3472 38.9413 30.7325 38.9413 30.4096C38.9413 30.2865 38.7414 29.9328 38.4799 29.6099C38.2339 29.3023 37.9878 28.9025 37.9263 28.7179C37.8648 28.5334 37.6495 28.2104 37.4342 27.9951C37.2189 27.7798 36.9575 27.3646 36.8345 27.0724C36.7114 26.7802 36.3885 26.2266 36.1117 25.8422C35.8502 25.4577 35.4658 24.8426 35.2659 24.4581C35.0813 24.0736 34.7891 23.6277 34.6353 23.4585C34.4662 23.2894 34.2355 22.8741 34.0971 22.5512C33.7126 21.6592 32.3901 19.9676 31.7442 19.5832C31.206 19.2448 30.8523 19.1987 29.7604 19.3371ZM31.6827 20.798C31.8519 21.0749 31.9903 21.5055 31.9903 21.7361C31.9903 21.9668 32.0825 22.2744 32.2056 22.4282C32.3132 22.5666 32.59 23.0279 32.7899 23.4278C33.2359 24.3197 33.2974 24.412 34.0971 25.6115C34.8506 26.7649 35.0506 27.0878 35.189 27.38C35.2505 27.503 35.4812 27.8567 35.7118 28.1489C35.9425 28.4411 36.1732 28.8256 36.2347 28.9947C36.2808 29.1639 36.5884 29.4561 36.9267 29.6406C37.6495 30.0558 38.0186 30.794 37.7264 31.2707C37.5572 31.5322 37.5726 31.5937 37.7725 31.7167C37.9109 31.7936 38.0186 31.932 38.0186 32.0243C38.0186 32.1012 38.3877 32.7624 38.8336 33.4852C39.7717 35.0077 40.556 36.3764 40.7867 36.8992C40.879 37.0992 41.3249 37.8373 41.7863 38.5293C42.8628 40.1748 42.9551 40.5132 42.3707 40.8053C41.8632 41.0668 41.8632 41.0668 40.2485 40.0057C38.5722 38.8984 37.9109 38.6062 37.4188 38.7754C36.7883 39.0061 36.2193 38.7293 36.0502 38.1141C35.9579 37.745 35.7426 37.5144 35.2351 37.2222C34.8506 37.0069 34.297 36.6686 34.0048 36.4533C33.728 36.238 33.3436 35.9919 33.1744 35.8996C33.0052 35.8074 32.2056 35.3922 31.4059 34.9616C30.6062 34.531 29.6374 33.9927 29.2529 33.7774C28.8684 33.5621 28.4532 33.3314 28.3302 33.2699C28.2072 33.2238 27.8535 32.9777 27.5459 32.7317C27.1153 32.4087 26.8077 32.3011 26.3003 32.3011C25.7313 32.3011 25.5775 32.2396 25.4083 31.932C25.1776 31.4707 25.3007 30.8555 25.7159 30.4864C25.885 30.348 26.0234 30.1635 26.0234 30.0866C26.0234 30.0097 26.1157 29.8252 26.2234 29.7021C26.3464 29.5637 26.5617 28.6718 26.7001 27.703C26.9154 26.3497 27.0845 25.7807 27.4229 25.227C27.6689 24.8272 27.8688 24.412 27.8688 24.3043C27.8688 23.9506 28.4532 22.2898 28.9453 21.2133C29.176 20.6904 29.9142 20.3213 30.7446 20.3213C31.2982 20.3059 31.4213 20.3675 31.6827 20.798Z" fill="#00BCD4"/>
<path d="M29.3451 25.0579C29.2989 25.1348 29.2067 25.673 29.1605 26.2574C29.0683 27.2416 29.0836 27.3493 29.422 27.6568C30.0832 28.2873 31.0982 27.949 31.3289 27.0263C31.4519 26.565 31.1751 25.4731 30.8521 25.1502C30.6061 24.9041 29.4835 24.8272 29.3451 25.0579Z" fill="#00BCD4"/>
<path d="M31.8212 28.5488C31.3598 29.1793 31.8212 29.9636 32.5594 29.7791C32.8823 29.7022 32.9438 29.5945 32.9438 29.1178C32.9438 28.7795 32.8362 28.4873 32.6824 28.3643C32.2979 28.0721 32.1288 28.1028 31.8212 28.5488Z" fill="#00BCD4"/>
<path d="M35.1118 29.6714C34.6966 29.9328 34.4813 31.0247 34.6966 31.6552C34.8657 32.1166 35.0041 32.255 35.4655 32.3626C36.1421 32.5318 36.8342 32.3319 36.9111 31.9474C36.9572 31.7629 36.8649 31.686 36.6035 31.686C36.4036 31.686 36.1729 31.6245 36.0806 31.563C35.8192 31.3938 35.5578 30.5634 35.6039 30.0866C35.6347 29.6099 35.4501 29.4561 35.1118 29.6714Z" fill="#00BCD4"/>
<path d="M30.3138 31.0862C29.7602 31.6706 29.7141 32.4241 30.2062 33.07C30.4676 33.4237 30.5906 33.4853 30.8059 33.3776C30.9751 33.27 31.1135 33.27 31.175 33.3776C31.2211 33.4545 31.1904 33.5314 31.1135 33.5314C30.7444 33.5314 30.9751 33.8236 31.4211 33.9158C32.1746 34.085 32.4822 33.6852 32.4822 32.5779C32.4822 31.8244 32.4053 31.563 32.0823 31.1324C31.5441 30.4403 30.9443 30.425 30.3138 31.0862Z" fill="#00BCD4"/>
<path d="M33.2818 31.4092C33.3895 31.6091 33.4971 31.7937 33.5125 31.8244C33.5279 31.8398 33.6201 31.8244 33.7124 31.7629C33.8354 31.686 33.7893 31.563 33.574 31.3631C33.1588 30.9786 33.0511 30.994 33.2818 31.4092Z" fill="#00BCD4"/>
<path d="M34.9427 33.9312C34.7889 34.1004 34.7735 34.2849 34.8812 34.5771C35.0657 35.0846 35.6501 35.1461 35.9577 34.6848C36.3883 34.0389 35.4194 33.3315 34.9427 33.9312Z" fill="#00BCD4"/>
<path d="M36.3884 35.9151C36.0347 36.4687 36.2346 36.9608 36.7729 36.8378C37.1112 36.7609 37.2496 36.8378 37.5264 37.2222C38.1569 38.0527 38.5722 37.6682 38.1416 36.6532C37.6802 35.546 36.8498 35.2077 36.3884 35.9151Z" fill="#00BCD4"/>
<path d="M39.0026 36.6839C38.8796 36.9915 39.0334 37.3606 39.3256 37.4836C39.6947 37.6067 39.9253 37.2991 39.8023 36.8531C39.6947 36.4071 39.141 36.2995 39.0026 36.6839Z" fill="#00BCD4"/>
<path d="M75.6187 47.3258C73.9886 47.7102 73.3581 47.8948 72.6661 48.2177C72.2355 48.433 71.7741 48.6022 71.6511 48.6022C71.5281 48.6022 71.3128 48.7406 71.159 48.9098C71.0052 49.0789 70.7899 49.2173 70.6823 49.2173C70.5746 49.2173 70.3286 49.4172 70.1133 49.6633C69.898 49.9247 69.4828 50.2323 69.1752 50.3553C68.8676 50.4784 68.6216 50.6629 68.6216 50.7552C68.6216 50.8474 68.1756 51.4318 67.622 52.0316C67.0837 52.6467 66.4686 53.4464 66.2687 53.8308C66.0688 54.2153 65.8227 54.6767 65.7304 54.8304C65.2845 55.6916 64.5309 58.2137 64.3771 59.3363C64.3002 59.9668 64.1926 60.2129 63.9158 60.3974C63.7159 60.5205 63.5467 60.7357 63.5467 60.8588C63.5467 60.9818 63.2238 61.4432 62.8393 61.8738C62.1934 62.5965 62.1473 62.6888 62.2549 63.2732C62.3011 63.6269 62.5625 64.3189 62.8239 64.8264C63.5621 66.272 63.8081 66.7948 63.9312 67.2101C63.9927 67.41 64.1772 67.7637 64.3156 67.979C64.454 68.1943 64.8692 68.8863 65.2383 69.5168C65.6074 70.1473 66.0995 70.9624 66.3302 71.3161C66.5762 71.6698 66.7762 72.0081 66.7762 72.085C66.7762 72.3003 68.191 73.5921 68.8523 73.9766C69.1906 74.1765 69.6058 74.4533 69.775 74.5917C69.9441 74.7301 70.3901 74.9608 70.7746 75.1146C71.159 75.2683 71.7434 75.5298 72.0971 75.6836C72.4508 75.8373 72.866 75.9757 73.0352 75.9757C73.189 75.9757 73.4043 76.0526 73.4965 76.1449C73.6811 76.3294 74.696 76.4063 77.9255 76.4832C79.9862 76.5294 80.3553 76.4986 81.3856 76.1757C82.0162 75.9911 82.6774 75.822 82.8466 75.822C83.0158 75.822 83.3695 75.6836 83.6155 75.5144C83.8769 75.3452 84.1999 75.2068 84.3383 75.2068C84.7997 75.2068 86.6604 74.0996 87.4909 73.3307C87.9215 72.9308 88.3521 72.5925 88.429 72.5925C88.5058 72.5925 88.6904 72.3464 88.8595 72.0543C89.0133 71.7621 89.1825 71.516 89.244 71.516C89.4132 71.516 90.259 69.7629 90.3666 69.2092C90.4128 68.9171 90.8126 67.9944 91.2278 67.1639C91.6584 66.3335 91.9967 65.5338 91.9967 65.3646C91.9967 65.2109 92.2428 64.7341 92.535 64.2882C92.9502 63.673 93.0886 63.2886 93.1501 62.5504L93.2424 61.5969L92.2428 60.5205C91.1048 59.3056 91.074 59.2287 90.5512 57.1987C90.1975 55.83 89.244 53.6463 88.9057 53.4464C88.8288 53.3849 88.7673 53.2465 88.7673 53.1081C88.7673 52.9697 88.5058 52.6006 88.1983 52.293C87.8753 51.9701 87.3063 51.3857 86.9219 51.0012C85.9838 50.017 83.7078 48.4484 83.2157 48.4484C83.0773 48.4484 82.8005 48.31 82.5852 48.1408C81.9546 47.6487 80.1246 47.3104 77.9255 47.2796C76.8336 47.2643 75.7879 47.2796 75.6187 47.3258ZM80.6167 48.756C81.4164 48.9867 82.293 49.325 82.6159 49.5249C82.7389 49.6172 82.985 49.7402 83.1542 49.8171C83.3233 49.894 83.7232 50.14 84.0461 50.3553C84.3691 50.5706 84.6766 50.7552 84.7381 50.7552C84.9534 50.7552 87.3217 53.2772 87.7677 53.9846C88.9211 55.7531 89.7976 58.3829 89.6438 59.5516C89.5054 60.5358 89.6438 60.7204 90.8434 61.2894C91.4585 61.5816 92.0736 61.8276 92.212 61.8276C92.7349 61.8276 92.4273 62.5043 91.7661 62.8118C91.0587 63.1348 90.8895 63.3347 90.9818 63.7192C91.0894 64.1498 90.2744 66.272 89.9514 66.4104C89.7054 66.518 89.2286 67.8252 89.2286 68.3942C89.2286 68.7171 89.121 69.117 88.998 69.2708C88.8749 69.4399 88.7673 69.6706 88.7673 69.7936C88.7673 70.5318 85.953 73.223 84.6151 73.7459C84.4921 73.792 84.1845 73.9458 83.9538 74.0688C83.7078 74.1765 83.4156 74.2841 83.2772 74.2841C83.1542 74.2841 82.862 74.3764 82.6467 74.4994C82.416 74.6224 81.9085 74.7762 81.5087 74.8224C81.1088 74.8685 80.7398 74.9761 80.6936 75.0684C80.6321 75.1453 79.4326 75.2068 77.9409 75.2068C75.8187 75.2068 75.0344 75.1453 74.0809 74.9146C73.4196 74.7455 72.8045 74.5302 72.7276 74.4533C72.6353 74.361 72.4047 74.2841 72.2355 74.2841C72.051 74.2841 71.5896 74.115 71.2205 73.8997C70.8514 73.6844 70.4362 73.4691 70.3132 73.4076C68.7138 72.6694 66.6224 70.0551 66.6224 68.8094C66.6224 68.4096 66.4994 68.2097 66.0226 67.8406C65.1922 67.1793 64.777 66.272 64.777 65.0878C64.777 64.2882 64.7308 64.119 64.4387 63.9191C64.2541 63.7807 63.9927 63.673 63.8543 63.673C63.3775 63.6576 62.6086 62.7503 63.1007 62.7503C63.4237 62.7503 65.4229 61.6892 65.8227 61.2894C65.9919 61.1356 65.9919 60.9818 65.8535 60.4897C65.5613 59.5516 65.8535 57.5063 66.4071 56.4144C66.5301 56.1991 66.6224 55.9069 66.6224 55.7839C66.6224 55.6609 66.73 55.4763 66.8531 55.3687C66.9761 55.261 67.0837 55.0765 67.0837 54.9535C67.0837 54.7074 68.2217 53.1388 69.0675 52.2469C69.7442 51.5087 71.1283 50.4322 71.9433 49.9862C72.2663 49.8171 72.6507 49.6018 72.7737 49.5403C73.1428 49.325 74.0194 48.9713 74.7729 48.7098C75.6187 48.4177 79.5556 48.4484 80.6167 48.756Z" fill="#00BCD4"/>
<path d="M88.5057 61.8276C88.3058 62.0737 88.152 62.3044 88.152 62.3659C88.152 62.4428 88.0443 62.5658 87.9367 62.6581C87.8137 62.7503 87.6599 63.0272 87.6138 63.2886L87.5061 63.7499L88.0443 63.1963C88.598 62.6427 89.1516 61.5816 88.9517 61.4739C88.8902 61.4278 88.6902 61.597 88.5057 61.8276Z" fill="#00BCD4"/>
<path d="M66.7761 62.6427C66.7761 63.0118 68.0679 64.442 68.3909 64.442C68.4677 64.442 68.4216 64.3343 68.2832 64.2267C68.1294 64.119 68.0064 63.9806 68.0064 63.9191C68.0064 63.7499 67.0068 62.289 66.8992 62.289C66.8223 62.289 66.7761 62.4581 66.7761 62.6427Z" fill="#00BCD4"/>
<path d="M88.2443 65.0725C87.8599 65.503 87.4754 65.8106 87.3831 65.7491C87.3062 65.703 87.2293 65.7183 87.2293 65.8106C87.2293 65.8875 87.3216 65.9798 87.4293 66.0259C87.6292 66.1028 85.9376 67.8252 85.6607 67.8252C85.5685 67.8252 85.1994 68.0251 84.8149 68.2865C84.4459 68.5326 84.0306 68.7479 83.9076 68.7479C83.7846 68.7479 83.5232 68.8555 83.3232 68.9786C83.031 69.1785 82.8926 69.1785 82.5543 69.0401C82.216 68.8863 82.1083 68.9017 81.8777 69.1016C81.7239 69.2554 81.4778 69.363 81.3394 69.363C81.201 69.363 81.0472 69.4245 81.0011 69.5168C80.955 69.5937 80.8012 69.6706 80.6781 69.6706C80.5551 69.6706 79.94 69.9782 79.3248 70.3626C78.6943 70.7471 78.0946 71.0547 78.0177 71.0547C77.9254 71.0547 77.4641 70.8547 77.0027 70.6087C76.5414 70.3626 75.834 70.0397 75.4341 69.8859C75.0343 69.7475 74.6191 69.5476 74.5114 69.4707C74.4038 69.3938 74.0501 69.3784 73.7117 69.4399C73.3427 69.5014 73.0812 69.4707 73.0043 69.3784C72.9582 69.2861 72.7275 69.2092 72.5122 69.2092C72.1739 69.2092 71.8663 69.0862 70.9282 68.5787C70.8052 68.5172 70.39 68.3019 70.0209 68.1174C69.0982 67.656 68.1294 66.7026 68.2524 66.3796C68.3139 66.2258 68.2678 66.1336 68.1448 66.1336C68.0217 66.1336 67.6988 65.8875 67.4373 65.5953C66.9145 65.0263 66.4685 64.8879 66.4685 65.3185C66.4685 66.1797 67.8526 68.0559 69.3135 69.1631C70.3439 69.932 72.4046 70.824 73.7579 71.0547C74.1577 71.1315 74.7421 71.27 75.0343 71.3776C75.9108 71.6698 79.4633 71.6237 80.5397 71.3007C83.477 70.4395 84.1383 70.1935 85.4608 69.4553C86.9679 68.5941 88.7672 66.6872 88.7672 65.9183C88.7672 65.8106 88.8748 65.6261 88.9979 65.5184C89.2439 65.3185 89.3208 64.2882 89.0901 64.2882C89.0132 64.2882 88.6288 64.6419 88.2443 65.0725Z" fill="#00BCD4"/>
<path d="M71.6202 66.1336C71.6664 66.2105 71.8202 66.2874 71.9432 66.2874C72.0662 66.2874 72.1585 66.2105 72.1585 66.1336C72.1585 66.0413 72.0201 65.9798 71.8355 65.9798C71.6664 65.9798 71.5741 66.0413 71.6202 66.1336Z" fill="#00BCD4"/>
<path d="M82.4619 66.1336C82.4619 66.2105 82.6311 66.2874 82.831 66.2874C83.0463 66.2874 83.2616 66.2105 83.3077 66.1336C83.3692 66.0413 83.2001 65.9798 82.9386 65.9798C82.6772 65.9798 82.4619 66.0413 82.4619 66.1336Z" fill="#00BCD4"/>
<path d="M79.6323 66.4565C79.3862 66.518 79.1248 66.5488 79.0633 66.518C78.9095 66.4104 78.4481 66.6103 78.5404 66.7333C78.6327 66.8871 81.2778 66.7487 81.4623 66.5796C81.5546 66.4873 81.5546 66.4412 81.4623 66.4258C81.37 66.4258 81.0317 66.4104 80.6934 66.3796C80.3551 66.3489 79.8783 66.3796 79.6323 66.4565Z" fill="#00BCD4"/>
<path d="M73.4655 66.5949C73.5116 66.6718 73.8346 66.7487 74.1729 66.7487C74.542 66.7487 74.7573 66.6872 74.6958 66.5949C74.6496 66.5027 74.3267 66.4412 73.9884 66.4412C73.6193 66.4412 73.404 66.5027 73.4655 66.5949Z" fill="#00BCD4"/>
<path d="M69.698 67.21C69.9902 67.41 70.1593 67.41 70.1593 67.21C70.1593 67.1178 70.0055 67.0563 69.821 67.0563C69.5288 67.0563 69.5134 67.087 69.698 67.21Z" fill="#00BCD4"/>
<path d="M70.6208 67.6714C70.6208 67.7483 70.7285 67.8252 70.8515 67.8252C70.9746 67.8252 71.0822 67.7483 71.0822 67.6714C71.0822 67.5791 70.9746 67.5176 70.8515 67.5176C70.7285 67.5176 70.6208 67.5791 70.6208 67.6714Z" fill="#00BCD4"/>
<path d="M84 67.6714C84 67.7483 84.1384 67.8252 84.3076 67.8252C84.4767 67.8252 84.6151 67.7483 84.6151 67.6714C84.6151 67.5791 84.4767 67.5176 84.3076 67.5176C84.1384 67.5176 84 67.5791 84 67.6714Z" fill="#00BCD4"/>
<path d="M72.0815 68.5941C72.1276 68.671 72.3122 68.7479 72.4813 68.7479C72.6505 68.7479 72.8197 68.8556 72.8658 68.9786C72.9734 69.24 73.5424 69.3015 73.5424 69.0555C73.5424 68.9632 73.404 68.9017 73.2349 68.9017C73.0657 68.9017 72.9273 68.794 72.9273 68.671C72.9273 68.5172 72.7735 68.4403 72.4506 68.4403C72.1891 68.4403 72.02 68.5019 72.0815 68.5941Z" fill="#00BCD4"/>
<path d="M82.4619 68.5941C82.4619 68.671 82.6311 68.7479 82.8464 68.7479C83.0617 68.7479 83.2308 68.671 83.2308 68.5941C83.2308 68.5018 83.0617 68.4403 82.8464 68.4403C82.6311 68.4403 82.4619 68.5018 82.4619 68.5941Z" fill="#00BCD4"/>
<path d="M121.677 53.2157C121.554 53.2926 121.308 53.3695 121.154 53.3695C120.985 53.3695 120.247 53.6771 119.509 54.0615C118.632 54.5229 117.894 54.7843 117.325 54.8458C116.202 54.9842 115.049 55.707 114.818 56.4144C114.741 56.6912 114.511 57.0142 114.326 57.1526C114.08 57.3217 113.988 57.537 113.988 57.9676C113.988 58.2906 113.942 58.5982 113.88 58.6597C113.819 58.7212 113.757 58.9826 113.742 59.2287C113.711 59.8284 113.588 59.9361 113.219 59.7054C112.973 59.5516 112.911 59.5824 112.834 59.8284C112.788 59.9976 112.511 60.2898 112.25 60.4743C111.789 60.7973 110.42 62.0275 110.128 62.3659C108.821 63.9191 108.621 64.7956 109.297 66.0259C109.743 66.7948 111.927 68.9786 112.896 69.5937C113.25 69.809 113.619 70.1473 113.696 70.3473C113.819 70.5933 113.957 70.6856 114.142 70.6394C114.434 70.5625 114.511 70.701 114.695 71.7006C114.757 72.0696 114.895 72.3003 115.08 72.3618C115.249 72.4233 115.479 72.654 115.603 72.8847C115.756 73.1923 116.141 73.4537 116.971 73.8228C117.617 74.0996 118.14 74.3764 118.14 74.4379C118.14 74.5763 120.093 75.822 120.293 75.822C120.37 75.822 120.693 76.0065 121.016 76.2218C121.508 76.5601 121.708 76.6063 122.277 76.5294C123.492 76.3602 125.783 74.6993 126.337 73.5767C126.475 73.3153 126.69 73.0231 126.813 72.9154C126.952 72.7924 127.059 72.654 127.059 72.5771C127.059 72.2849 126.613 72.4541 126.091 72.9308C125.229 73.7305 123.799 74.9915 123.276 75.4221C122.415 76.1295 121.815 75.9911 120.17 74.7609C119.386 74.1765 118.617 73.5306 118.432 73.2999C118.217 73.0231 117.971 72.9001 117.632 72.9001C117.233 72.9001 116.956 72.7309 116.295 72.085L115.449 71.2853L115.495 70.3319C115.541 69.1324 116.018 68.0097 116.525 67.8867C117.171 67.7329 116.971 67.41 116.187 67.3023C115.126 67.1639 114.695 67.1024 114.526 67.0717C114.449 67.0409 114.203 67.0101 114.003 67.0101C113.542 66.9794 113.434 66.7026 113.757 66.395C113.896 66.2412 113.926 66.1182 113.834 66.0567C113.757 66.0105 113.68 65.7799 113.68 65.5492C113.68 65.3185 113.588 64.9648 113.48 64.7495C113.311 64.4266 113.311 64.3035 113.496 64.0114C113.696 63.7192 113.834 63.673 114.849 63.673C115.464 63.673 116.018 63.7345 116.064 63.8268C116.202 64.0421 116.756 63.6576 116.756 63.3347C116.756 63.1655 116.633 63.0579 116.464 63.0579C115.972 63.0579 115.095 61.9353 114.987 61.151C114.926 60.7511 114.818 60.3974 114.741 60.3513C114.511 60.2129 114.588 59.5516 114.849 59.4593C115.095 59.3671 115.095 58.9365 114.849 58.2906C114.787 58.1522 115.034 57.6908 115.433 57.1526C115.987 56.4144 116.248 56.1991 116.787 56.03C117.663 55.7685 118.063 55.7839 118.294 56.0607C118.524 56.3529 118.755 56.3529 118.755 56.0915C118.755 55.83 119.478 55.1688 120.6 54.3998C121.862 53.554 122.108 53.6002 124.076 55.0919C124.999 55.7993 125.752 56.4298 125.752 56.5221C125.752 56.599 125.598 56.6912 125.399 56.722C125.214 56.7527 124.876 56.8604 124.676 56.968C124.138 57.2449 119.709 57.1064 119.355 56.8143C118.832 56.3529 118.724 56.5374 118.832 57.7831C118.893 58.4444 119.017 59.1364 119.078 59.3363C119.155 59.5362 119.216 59.9515 119.216 60.259C119.216 60.5666 119.324 61.0279 119.447 61.274C119.57 61.5047 119.678 61.9045 119.678 62.1506C119.678 62.4274 119.785 62.6427 119.985 62.7503C120.339 62.9349 120.6 62.8426 120.6 62.535C120.6 62.412 120.739 62.289 120.923 62.2428C121.108 62.1967 121.2 62.0891 121.139 61.9968C121 61.7507 120.6 61.7969 120.6 62.0583C120.6 62.1813 120.508 62.289 120.401 62.289C120.124 62.289 119.678 60.9203 119.678 60.0899C119.678 59.5362 119.616 59.3363 119.37 59.2133C119.032 59.0287 119.001 58.9365 119.201 58.6289C119.293 58.4597 119.462 58.4597 120.062 58.6135C120.677 58.7673 120.831 58.7673 120.97 58.5828C121.062 58.4597 121.446 58.1983 121.815 57.9984L122.492 57.6601L123.123 58.0907C123.999 58.7058 124.014 59.0749 123.153 59.5824C122.784 59.7977 122.323 60.2283 122.138 60.5205C121.954 60.8126 121.738 61.0587 121.662 61.0587C121.585 61.0587 121.523 61.2432 121.523 61.4585C121.523 61.6738 121.446 61.9814 121.354 62.1506C121.246 62.3812 121.246 62.5196 121.369 62.6888C121.631 62.9964 121.446 63.3655 121.077 63.2578C120.524 63.1194 120.216 63.6115 120.185 64.688C120.185 65.2878 120.078 65.7799 119.908 66.0413C119.632 66.4411 119.693 67.2101 119.985 67.2101C120.078 67.2101 120.139 67.4561 120.139 67.7637C120.139 68.1328 120.201 68.2865 120.339 68.2558C120.616 68.1481 120.647 67.5945 120.37 67.3638C120.016 67.0717 120.093 66.7026 120.6 66.2874C120.862 66.0721 121.062 65.826 121.062 65.7337C121.062 65.6261 121.246 65.5031 121.462 65.4569C121.754 65.38 121.969 65.4415 122.2 65.6568C122.584 66.0259 122.907 66.0721 122.907 65.7799C122.892 65.5646 121.954 65.0571 121.523 65.0571C121.369 65.0571 121.169 65.1801 121.077 65.3185C120.954 65.5338 120.893 65.5492 120.739 65.4108C120.539 65.2109 120.477 63.9037 120.647 63.7345C120.693 63.6884 121.062 63.6115 121.477 63.5808C121.877 63.55 122.231 63.5346 122.261 63.5192C122.292 63.5192 122.169 63.3193 121.985 63.0579C121.677 62.6273 121.677 62.5658 121.892 62.2582C122.031 62.0737 122.138 61.7661 122.138 61.5969C122.138 61.4124 122.323 60.9818 122.554 60.6281C122.876 60.1206 123.076 59.9822 123.399 59.9822C123.753 59.9822 123.83 59.9207 123.83 59.6131C123.83 59.4132 123.907 59.2133 123.999 59.1825C124.199 59.121 124.753 57.737 124.753 57.3217C124.753 57.1064 124.906 57.0603 125.752 57.0603C126.629 57.0603 126.829 57.1218 127.444 57.5524C129.166 58.7827 129.12 58.7212 129.166 60.2283C129.182 60.9818 129.12 62.4274 129.028 63.4577C128.889 65.1032 128.905 65.38 129.12 65.8568C129.289 66.2105 129.366 66.6872 129.335 67.1485C129.289 67.8713 129.274 67.9021 128.782 67.9482C128.121 68.0097 127.828 67.7637 127.828 67.1024C127.828 66.5488 127.598 65.9798 127.382 65.9798C127.305 65.9798 127.106 66.4104 126.906 66.9332C126.721 67.4715 126.506 68.0251 126.429 68.1635C126.244 68.5172 126.26 68.7479 126.444 68.7479C126.521 68.7479 127.044 69.0247 127.598 69.363C128.151 69.7014 128.674 69.9782 128.751 69.9782C128.828 69.9782 129.028 70.132 129.212 70.3165C129.428 70.5625 129.566 70.6087 129.689 70.4857C129.812 70.3626 129.751 70.132 129.52 69.6706C129.212 69.0555 129.197 69.0093 129.458 68.6249C129.612 68.3942 129.812 68.1328 129.935 68.0559C130.074 67.9482 130.15 67.3638 130.197 66.2105C130.243 65.1032 130.35 64.3189 130.52 63.9191C130.704 63.4885 130.735 63.1194 130.658 62.5043C130.612 62.0429 130.504 61.6277 130.427 61.5816C130.274 61.4893 130.243 60.5512 130.397 60.3974C130.504 60.2744 131.165 60.9357 132.411 62.3812C133.272 63.3962 133.441 64.0114 132.949 64.4727C132.58 64.811 132.426 65.0263 131.981 65.7491C131.581 66.395 131.581 66.4104 130.981 67.1332C130.535 67.6714 130.504 67.8252 130.843 67.8252C131.212 67.8252 132.811 66.1643 133.272 65.3031C133.795 64.3343 133.811 63.2424 133.334 62.4581C132.949 61.8276 132.273 61.0587 132.088 61.0587C132.027 61.0587 131.75 60.8126 131.488 60.5205C131.165 60.136 130.935 59.9976 130.735 60.0591C130.397 60.1668 130.181 59.813 130.043 58.9211C129.966 58.4751 129.797 58.1522 129.443 57.8446C129.166 57.5986 128.859 57.2602 128.766 57.0757C128.659 56.9065 128.49 56.7527 128.367 56.7527C128.244 56.7527 128.059 56.6143 127.951 56.4606C127.828 56.2914 127.552 56.1069 127.321 56.0607C127.09 55.9992 126.567 55.6763 126.167 55.3533C125.783 55.015 125.383 54.7536 125.291 54.7536C125.214 54.7536 124.783 54.5075 124.368 54.1999C123.599 53.6617 122.4 53.0619 122.077 53.0619C121.985 53.0619 121.8 53.1388 121.677 53.2157ZM113.834 60.8742C113.834 61.274 113.726 61.5662 113.526 61.7507C113.203 62.0429 113.111 62.6734 113.373 62.8272C113.649 62.9964 113.542 63.5192 113.142 63.9498C112.742 64.3804 112.665 64.6726 112.896 64.811C112.973 64.8572 113.08 65.3493 113.142 65.8875C113.219 66.7179 113.311 66.9179 113.634 67.1332C114.434 67.6714 114.91 69.6706 114.265 69.7936C114.126 69.8244 113.88 69.686 113.726 69.5168C113.403 69.117 113.573 69.2861 111.235 66.9948C109.882 65.6568 109.374 65.0571 109.374 64.7956C109.374 64.5342 109.82 63.9652 110.897 62.858C111.727 61.9968 112.619 61.0587 112.85 60.7819C113.465 60.0899 113.834 60.1206 113.834 60.8742Z" fill="#00BCD4"/>
<path d="M35.3734 57.2602C34.7583 57.5678 34.2046 57.7216 33.8663 57.7062C31.375 57.5524 30.4831 57.737 30.2063 58.4751C30.114 58.7519 29.9295 58.9057 29.7449 58.9057C29.3758 58.9057 27.2536 60.705 27.2536 60.9972C27.2536 61.1202 27.1152 61.2894 26.946 61.397C26.7769 61.5047 26.6385 61.7046 26.6385 61.8584C26.6385 61.9968 26.5616 62.166 26.4847 62.2121C26.254 62.3505 25.7927 63.4116 25.4851 64.5188C25.3313 65.0263 25.1314 65.58 25.0237 65.7491C24.9161 65.9183 24.7008 66.4719 24.5163 66.9794C24.3471 67.4869 23.9165 68.4711 23.5782 69.1785C23.2245 69.8705 22.9477 70.5164 22.9477 70.5933C22.9477 70.6702 22.7477 71.0239 22.5017 71.393C22.271 71.7621 22.025 72.3311 21.9634 72.6694C21.8558 73.2692 21.6866 73.9612 21.1791 75.6836C20.9331 76.514 20.9331 76.5755 21.2253 77.2214C21.6866 78.2364 22.4556 78.9284 24.5624 80.251C27.4535 82.0656 30.1601 83.0806 31.4827 82.8345C32.2362 82.6961 33.0513 82.0964 33.6203 81.2967C34.789 79.6512 35.6195 78.5901 35.7425 78.5901C35.804 78.5901 36.0347 78.2671 36.25 77.8519C37.2957 75.9142 37.5418 75.5144 37.9877 74.93C38.2645 74.5917 38.4798 74.2534 38.4798 74.1611C38.4798 74.0842 38.5875 73.9304 38.7105 73.8228C38.8335 73.7151 38.9412 73.5306 38.9412 73.4229C38.9412 73.2999 39.218 72.9308 39.5563 72.5925C39.8793 72.2696 40.3099 71.7006 40.479 71.3622C40.6482 71.0239 40.9558 70.5779 41.1403 70.3934C41.4325 70.1012 41.4786 69.8705 41.5094 68.671C41.5248 67.9175 41.6017 66.8717 41.6632 66.3643C41.7708 65.5338 41.817 65.4416 42.1399 65.4723C42.509 65.5184 42.6013 65.2878 42.2629 65.1032C42.1399 65.0263 42.0323 64.6111 41.9861 63.9806C41.94 63.3193 41.7862 62.6888 41.5094 62.1198C41.2787 61.6431 41.0942 61.1356 41.0942 60.9972C41.0942 60.582 40.2022 59.8746 39.5563 59.7669C38.9873 59.6747 38.7874 59.4594 38.7874 58.9211C38.7874 58.7673 38.649 58.5213 38.4798 58.3675C38.3107 58.2137 38.1723 58.0138 38.1723 57.9215C38.1723 57.6447 37.5264 57.1526 36.9112 56.9681C36.3884 56.7989 36.2346 56.8296 35.3734 57.2602ZM37.4034 57.9061C37.7263 58.2598 37.7417 58.306 37.5264 58.552C37.388 58.7058 37.0958 59.2287 36.8805 59.7054C36.6498 60.1975 36.4038 60.6281 36.3115 60.6742C36.0962 60.828 36.1423 61.3201 36.4038 61.4278C36.7267 61.5508 36.6959 61.8891 36.3269 62.2121C36.1423 62.3813 36.0193 62.6427 36.0501 62.8118C36.1116 63.1963 36.6344 63.3501 36.6344 62.9964C36.6344 62.6273 37.2188 62.1044 37.5418 62.2121C37.7263 62.2736 38.0954 61.9968 38.8182 61.2894C39.3564 60.7358 39.9254 60.2898 40.0638 60.2898C40.356 60.2898 40.6174 61.2432 40.3406 61.3355C40.0331 61.4432 39.5563 62.0275 39.5563 62.3044C39.5563 62.4428 39.4487 62.6427 39.3257 62.7503C39.2026 62.858 39.095 63.0733 39.095 63.2271C39.095 63.6269 39.5871 63.6115 39.9562 63.1963C40.1561 62.9656 40.3406 62.9195 40.6328 62.981C41.3864 63.1809 41.4325 63.3347 40.9096 64.2267C40.6482 64.7188 40.479 65.1955 40.5252 65.3647C40.5713 65.5338 40.4637 65.8875 40.2637 66.1643C39.9254 66.6718 39.9254 66.6718 40.233 66.9179C40.5252 67.1639 40.5252 67.1793 40.2637 67.5945C40.0331 67.9329 40.0177 68.0866 40.1561 68.3942C40.479 69.117 40.3253 69.5937 39.3718 70.7163C39.1411 70.9932 38.9412 71.3007 38.9412 71.3776C38.9412 71.4699 38.7567 71.8082 38.526 72.1158C38.2799 72.4233 38.0339 72.777 37.9416 72.9308C37.5418 73.5767 36.2346 75.4529 35.6964 76.1295C35.358 76.5601 35.0505 77.0984 35.0043 77.3598C34.9428 77.652 34.7275 77.9134 34.3892 78.1134C34.0816 78.2979 33.8663 78.5439 33.8663 78.7285C33.8663 78.8977 33.4972 79.5743 33.0359 80.2356C32.5899 80.8968 32.1747 81.5889 32.1132 81.7888C31.9748 82.204 31.5288 82.2348 30.4216 81.8657C29.0683 81.4351 26.6692 80.3586 26.4847 80.0972C26.4386 80.0357 26.2233 79.9126 26.0233 79.8357C25.808 79.7435 25.5005 79.5743 25.3313 79.482C24.547 78.9745 23.7781 78.5132 23.6089 78.4363C23.5167 78.3902 23.0399 78.0211 22.5786 77.6059C21.6405 76.7908 21.5482 76.4832 22.025 75.8681C22.1941 75.6528 22.3325 75.3914 22.3325 75.2991C22.3325 75.0838 22.7631 74.2072 23.1168 73.6998C23.3014 73.4537 23.3475 73.1461 23.3014 72.6848C23.2245 72.0543 23.2399 72.0081 23.7012 71.8543C24.0703 71.7313 24.1779 71.5929 24.1779 71.3007C24.1779 70.9316 24.4394 70.2089 24.8853 69.3323C25.0084 69.117 25.1006 68.8248 25.1006 68.7018C25.1006 68.5634 25.1929 68.2712 25.3159 68.0251C25.439 67.7944 25.6543 67.287 25.7927 66.9025C25.9464 66.518 26.1464 66.0259 26.2694 65.7953C26.3924 65.58 26.4847 65.2878 26.4847 65.1647C26.4847 65.0417 26.5923 64.8572 26.7154 64.7495C26.8384 64.6419 26.946 64.3958 26.946 64.1959C26.946 64.0114 27.0076 63.8114 27.0845 63.7653C27.1613 63.7192 27.269 63.4885 27.3305 63.2578C27.3766 63.0271 27.5458 62.7657 27.6842 62.6581C27.8226 62.5658 28.0379 62.1352 28.1763 61.7354C28.3609 61.151 28.4839 60.9664 28.7607 60.9357C28.976 60.9049 29.2067 60.9972 29.3297 61.1664C29.5296 61.4278 29.545 61.4278 29.6373 61.1356C29.8679 60.4282 30.1755 60.0591 30.56 60.013C30.7753 59.9822 31.0059 59.8438 31.0521 59.7054C31.0982 59.567 31.2366 59.2133 31.375 58.9365C31.5903 58.5213 31.7133 58.4444 32.1747 58.4444C32.9282 58.4444 33.1589 58.6289 33.0359 59.121C32.9898 59.3363 32.8667 59.5209 32.7898 59.5209C32.5592 59.5209 32.6053 59.8438 32.8975 60.1668C33.2973 60.6127 33.651 60.5051 34.0816 59.7669C34.4353 59.1672 34.5584 59.0749 35.0658 59.0288C35.5272 58.998 35.6502 58.9211 35.681 58.6135C35.7425 58.1829 36.4191 57.5217 36.7882 57.5217C36.9266 57.5217 37.2034 57.6908 37.4034 57.9061ZM38.4337 59.3209C38.3876 59.4747 38.3568 59.3517 38.3568 59.0595C38.3568 58.7673 38.3876 58.6443 38.4337 58.7827C38.4645 58.9365 38.4645 59.1825 38.4337 59.3209Z" fill="#00BCD4"/>
<path d="M33.9125 61.9045C33.8664 62.043 33.8664 62.1814 33.9125 62.2429C34.0663 62.3967 34.4815 62.1506 34.4815 61.9045C34.4815 61.597 34.0356 61.597 33.9125 61.9045Z" fill="#00BCD4"/>
<path d="M32.113 62.3813C32.0515 62.5351 32.0823 62.7196 32.1592 62.7965C32.2668 62.9041 32.3591 62.8734 32.4206 62.6888C32.4821 62.5351 32.4514 62.3505 32.3745 62.2736C32.2668 62.166 32.1746 62.1967 32.113 62.3813Z" fill="#00BCD4"/>
<path d="M33.3587 63.6884C33.205 63.8576 33.0973 64.0729 33.1281 64.1498C33.1588 64.2421 33.3434 64.0883 33.5279 63.8422C33.9124 63.3194 33.7893 63.2117 33.3587 63.6884Z" fill="#00BCD4"/>
<path d="M27.869 65.7645C27.869 65.8106 28.1458 66.2566 28.4995 66.7641C29.0839 67.6253 29.1146 67.7176 28.8839 67.9636C28.6686 68.2097 28.5149 68.225 27.8382 68.102C27.3 68.0098 26.9309 68.0098 26.6848 68.1174C26.2388 68.3173 26.2388 68.5326 26.6848 68.6403C27.669 68.8709 30.3295 70.0858 30.3295 70.3165C30.3295 70.378 30.4218 70.4395 30.5448 70.4395C30.837 70.4395 30.9293 70.7471 30.7755 71.1623C30.6063 71.6083 30.4064 71.6083 29.8066 71.1623C29.5452 70.9624 29.0685 70.6395 28.7455 70.4395L28.1458 70.0858L27.7767 70.5164C27.5768 70.7625 27.4076 71.0239 27.4076 71.1162C27.4076 71.3315 29.0377 72.4387 29.3453 72.4387C29.6836 72.4387 29.7451 72.7463 29.4991 73.1308C29.3607 73.3307 29.253 73.5767 29.253 73.669C29.253 73.9304 29.6529 73.8382 29.9604 73.4998C30.145 73.2999 30.3756 73.2077 30.5909 73.2538C31.0062 73.3307 31.0062 73.3153 30.7601 72.9001C30.5909 72.6387 30.6217 72.531 30.9754 72.1927C31.3752 71.7928 31.3752 71.7928 31.7751 72.0696C32.2826 72.4387 32.2364 72.9001 31.652 73.2077C31.083 73.4998 29.8682 74.7301 29.8682 75.0069C29.8682 75.376 30.2526 75.2068 30.9139 74.5148C31.3137 74.0996 31.7289 73.8228 31.9289 73.8228C32.2672 73.8228 32.9438 74.3918 32.9438 74.684C32.9438 74.9608 32.0826 75.6682 31.7597 75.6682C31.5752 75.6682 31.3906 75.7297 31.3445 75.8066C31.2522 75.9604 31.5905 76.1295 31.9596 76.1295C32.2826 76.1295 33.8204 75.4221 33.9434 75.2222C33.9896 75.13 34.2049 75.0531 34.4048 75.0531C35.1583 75.0531 34.8969 74.4994 33.9896 74.1457C33.7281 74.0535 33.5282 73.8228 33.4667 73.5614C33.4052 73.3307 33.2822 73.0539 33.1745 72.977C32.7132 72.5618 31.7443 71.0547 31.5905 70.5011C31.4829 70.1166 31.2368 69.7475 31.0215 69.6091C30.8062 69.4707 30.6371 69.3015 30.6371 69.2246C30.6371 68.9786 31.2368 68.9325 31.4214 69.1478C31.5136 69.2708 31.6674 69.3631 31.7597 69.3631C31.852 69.3631 32.0365 69.4553 32.1595 69.5783C32.2979 69.686 32.79 69.9013 33.2514 70.0397C33.7128 70.1935 34.3125 70.4088 34.5586 70.5164C35.3429 70.8701 36.7269 71.1008 37.3421 70.9932C37.7726 70.9009 37.8649 70.8394 37.6958 70.7317C37.5727 70.6548 37.2805 70.5933 37.0191 70.5933C36.7731 70.5933 36.3886 70.4857 36.1733 70.3626C35.958 70.2396 35.5889 70.132 35.3275 70.132C35.0814 70.132 34.7277 70.0243 34.5739 69.9013C34.4048 69.7783 34.0972 69.6706 33.8973 69.6706C33.6974 69.6706 33.4359 69.563 33.3129 69.4399C33.1745 69.3169 32.9592 69.2093 32.8054 69.2093C32.6516 69.2093 32.2979 68.994 32.0211 68.7479C31.7443 68.4865 31.4214 68.2866 31.3291 68.2866C31.2214 68.2866 30.96 68.1174 30.7293 67.9021C30.4987 67.6868 30.2526 67.5176 30.1757 67.5176C30.1142 67.5176 29.6375 67.1024 29.13 66.5949C28.3149 65.7799 27.869 65.4877 27.869 65.7645ZM30.1911 68.5326C30.3756 68.7479 30.3603 68.7787 30.1142 68.7325C29.945 68.7018 29.7913 68.5788 29.7451 68.4711C29.6682 68.2097 29.945 68.2404 30.1911 68.5326Z" fill="#00BCD4"/>
<path d="M26.4232 70.055C26.254 70.1781 25.9618 70.2857 25.7619 70.2857C25.4851 70.2857 25.3313 70.4241 25.1621 70.8547C25.0237 71.1777 24.7777 71.5929 24.5931 71.7928C24.3317 72.0696 24.301 72.1773 24.4701 72.2695C24.7469 72.4387 25.1775 72.3157 25.5005 71.962C25.7158 71.7159 25.7311 71.5929 25.5927 71.2699C25.2544 70.5625 25.3774 70.4703 26.2079 70.824C26.3924 70.9008 26.5923 70.7932 26.8692 70.501C27.0844 70.2703 27.2536 70.0243 27.2536 69.9628C27.2536 69.7475 26.7461 69.809 26.4232 70.055Z" fill="#00BCD4"/>
<path d="M25.9925 72.7463C25.3928 73.3768 25.1775 73.5152 24.7315 73.5152C23.5935 73.5152 24.0856 73.9919 25.685 74.4225C26.0387 74.5302 26.3309 74.6686 26.3309 74.7455C26.3309 74.8224 26.5462 75.0069 26.7922 75.1299C27.0537 75.2684 27.838 75.7758 28.53 76.2679C30.3754 77.5751 31.8517 78.2825 32.7283 78.2825C33.3127 78.2825 33.3742 78.0518 32.8667 77.7597C32.7129 77.6674 32.4207 77.4059 32.2208 77.1907C32.0055 76.9446 31.6518 76.7447 31.2827 76.6832C30.8521 76.6216 30.6368 76.4986 30.5138 76.2064C30.36 75.8681 30.0832 75.7451 29.6834 75.8066C29.6218 75.8066 29.3912 75.7451 29.1759 75.6682C28.8683 75.5452 28.7914 75.4221 28.7914 74.9762C28.7914 74.6686 28.6991 74.3149 28.5761 74.1919C28.4531 74.0842 28.3147 73.8997 28.2839 73.792C28.2224 73.6536 28.084 73.7305 27.838 74.0073C27.638 74.2534 27.3151 74.4379 27.1305 74.4379C26.6231 74.4379 26.6999 73.792 27.2689 73.1308C27.7457 72.6079 27.7457 72.5771 27.4842 72.2849C27.069 71.8236 26.7922 71.9159 25.9925 72.7463Z" fill="#00BCD4"/>
<path d="M31.5596 74.9762C31.5596 75.1146 31.6365 75.2068 31.7287 75.1761C31.821 75.1453 31.8979 75.0531 31.8979 74.9762C31.8979 74.8993 31.821 74.807 31.7287 74.7762C31.6365 74.7455 31.5596 74.8378 31.5596 74.9762Z" fill="#00BCD4"/>
<path d="M34.4352 76.391C34.2507 76.5601 34.3276 76.8984 34.5429 76.8984C34.7274 76.8984 34.9427 76.5909 34.9427 76.3448C34.9427 76.2372 34.5429 76.2679 34.4352 76.391Z" fill="#00BCD4"/>
<path d="M125.952 59.2594C125.845 59.3671 125.629 59.5055 125.491 59.567C125.337 59.6131 125.214 59.8131 125.214 59.9822C125.214 60.3052 124.707 60.9049 124.445 60.9049C124.368 60.9049 124.291 60.7665 124.291 60.5974C124.291 60.4282 124.368 60.2898 124.445 60.2898C124.538 60.2898 124.599 60.1821 124.599 60.0591C124.599 59.9361 124.538 59.8284 124.445 59.8284C124.368 59.8284 124.291 59.9207 124.291 60.0437C124.291 60.1668 124.215 60.2898 124.107 60.3205C123.969 60.3667 123.999 60.5358 124.184 60.9511C124.522 61.6431 124.691 61.7507 124.907 61.4124C125.045 61.1817 125.06 61.2433 124.983 61.6738C124.799 62.858 124.814 63.673 125.014 63.673C125.122 63.673 125.214 63.7807 125.214 63.9037C125.214 64.2113 124.953 64.1959 124.784 63.8883C124.614 63.5808 123.984 63.7346 123.984 64.0729C123.984 64.1959 123.815 64.2882 123.569 64.3036C123.169 64.3036 123.153 64.3189 123.476 64.442C123.753 64.5496 123.799 64.688 123.769 65.2416C123.738 65.7953 123.676 65.9183 123.4 65.949C123.03 66.0106 122.923 66.2874 123.261 66.2874C123.384 66.2874 123.63 66.4258 123.83 66.5949C124.03 66.7641 124.245 66.9025 124.322 66.9025C124.384 66.9025 124.445 67.0102 124.445 67.1332C124.445 67.2562 124.507 67.3639 124.584 67.3639C124.676 67.3639 124.753 67.656 124.784 68.0097C124.845 68.7787 125.122 68.8863 125.183 68.1789C125.214 67.8252 125.122 67.5176 124.845 67.1639C124.63 66.8717 124.368 66.4258 124.276 66.149C124.122 65.7337 124.153 65.5953 124.461 65.1494C124.645 64.8726 124.999 64.5035 125.245 64.3497C125.691 64.0421 125.799 63.7653 125.522 63.5961C125.137 63.3655 125.445 63.2117 126.26 63.2117C127.429 63.2117 127.752 63.5193 127.629 64.4727C127.582 64.8418 127.598 65.2724 127.675 65.4416C127.767 65.7184 127.798 65.6876 127.875 65.2878C128.075 64.242 127.998 63.4731 127.644 63.104C127.459 62.9041 127.198 62.7503 127.044 62.7503C126.89 62.7503 126.675 62.6427 126.552 62.5197C126.352 62.3197 126.306 62.3197 126.229 62.5197C126.137 62.7811 125.368 62.8426 125.368 62.5812C125.368 62.4889 125.522 62.289 125.706 62.1352C126.045 61.8584 126.045 61.8584 125.752 61.3201C125.491 60.828 125.491 60.7358 125.691 60.1821C125.906 59.6439 125.968 59.5978 126.583 59.5516C126.952 59.5209 127.336 59.5824 127.413 59.6593C127.629 59.8746 128.336 59.8746 128.213 59.6747C128.167 59.5824 127.982 59.5209 127.813 59.5209C127.644 59.5209 127.398 59.4132 127.275 59.2902C126.983 59.0134 126.229 58.9826 125.952 59.2594Z" fill="#00BCD4"/>
<path d="M116.218 60.5974C116.172 60.6742 116.172 60.8434 116.249 60.9357C116.31 61.0433 116.479 61.4432 116.602 61.8122C116.879 62.5965 117.14 62.7657 117.294 62.2736C117.371 62.0429 117.325 61.8891 117.171 61.7969C117.033 61.7354 116.894 61.4739 116.833 61.2279C116.725 60.705 116.372 60.3359 116.218 60.5974Z" fill="#00BCD4"/>
<path d="M122.754 62.4889C122.754 62.6119 122.8 62.7503 122.877 62.8119C122.938 62.8734 122.984 63.0579 122.984 63.2271C122.984 63.3809 123.061 63.5193 123.138 63.5193C123.23 63.5193 123.292 63.4424 123.277 63.3655C123.261 63.2732 123.246 62.9964 123.246 62.7503C123.215 62.289 122.754 62.0583 122.754 62.4889Z" fill="#00BCD4"/>
<path d="M117.894 63.3193C117.648 63.6269 117.31 64.0114 117.156 64.1651C116.987 64.3189 116.91 64.4881 116.971 64.5496C117.033 64.6265 117.171 64.565 117.279 64.442C117.617 63.996 118.125 63.8114 118.448 63.9806C118.617 64.0729 118.755 64.2267 118.755 64.3189C118.755 64.565 118.14 65.5184 117.971 65.5184C117.894 65.5184 117.832 65.6876 117.832 65.9029C117.832 66.1336 117.663 66.4565 117.448 66.6564C117.017 67.0563 116.956 67.3639 117.294 67.3639C117.586 67.3639 118.294 66.3027 118.294 65.8721C118.294 65.6722 118.386 65.5184 118.509 65.5184C118.817 65.5184 118.894 67.087 118.647 68.1328C118.524 68.5941 118.263 69.2246 118.048 69.5168C117.74 69.9628 117.709 70.0705 117.909 70.1012C118.232 70.1781 118.74 69.5322 118.755 69.0401C118.755 68.8094 118.863 68.548 118.986 68.4403C119.186 68.2866 119.216 67.8713 119.186 66.272C119.17 64.8418 119.216 64.242 119.355 64.0729C119.539 63.8576 119.493 63.8268 118.924 63.8268C118.401 63.8268 118.294 63.7807 118.294 63.5346C118.294 63.3655 118.432 63.1809 118.601 63.1348C118.986 63.0118 119.001 62.7503 118.632 62.7503C118.478 62.7503 118.14 63.0118 117.894 63.3193Z" fill="#00BCD4"/>
<path d="M122.554 63.7653C122.431 63.8883 122.569 64.1344 122.769 64.1344C122.846 64.1344 122.907 64.0268 122.907 63.9037C122.907 63.673 122.723 63.5962 122.554 63.7653Z" fill="#00BCD4"/>
<path d="M116.064 64.3343C115.925 64.688 116.079 65.0571 116.356 65.0571C116.725 65.0571 116.756 64.8418 116.448 64.442C116.187 64.1036 116.156 64.0883 116.064 64.3343Z" fill="#00BCD4"/>
<path d="M124.814 65.7337C124.722 65.9952 124.845 66.2874 125.076 66.2874C125.26 66.2874 125.26 65.7184 125.06 65.5953C124.968 65.5492 124.86 65.6107 124.814 65.7337Z" fill="#00BCD4"/>
<path d="M114.341 66.2412C114.48 66.272 114.726 66.272 114.88 66.2412C115.018 66.1951 114.895 66.1643 114.603 66.1643C114.311 66.1643 114.188 66.1951 114.341 66.2412Z" fill="#00BCD4"/>
<path d="M120.016 69.1323C119.909 69.3476 119.832 69.7475 119.832 70.0243C119.832 70.3011 119.693 70.7778 119.524 71.1008C119.032 72.0081 119.155 72.6848 119.724 72.1773C120.109 71.8236 121.692 71.8389 122.661 72.208C123.461 72.5156 124.707 72.4541 125.46 72.0542C125.998 71.7774 126.475 71.7621 126.721 72.0081C126.844 72.1311 126.952 72.1311 127.09 72.0235C127.198 71.9312 127.629 71.8082 128.044 71.7467C129.366 71.5621 129.628 71.2853 128.644 71.1162C128.321 71.07 127.721 70.9316 127.306 70.8086C126.89 70.6856 126.291 70.5933 125.998 70.5933C125.445 70.5933 125.091 70.3626 124.537 69.7167C124.307 69.4245 124.291 69.3323 124.445 69.1323C124.553 69.0093 124.568 68.9017 124.491 68.9017C124.276 68.9017 123.892 69.3784 123.769 69.7629C123.615 70.255 122.692 70.3626 121.939 69.9782C121.616 69.809 121.262 69.6706 121.139 69.6706C121.016 69.6706 120.801 69.4553 120.647 69.2092C120.324 68.6402 120.232 68.6402 120.016 69.1323Z" fill="#00BCD4"/>
<path d="M116.848 69.809C116.802 69.8859 116.863 69.9782 116.986 70.0397C117.217 70.1319 117.432 69.932 117.263 69.7629C117.125 69.6245 116.94 69.6398 116.848 69.809Z" fill="#00BCD4"/>
<path d="M107.821 78.8976C107.482 79.236 107.037 79.6204 106.837 79.7588C106.637 79.8972 106.421 80.1279 106.375 80.2817C106.329 80.4355 106.022 80.743 105.683 80.9737L105.083 81.3889L103.945 80.9891C102.285 80.4047 101.685 80.4662 100.977 81.3428L100.639 81.7426L99.6703 81.2505C99.132 80.9891 98.5015 80.7277 98.2862 80.6662C97.9633 80.5893 97.8249 80.4201 97.6711 79.8665C97.4404 79.0207 96.7945 78.5286 96.0717 78.667C95.5796 78.7592 94.6108 79.605 94.6108 79.9434C94.6108 80.0664 94.5185 80.3432 94.3955 80.5585C93.9956 81.312 93.0729 84.0955 93.0729 84.5415C93.0729 84.6953 92.9807 84.926 92.8884 85.0182C92.7654 85.1413 92.6885 85.6795 92.6885 86.4023C92.6885 87.6787 92.8269 87.9401 93.7188 88.4169C94.1956 88.6629 95.5027 88.5245 95.6258 88.2016C95.6719 88.0939 96.0256 87.894 96.4254 87.7402C96.8253 87.6018 97.3635 87.3865 97.6096 87.2789C97.871 87.1558 98.317 87.0174 98.6245 86.9713C98.9475 86.9252 99.4396 86.7252 99.7472 86.5099C100.27 86.1562 100.332 86.1409 100.931 86.3562C101.885 86.6945 102.546 86.6484 103.146 86.2024C103.592 85.8487 103.715 85.8179 104.299 85.9563C104.653 86.0332 105.053 86.2024 105.191 86.3254C105.33 86.4484 105.991 86.8329 106.637 87.1866C107.867 87.8325 108.636 87.9709 109.436 87.6633C109.958 87.4788 111.066 86.0332 111.066 85.5719C111.066 85.3566 111.173 84.9721 111.312 84.7261C111.435 84.4646 111.512 84.2186 111.466 84.1724C111.342 84.034 110.604 84.7876 110.604 85.049C110.604 85.3873 109.528 86.8944 109.282 86.8944C109.159 86.8944 109.066 86.9559 109.066 87.0482C109.066 87.3096 108.298 87.2174 108.005 86.9252C107.729 86.6484 107.313 85.9409 107.16 85.4642C107.052 85.1105 106.821 85.1259 106.714 85.5103C106.606 85.9102 105.822 85.9256 105.499 85.5411C104.96 84.9413 104.914 84.6492 105.176 83.8802C105.314 83.465 105.56 82.9268 105.729 82.6807C106.098 82.1579 106.898 81.7734 107.175 82.0041C107.467 82.2347 107.682 82.0041 107.682 81.4351C107.682 80.8815 108.251 79.6666 108.79 79.0976C109.19 78.6823 110.143 78.5901 110.143 78.9745C110.143 79.1129 110.251 79.2513 110.374 79.2975C110.497 79.359 110.604 79.5128 110.604 79.6666C110.604 79.8203 110.497 80.0203 110.374 80.1279C110.251 80.2356 110.143 80.4509 110.143 80.6046C110.143 80.743 110.035 80.9737 109.912 81.1121C109.789 81.2352 109.682 81.4043 109.682 81.4966C109.682 81.5889 109.559 81.7888 109.405 81.9426C108.728 82.6192 108.605 82.9422 108.605 84.0955C108.605 85.3104 108.774 85.8179 109.19 85.8179C109.466 85.8179 109.835 85.1874 109.835 84.7261C109.835 84.5876 109.943 84.3877 110.066 84.2801C110.189 84.1724 110.297 83.9571 110.297 83.8187C110.297 83.6649 110.481 83.3266 110.697 83.0652L111.096 82.5885H110.697C110.22 82.5885 110.22 82.5731 110.62 81.5273C111.096 80.2663 111.066 79.6358 110.512 78.9438C110.081 78.4209 109.943 78.3594 109.236 78.3133C108.482 78.2671 108.405 78.2979 107.821 78.8976ZM96.9483 79.605C97.0867 79.9126 97.0867 80.0664 96.9483 80.2971C96.8406 80.4662 96.7176 80.9276 96.6561 81.3274C96.61 81.7273 96.5177 82.1117 96.4562 82.204C96.3793 82.2809 96.287 82.6346 96.2255 82.9729C96.1794 83.3112 96.0256 83.9571 95.8718 84.3877C95.5489 85.4181 95.6873 85.5719 96.7022 85.4027C97.4404 85.2797 97.4558 85.2643 97.5019 84.6799C97.5327 84.357 97.6557 83.9264 97.7787 83.7572C97.9325 83.5112 97.9479 83.2805 97.8402 82.9114C97.5788 82.0041 98.2093 81.2352 99.0244 81.4505C99.4857 81.5735 99.9932 82.4654 99.9932 83.1575C99.9932 83.7418 100.024 83.788 100.485 83.8802C101.147 84.0033 101.347 83.7726 101.562 82.6192C101.654 82.0963 101.869 81.5273 102.039 81.3428L102.331 81.0352L102.684 81.3582C102.884 81.5427 103.084 81.9272 103.13 82.2194C103.238 82.773 103.53 82.9422 103.53 82.4347C103.53 82.2809 103.684 82.0656 103.853 81.9579C104.315 81.7119 104.561 82.0195 104.637 83.0037C104.699 83.6342 104.668 83.8187 104.468 83.8956C104.222 83.9879 103.838 83.6034 103.838 83.2497C103.838 82.8806 103.561 83.0344 103.453 83.465L103.346 83.8956L103.054 83.5112C102.777 83.1267 102.761 83.1267 102.761 83.465C102.761 83.6496 102.838 83.8495 102.915 83.8956C103.115 84.0186 103.115 84.6953 102.93 84.8183C102.854 84.8645 102.746 85.1105 102.684 85.3566C102.546 86.0025 101.9 86.1562 101.516 85.6488C101.362 85.4488 101.223 85.0798 101.223 84.8491C101.223 84.4339 101.193 84.4185 100.578 84.4646C99.9932 84.5108 99.9009 84.5723 99.6241 85.1413C99.2397 85.9563 98.4861 86.4023 98.0094 86.0947C97.748 85.9409 97.6249 85.9409 97.3789 86.0947C97.2097 86.187 96.9791 86.2793 96.8406 86.2793C96.4869 86.2793 95.3489 86.9252 94.8722 87.3865C94.6262 87.6172 94.3032 87.8171 94.1494 87.8171C93.2882 87.8171 93.1652 87.325 93.7496 86.2639C93.9495 85.8948 94.1648 85.3412 94.2109 85.049C94.3186 84.4954 94.6262 83.342 95.0106 82.1271C95.1336 81.7426 95.2259 81.2505 95.2259 81.0199C95.2259 80.7892 95.3028 80.5585 95.3797 80.5124C95.472 80.4662 95.5335 80.3124 95.5335 80.174C95.5335 79.8511 96.164 79.2052 96.5023 79.2052C96.6407 79.2052 96.856 79.3897 96.9483 79.605Z" fill="#00BCD4"/>
<path d="M98.5479 82.4039C98.4249 82.7576 98.6402 83.3728 98.9785 83.6496C99.1784 83.8187 99.2246 83.788 99.3015 83.465C99.486 82.7576 98.7478 81.7427 98.5479 82.4039Z" fill="#00BCD4"/>
<path d="M98.6402 84.7722C98.3941 85.0182 98.4095 85.2028 98.6709 85.2028C98.7786 85.2028 98.917 85.0644 98.9631 84.8952C99.0554 84.5415 98.917 84.4954 98.6402 84.7722Z" fill="#00BCD4"/>
<path d="M52.2743 78.7746C52.1666 78.8361 51.9359 78.8515 51.7668 78.8054C51.5822 78.7593 51.2747 78.8054 51.0901 78.8977C50.9056 78.9899 50.3827 79.1745 49.9214 79.2975C48.9064 79.5589 48.1221 80.1126 47.8607 80.7584C47.6915 81.1583 47.7069 81.3121 47.9068 81.758C48.3066 82.5731 48.2605 83.2036 47.6607 85.2489C47.3993 86.1563 47.7223 87.7249 48.2759 88.3092C48.891 88.9551 49.2755 88.9859 50.2443 88.5245L51.0748 88.1093L51.5515 88.4476C52.1974 88.9398 52.9048 88.909 53.6122 88.3554C54.0889 88.0017 54.3811 87.894 55.0731 87.8786C58.5794 87.7402 59.6867 87.648 60.1941 87.4327C60.5171 87.3096 60.9323 87.202 61.1322 87.202C61.3629 87.202 61.5628 87.079 61.6705 86.8483C61.8089 86.5561 61.8243 86.5869 61.8089 87.1559C61.7935 87.6018 61.8858 87.9555 62.1011 88.2323C62.5163 88.786 63.8542 89.2473 64.7 89.1243C65.0383 89.0782 65.5304 89.032 65.7919 89.0474C66.0841 89.0474 67.0529 88.6322 68.2524 88.0324C70.4823 86.879 71.3896 86.6945 72.2354 87.1866C72.6199 87.4173 73.0197 87.4634 74.4807 87.448C76.08 87.4327 76.2799 87.3865 76.6183 87.079C77.4948 86.2639 77.8178 86.8329 77.541 88.6476C77.3411 89.9393 77.4179 90.17 78.1715 90.8005C78.5098 91.0927 78.8174 91.2004 79.248 91.2004C80.0015 91.2004 81.1703 90.5545 81.3241 90.0778C81.3856 89.8932 81.524 89.6779 81.6316 89.5856C81.7393 89.5088 81.9238 89.1243 82.0468 88.7398C82.1853 88.3554 82.3852 87.8018 82.5236 87.4942L82.7543 86.9406L84.7996 86.8637C85.9222 86.8175 86.9064 86.8329 86.9833 86.9098C87.1986 87.0943 88.1059 87.079 88.5058 86.879C88.6903 86.7868 89.0902 86.4331 89.3977 86.0794C89.8898 85.5257 89.9975 85.4642 90.2128 85.6488C90.4281 85.8333 90.4588 85.8179 90.4588 85.5873C90.4588 85.4335 90.7049 85.0183 90.9971 84.6492C91.5199 84.0033 91.6583 83.4497 91.4123 82.8807C91.1509 82.2963 90.3204 81.4966 89.936 81.4505C89.7053 81.4351 89.4439 81.3274 89.3516 81.2352C89.044 80.9276 87.66 81.0199 87.2294 81.3582C86.8141 81.6811 86.3067 81.758 86.0606 81.512C85.9683 81.4197 85.5377 81.3121 85.1071 81.2506C84.4766 81.189 84.2306 81.2198 83.8923 81.4505C83.1233 81.958 82.5236 82.1117 82.1237 81.8811C80.8935 81.189 80.2014 81.1121 79.4633 81.6196C78.9712 81.9426 78.1254 81.8811 76.7721 81.389C76.1108 81.1429 75.5264 81.2659 74.9728 81.7427C74.6498 82.0195 74.1423 82.2809 73.8502 82.3424C73.3734 82.4193 73.235 82.3732 72.7275 81.8964C72.42 81.6043 72.097 81.3582 72.0048 81.3582C71.9279 81.3582 71.4204 80.9584 70.8975 80.4509C70.0825 79.6973 69.8056 79.5282 69.1597 79.4359C67.6527 79.1898 66.8991 79.2514 66.0533 79.7127C64.8538 80.3586 64.4693 80.8969 64.4693 81.8964C64.4693 82.3578 64.4078 82.773 64.3156 82.8192C64.2387 82.8653 64.1618 83.1113 64.1618 83.342C64.1618 83.6342 63.8696 84.0956 63.2083 84.8952L62.2395 86.0332L62.1626 85.5257C62.0703 84.9721 61.8089 84.8183 61.732 85.2797C61.7012 85.4489 61.3014 85.8948 60.84 86.2639C60.025 86.9252 59.9942 86.9252 59.01 86.8637C58.1949 86.8175 57.9643 86.7406 57.7644 86.4638C57.4414 86.0025 57.303 86.0332 56.5956 86.7406C55.8728 87.4634 55.3653 87.5403 54.9962 86.9713C54.7194 86.5407 54.7656 86.1563 55.2577 85.0798C55.4268 84.7107 55.5191 84.2955 55.473 84.1571C55.3961 83.9418 55.2577 84.034 54.7502 84.5877C53.8429 85.618 53.4276 86.3254 53.2431 87.1559C53.0432 87.9863 52.8586 88.2785 52.4742 88.2785C51.859 88.2785 51.6591 86.5715 52.1051 85.1413C52.2435 84.7107 52.4588 84.0033 52.5818 83.5881C52.8586 82.6654 53.3661 81.5427 53.5661 81.4197C53.7352 81.3274 53.7506 80.6969 53.5968 80.7738C53.3046 80.9122 52.5203 81.2506 52.2435 81.3582C52.059 81.4197 51.8129 81.8196 51.5976 82.3732C51.4131 82.8807 51.0901 83.7572 50.8748 84.3416C50.6595 84.926 50.475 85.5719 50.475 85.8026C50.475 86.3408 50.029 87.5096 49.6599 87.9248C49.2755 88.3554 48.6911 88.3861 48.5835 87.9863C48.3682 87.1097 48.9987 84.4185 49.8137 82.8192C50.1982 82.0656 50.0444 81.758 49.2755 81.6965C48.7526 81.6504 48.5835 81.5735 48.445 81.2659C48.3528 81.066 48.322 80.8507 48.3682 80.8046C48.4758 80.6969 49.3677 80.4816 50.5826 80.2817C51.0286 80.2202 51.613 80.0818 51.8898 79.9895C52.5511 79.7896 53.4276 79.7281 53.6737 79.8819C53.766 79.9434 53.8582 80.1279 53.8582 80.2971C53.8582 80.5739 53.9044 80.5431 54.2581 80.1433C54.7656 79.5436 55.1039 79.5436 55.6883 80.1587C56.3034 80.82 56.3034 81.2659 55.7036 81.512C54.9194 81.8349 53.2123 84.8952 53.8275 84.8952C53.889 84.8952 54.1351 84.6492 54.3657 84.357C54.9501 83.6342 55.4576 83.3113 55.8574 83.4343C56.1189 83.5112 56.165 83.665 56.165 84.3262C56.165 84.7722 56.0574 85.3258 55.9343 85.5719C55.473 86.4638 55.7498 86.51 56.7186 85.7257C57.2876 85.2489 57.3953 85.0798 57.3953 84.6184C57.3953 84.034 58.1796 82.8192 58.6563 82.6654C59.133 82.4962 60.3172 83.3728 60.3172 83.8803C60.3172 84.2186 59.6251 85.3566 59.4252 85.3566C59.3637 85.3566 59.1484 85.2489 58.9639 85.1105C58.3487 84.6799 58.1027 85.1567 58.6102 85.7718C59.0408 86.2947 59.6713 86.2332 60.3633 85.5873C60.6709 85.3105 60.9323 85.0183 60.9323 84.9567C60.9323 84.8952 61.0861 84.6799 61.2706 84.4646C61.5936 84.1263 61.609 84.0956 61.3475 83.9572C61.2091 83.8649 61.0861 83.6803 61.0861 83.5266C61.0861 83.3728 60.8247 83.0498 60.5171 82.8038C60.1941 82.5731 59.8404 82.2501 59.7328 82.0964C59.4714 81.7427 58.3026 81.7273 57.7797 82.0656C57.4414 82.2809 57.4107 82.2809 57.2569 81.9887C57.1646 81.8196 57.0877 81.4505 57.0877 81.1583C57.0877 80.497 56.5802 79.7281 55.7805 79.1745C55.2423 78.8208 54.9962 78.7593 53.8121 78.7131C53.0586 78.6824 52.3665 78.7131 52.2743 78.7746ZM69.9287 80.62C70.2516 80.7584 70.3131 80.8969 70.3131 81.4043C70.3131 82.0502 69.7134 83.0498 69.3289 83.0498C69.2213 83.0498 68.9752 83.219 68.7907 83.4189L68.437 83.788L68.8983 83.8956C69.2059 83.9572 69.4366 84.1571 69.6365 84.5108C69.8979 85.0029 69.8979 85.049 69.6365 85.618C69.2982 86.3716 68.2524 87.1559 67.422 87.2943C67.0683 87.3558 66.73 87.4634 66.6838 87.5249C66.6377 87.6018 66.2994 87.6633 65.9303 87.6633C65.4997 87.6633 65.1614 87.7556 65.0076 87.9248C64.823 88.1093 64.4386 88.1862 63.685 88.217C62.6239 88.2477 62.2856 88.0939 62.6085 87.771C62.7008 87.6787 62.7777 87.4788 62.7777 87.3404C62.7777 87.1866 62.9469 86.8637 63.1622 86.6022C63.5005 86.2178 63.6389 86.1563 64.0849 86.2332C64.577 86.31 64.6231 86.2793 64.8846 85.7564C65.0999 85.2951 65.1152 85.1259 64.9614 84.8952C64.6693 84.4185 64.7461 84.1263 65.2075 83.9572C65.961 83.6957 66.3147 82.3424 65.6689 82.2501C65.4074 82.2194 65.2998 82.081 65.269 81.7273C65.2075 81.0814 65.6381 80.7431 66.6223 80.6662C67.0683 80.62 67.4681 80.5585 67.5143 80.5124C67.668 80.3586 69.5288 80.4355 69.9287 80.62ZM88.475 81.6658C88.6288 81.758 88.8749 82.0349 88.9979 82.2809C89.1978 82.65 89.1978 82.7884 89.044 83.0498C88.8902 83.2805 88.8902 83.3882 89.044 83.5419C89.2901 83.788 89.2747 84.1571 88.9979 84.6799C88.8749 84.926 88.7672 85.2336 88.7672 85.3566C88.7672 85.4796 88.6134 85.7872 88.4135 86.0332C87.906 86.6484 87.4139 86.4946 87.2909 85.6488L87.1832 85.0336L86.7065 85.495C86.4297 85.7564 86.1375 85.9717 86.0299 85.9717C85.9222 85.9717 85.8453 86.0332 85.8453 86.1101C85.8453 86.187 85.6454 86.2947 85.384 86.3562C84.8611 86.4638 83.923 86.0794 83.6462 85.6334C83.4309 85.3105 83.1387 85.2797 82.9695 85.5719C82.908 85.6795 82.5236 86.0025 82.1391 86.2639C81.1703 86.9098 81.1088 87.0175 80.9857 88.0478C80.8473 89.1397 80.4629 89.8471 79.7862 90.2777C78.5559 91.0312 77.7563 90.2162 78.4175 88.8782C78.5559 88.5861 78.7559 88.2939 78.8789 88.2323C78.9865 88.1708 79.0788 88.0324 79.0788 87.9248C79.0942 87.8171 79.2941 87.5711 79.5402 87.3558C79.8477 87.1097 80.0015 86.8483 80.0015 86.5561C80.0015 86.0794 79.7862 85.9871 79.5555 86.3869C79.4325 86.6022 79.3556 86.6176 79.0173 86.4638C78.679 86.31 78.6175 86.187 78.6175 85.6026C78.6175 85.2336 78.7097 84.7261 78.8328 84.48C79.5248 83.0806 79.7708 82.65 79.9861 82.4654C80.5705 82.0041 80.7243 81.9887 81.3241 82.3117C81.647 82.4808 81.9546 82.65 81.9853 82.6807C82.1391 82.8192 81.6163 83.5112 81.3548 83.5112C81.0011 83.5112 80.6474 83.8649 80.0323 84.8645C79.5709 85.618 79.5094 85.9717 79.8324 85.9717C79.9092 85.9717 80.2783 85.4796 80.6782 84.8952C81.078 84.2955 81.5086 83.8187 81.6316 83.8187C82.0161 83.8187 82.0468 84.2493 81.7085 84.6799C81.3856 85.0952 81.2625 85.9717 81.524 85.9717C81.6778 85.9717 82.2314 85.5104 82.8927 84.8645C83.0772 84.6799 83.231 84.357 83.231 84.1571C83.231 83.7265 83.6923 82.7884 84.1537 82.3117C84.5381 81.8964 84.9534 81.8811 85.5531 82.2348C86.2759 82.6654 86.3374 83.465 85.7223 84.2493C85.4762 84.5723 85.3993 84.5877 85.0303 84.4185C84.4305 84.1417 84.1844 84.4185 84.5381 84.9567C84.9226 85.5411 85.6146 85.495 86.4912 84.8337C87.2447 84.2647 87.3832 84.034 87.3832 83.3882C87.3832 82.773 87.8753 81.512 88.0906 81.512C88.1367 81.512 88.3059 81.5889 88.475 81.6658ZM72.2816 82.5577C72.3123 82.8192 72.1893 83.2959 72.0201 83.6496C71.5588 84.5415 71.5895 84.926 72.1124 84.8645C72.42 84.8337 72.6045 84.6492 72.8813 84.1263C73.4965 82.9576 74.3423 83.0191 73.7886 84.1878C73.6502 84.48 73.4965 84.926 73.4503 85.1874C73.3581 85.5873 73.3888 85.6642 73.6656 85.6642C73.8348 85.6642 74.1731 85.4489 74.4345 85.1874C74.7882 84.8183 74.9574 84.4493 75.1573 83.4189C75.4034 82.2809 75.4803 82.1117 75.8032 82.0349C76.2646 81.9118 76.7105 82.2963 76.8336 82.9114C76.9258 83.4035 77.2334 83.5266 77.2334 83.0652C77.2334 82.6961 77.5871 82.4039 77.9101 82.527C78.1561 82.6192 78.1869 82.6807 78.233 83.3574C78.2484 83.5727 78.3099 83.8956 78.3714 84.0802C78.4483 84.3262 78.4022 84.4339 78.1715 84.5108C77.787 84.6338 77.541 84.4954 77.541 84.1878C77.541 83.9264 77.3564 83.911 77.1104 84.1571C76.972 84.2955 76.9105 84.2647 76.8336 84.0802C76.6952 83.7265 76.4645 83.7572 76.4645 84.1263C76.4645 84.2955 76.5414 84.4339 76.6183 84.4339C76.972 84.4339 76.5568 85.8795 76.0339 86.4638C75.6956 86.8637 75.4495 86.8022 75.1266 86.2793C74.819 85.7564 74.5422 85.6949 74.3269 86.0794C74.25 86.2332 73.8809 86.4485 73.5272 86.5561C72.8813 86.756 72.8506 86.756 72.5122 86.3562C72.3123 86.1409 72.1585 85.8487 72.1585 85.7257C72.1585 85.4796 71.9125 85.4335 71.7741 85.6642C71.6357 85.8795 70.7283 85.8641 70.4977 85.6334C70.1747 85.3105 70.2977 84.5108 70.7899 83.5727C71.6357 81.9887 72.1893 81.6043 72.2816 82.5577ZM90.3358 82.3886C90.4896 82.527 90.6126 82.773 90.6126 82.9422C90.6126 83.1113 90.7203 83.3882 90.874 83.5419C91.074 83.7726 91.0893 83.8956 90.9509 84.2032C90.7049 84.7415 90.4127 84.6799 89.8591 84.0187C89.3362 83.3882 89.2901 83.1113 89.5669 82.5116C89.7668 82.0656 89.9513 82.0349 90.3358 82.3886Z" fill="#00BCD4"/>
<path d="M67.6219 81.9887C67.0837 82.1425 66.6377 82.6807 66.6223 83.1575C66.6223 83.6803 67.0529 83.6034 68.3139 82.8653C68.437 82.8038 68.7292 82.6654 68.9752 82.5731C69.2213 82.4654 69.3904 82.2809 69.3904 82.1117C69.3904 81.8657 69.2828 81.8196 68.7445 81.8349C68.3755 81.8349 67.8833 81.9118 67.6219 81.9887Z" fill="#00BCD4"/>
<path d="M66.4993 84.8952C65.8842 85.0336 65.8842 85.049 65.6996 85.6488C65.5305 86.2793 65.7458 86.3716 66.7454 86.1563C68.8368 85.6949 69.1136 85.5411 68.8368 85.0798C68.6523 84.7876 67.3759 84.6799 66.4993 84.8952Z" fill="#00BCD4"/>
<path d="M85.1687 83.1575C85.0303 83.2959 85.0611 83.6649 85.2148 83.6649C85.3994 83.6649 85.5532 83.2344 85.3994 83.1421C85.3225 83.0959 85.2302 83.0959 85.1687 83.1575Z" fill="#00BCD4"/>
<path d="M79.1404 88.8167C79.0173 89.1243 79.1865 89.5549 79.3864 89.4319C79.5863 89.3088 79.5863 88.586 79.3864 88.586C79.2941 88.586 79.1865 88.6937 79.1404 88.8167Z" fill="#00BCD4"/>
<path d="M109.159 80.2202C109.113 80.3586 109.067 80.62 109.067 80.82C109.067 81.0199 109.005 81.2352 108.913 81.2813C108.836 81.3274 108.759 81.512 108.759 81.6811C108.759 81.8503 108.836 81.9426 108.913 81.8964C109.005 81.8503 109.067 81.6658 109.067 81.4966C109.067 81.3428 109.174 81.2044 109.298 81.2044C109.467 81.2044 109.528 81.0353 109.528 80.5893C109.528 79.9741 109.328 79.7742 109.159 80.2202Z" fill="#00BCD4"/>
<path d="M106.621 83.911C106.252 84.5415 106.252 84.9414 106.621 85.0182C106.898 85.0644 107.221 84.4492 107.221 83.8956C107.221 83.3112 106.975 83.3112 106.621 83.911Z" fill="#00BCD4"/>
<path d="M58.8564 84.1109C58.8103 84.1878 58.841 84.2955 58.9333 84.357C59.1178 84.4646 59.3946 84.3262 59.3946 84.1109C59.3946 83.9264 58.9794 83.9264 58.8564 84.1109Z" fill="#00BCD4"/>
<path d="M83.9999 93.3688C83.7846 93.4303 83.1541 93.4764 82.6005 93.4918C81.8162 93.5072 81.4933 93.584 81.1703 93.8301C80.8474 94.0915 80.6167 94.1377 80.1246 94.0762C79.7709 94.03 79.4479 93.9224 79.3864 93.8301C79.2788 93.6456 77.095 93.6609 76.9874 93.8455C76.9413 93.907 77.0797 93.9685 77.295 93.9685C77.7409 93.9685 77.7871 94.0762 77.9255 95.8139C77.9716 96.4444 78.0793 97.3671 78.1715 97.8592C78.3253 98.5974 78.4022 98.7358 78.6175 98.6589C78.7713 98.6128 79.2019 98.7512 79.5863 98.9665C80.4629 99.4432 80.7551 99.4432 81.2011 98.9665C81.4164 98.7358 81.7701 98.582 82.1238 98.5513C82.8004 98.4898 82.8927 98.2745 82.9081 96.5675C82.9235 95.3526 82.8004 94.4299 82.6313 94.4299C82.5851 94.4299 82.3698 94.8912 82.1699 95.4602C81.9854 96.0446 81.7239 96.7059 81.6163 96.9673C81.5086 97.2134 81.3395 97.7516 81.2164 98.1514C81.0165 98.8588 80.9858 98.8896 80.4322 98.8896C79.9554 98.8896 79.8478 98.8281 79.8478 98.5974C79.8478 98.4282 79.7863 98.2437 79.694 98.1976C79.6171 98.1514 79.5402 97.9976 79.5402 97.8746C79.5402 97.6593 79.3403 97.1518 78.6636 95.6601C78.5252 95.3679 78.3253 95.0296 78.2023 94.9066C78.0793 94.7989 78.0177 94.599 78.0639 94.476C78.11 94.353 78.1561 94.1838 78.1561 94.1069C78.1561 94.0146 78.4483 93.9685 78.802 93.9993C79.4172 94.0454 79.4326 94.0608 79.7094 94.8912C79.8631 95.3526 80.0016 95.8447 80.0016 95.9677C80.0016 96.0907 80.0631 96.2906 80.14 96.4137C80.3706 96.7674 80.7243 96.3675 80.8474 95.6294C80.9089 95.2757 81.0473 94.7836 81.1549 94.5221L81.3702 94.03L83.4463 93.9993L85.5378 93.9685V94.5068C85.5378 95.0296 85.5224 95.045 84.938 95.045C83.8462 95.045 83.7539 95.7524 84.8458 95.8447C85.384 95.8908 85.4609 95.9369 85.507 96.306C85.5532 96.6443 85.4763 96.752 85.1687 96.8289C84.9534 96.875 84.7227 96.8904 84.6612 96.8443C84.4152 96.6905 84.1076 96.9981 84.2152 97.2749C84.2921 97.4902 84.4152 97.5209 84.8458 97.444C85.3225 97.3518 85.3994 97.3825 85.5685 97.7208C85.6762 97.9976 85.6916 98.2283 85.5993 98.4436C85.4609 98.7358 85.3071 98.7819 84.3536 98.7973C83.231 98.8127 82.8466 98.9511 83.231 99.1972C83.5386 99.3971 85.1841 99.2741 85.4609 99.0434C85.6147 98.9204 85.8146 98.9204 86.3067 99.0588C86.7988 99.2125 87.0141 99.2125 87.2448 99.0741C87.3986 98.9665 87.8138 98.8896 88.1521 98.8896C88.7672 98.8896 88.9518 98.7051 88.5673 98.4744C88.4597 98.4129 88.2136 98.0899 88.0137 97.767C87.5677 97.0442 87.3217 97.0288 87.4293 97.7208C87.5677 98.5666 87.4139 98.8896 86.9065 98.8896C86.3375 98.8896 86.1068 98.3821 86.2298 97.3671C86.2759 96.9827 86.2606 96.1369 86.1837 95.5063C86.1068 94.8758 86.076 94.2607 86.1222 94.153C86.1683 94.03 86.5681 93.9685 87.3832 93.9685C88.5366 93.9685 88.5981 93.9839 88.9825 94.4452C89.5362 95.0911 89.5054 95.7216 88.921 96.2753L88.4443 96.7212L89.1363 97.2287C89.5208 97.5055 89.8745 97.8592 89.936 98.0284C89.9975 98.2283 90.0744 98.2591 90.1974 98.1361C90.3205 98.013 90.505 98.0745 90.8587 98.3514C91.4431 98.7973 92.212 98.9972 92.3658 98.7512C92.4427 98.6435 92.3197 98.582 92.0275 98.582C91.3969 98.582 91.2124 98.2898 91.2432 97.321C91.2739 96.5982 91.074 95.8908 90.7818 95.6601C90.5204 95.4448 89.7207 94.3068 89.6284 94.0146C89.5515 93.7686 89.3516 93.6456 88.9518 93.5687C88.6442 93.5072 88.2905 93.3995 88.1982 93.3226C87.9676 93.1381 86.1991 93.3226 86.0606 93.5225C85.9684 93.6763 85.0457 93.5687 84.6151 93.3534C84.492 93.2919 84.2152 93.2919 83.9999 93.3688Z" fill="#00BCD4"/>
<path d="M92.6581 93.3687C92.5504 93.4764 92.1198 93.5225 91.5508 93.4764C90.6589 93.4148 90.3359 93.5225 90.8434 93.707C90.9665 93.7685 91.1971 94.0761 91.3817 94.4298C91.5508 94.7681 91.7661 95.045 91.8584 95.045C91.9353 95.045 92.1506 94.722 92.3044 94.3375C92.4889 93.9223 92.735 93.5994 92.9195 93.5532C93.0887 93.5071 93.2271 93.4148 93.2271 93.3379C93.2271 93.138 92.858 93.1688 92.6581 93.3687Z" fill="#00BCD4"/>
<path d="M70.2363 93.9839C69.5288 94.2299 69.2059 94.2607 68.8522 94.153C68.0525 93.8916 66.9914 93.7993 66.5762 93.9531C65.8534 94.2299 66.1148 94.4298 67.176 94.4298C68.0371 94.4298 68.2678 94.4914 68.7292 94.8451C69.8826 95.737 70.0363 97.4594 69.0521 98.459C68.4831 99.028 67.745 99.3509 67.0068 99.3509C66.3148 99.3509 66.0841 99.5355 66.5608 99.72C67.0068 99.8892 67.8065 99.8123 68.6984 99.5047C69.1905 99.3356 69.7595 99.1972 69.9594 99.1972H70.3131L70.267 96.8135L70.2209 94.4298L71.1128 94.3991C73.0044 94.3376 72.8506 94.2914 72.8506 94.8912C72.8506 95.4294 72.8506 95.4294 72.1124 95.4756C71.4511 95.5217 71.3743 95.5525 71.4204 95.86C71.4665 96.1522 71.5434 96.1984 72.0355 96.1522C72.4815 96.1215 72.6353 96.183 72.7737 96.429C73.0197 96.875 72.7429 97.1672 72.0355 97.2287C71.6357 97.2595 71.4511 97.3517 71.4204 97.5363C71.3743 97.767 71.4819 97.8131 72.1278 97.8131C72.9121 97.8131 73.0813 97.9515 73.0813 98.582C73.0813 98.9972 72.6353 99.1972 71.8971 99.0895C71.2512 99.0126 70.5438 99.2587 70.6976 99.5201C70.836 99.72 72.8813 99.7046 73.0197 99.4893C73.0813 99.3971 73.3119 99.3663 73.6041 99.4124C74.6345 99.6277 75.1881 99.6124 75.834 99.3817C76.3415 99.1972 76.5568 99.1818 76.7721 99.3202C76.9874 99.4432 77.1873 99.4432 77.5256 99.3356C78.1869 99.1049 78.1254 98.8896 77.418 98.8896H76.8182L76.7259 97.3825C76.6644 96.5674 76.6183 95.5217 76.6183 95.0757C76.6183 94.2453 76.4953 94.1069 76.1416 94.5221C76.0185 94.6759 75.8032 94.7374 75.5264 94.6759C74.9882 94.5683 74.9267 94.7528 74.819 96.3829L74.7267 97.6439L75.4803 97.6901C76.2338 97.7362 76.2338 97.7362 76.28 98.3052L76.3261 98.8896H75.0189C74.2962 98.8896 73.681 98.8281 73.6349 98.7666C73.6041 98.705 73.5426 97.5824 73.5119 96.306C73.4811 94.1684 73.4503 93.9531 73.2043 94.0146C73.0659 94.0608 72.6814 93.9993 72.3585 93.8762C71.5896 93.6148 71.3281 93.6148 70.2363 93.9839Z" fill="#00BCD4"/>
<path d="M65.6227 94.7374C65.4842 94.9681 65.4535 98.3052 65.5919 98.6897C65.8841 99.5047 66.0071 98.9357 66.0071 96.8135C66.0071 94.7836 65.9148 94.2761 65.6227 94.7374Z" fill="#00BCD4"/>
<path d="M93.227 95.3525C93.0117 95.6909 92.7964 95.9677 92.7349 95.9677C92.5657 95.9677 92.5964 97.8438 92.7656 98.1207C92.8886 98.3206 92.904 98.3206 92.9809 98.1207C93.0117 97.9976 93.2423 97.3671 93.4576 96.7366C93.6883 96.1061 93.919 95.3987 93.9497 95.1526C94.0728 94.5221 93.6729 94.6298 93.227 95.3525Z" fill="#00BCD4"/>
<path d="M87.2909 95.2757C87.1679 95.5986 87.3216 95.9677 87.5831 95.9677C87.8906 95.9677 88.1982 95.5525 88.0906 95.2757C87.9829 94.9835 87.3985 94.9681 87.2909 95.2757Z" fill="#00BCD4"/>
<path d="M67.3298 96.6905C67.4374 97.8285 67.6066 98.0592 68.0833 97.7516C68.5293 97.4594 68.5908 96.3368 68.1756 95.9523C68.0064 95.7832 67.7142 95.6601 67.5451 95.6601C67.2221 95.6601 67.2221 95.7063 67.3298 96.6905Z" fill="#00BCD4"/>
<path d="M41.5402 98.5974C40.8789 98.6589 40.0946 98.8281 39.7871 98.9511C39.4641 99.0895 39.1104 99.1972 39.0028 99.1972C38.5722 99.1972 36.7268 100.612 34.42 102.703C33.728 103.334 32.8668 104.057 32.4823 104.318C32.0979 104.58 31.6519 104.933 31.4674 105.102C31.2982 105.287 30.9906 105.564 30.7753 105.733C30.5754 105.902 29.991 106.379 29.4835 106.809C28.9761 107.24 28.4071 107.701 28.2225 107.824C27.8073 108.117 26.3925 109.378 25.2083 110.546C24.3318 111.392 23.4091 112.576 23.4091 112.838C23.4091 112.899 23.3014 113.161 23.1784 113.407C22.917 113.899 22.7632 115.529 22.7478 117.667C22.7478 119.066 23.0707 120.066 23.7013 120.635C23.8704 120.788 24.0857 121.111 24.178 121.357C24.2856 121.603 24.4394 121.803 24.5163 121.803C24.6086 121.803 24.9777 122.08 25.3621 122.419C26.3002 123.234 27.0691 123.587 28.7915 123.926C29.8219 124.141 30.4831 124.187 31.0214 124.11C32.6669 123.879 34.4354 123.434 35.0351 123.126C36.8806 122.172 37.4957 121.803 37.6802 121.511C37.7879 121.327 37.9417 121.188 38.0339 121.188C38.1877 121.188 39.1566 120.389 40.5714 119.112C40.7559 118.943 41.002 118.728 41.125 118.62C41.2326 118.512 41.4018 118.343 41.4941 118.236C41.5863 118.128 41.9862 117.759 42.4014 117.421C42.8012 117.082 43.3395 116.575 43.6009 116.313C43.847 116.037 44.1853 115.775 44.3545 115.714C44.5236 115.667 44.6928 115.498 44.7543 115.344C44.8466 115.098 47.0457 113.145 48.4759 112.038C48.8142 111.777 49.0756 111.5 49.091 111.392C49.091 111.3 49.2448 111.023 49.4447 110.777C49.6292 110.546 49.8753 110.177 49.9983 109.977C50.3059 109.424 50.352 107.886 50.0906 107.24C49.9676 106.932 49.8599 106.517 49.8599 106.287C49.8599 106.071 49.5524 105.287 49.1679 104.549C48.7834 103.811 48.4759 103.073 48.4759 102.903C48.4759 102.75 48.3682 102.534 48.2452 102.427C48.1222 102.334 47.9838 102.088 47.9222 101.919C47.6147 100.92 46.0768 99.6278 44.4621 98.9972C43.1549 98.4744 42.9243 98.4436 41.5402 98.5974ZM43.4317 99.9968C45.3079 100.412 47.2456 102.396 47.2456 103.903C47.2456 104.241 47.4609 104.687 47.9376 105.333C48.3221 105.856 48.6296 106.363 48.6296 106.471C48.6296 106.579 48.7373 106.825 48.8757 107.025C49.2602 107.548 49.2448 109.147 48.8603 109.731C48.6912 109.977 48.4297 110.285 48.2913 110.393C48.1375 110.5 47.4763 111.054 46.815 111.623C46.1691 112.192 45.4309 112.822 45.1849 113.038C44.9388 113.253 44.662 113.499 44.5544 113.607C44.4621 113.699 43.9239 114.145 43.3856 114.591C42.8474 115.022 42.3399 115.468 42.2476 115.575C42.1707 115.667 41.6017 116.16 40.9866 116.667C40.3868 117.175 39.5564 117.959 39.1566 118.405C38.7567 118.851 38.0801 119.435 37.6495 119.727C37.2189 120.004 36.4961 120.589 36.0347 121.019C35.5734 121.45 35.112 121.803 35.0198 121.803C34.9121 121.803 34.743 121.911 34.6353 122.034C34.5277 122.157 34.3585 122.265 34.2355 122.265C34.1278 122.265 33.851 122.342 33.605 122.449C32.1594 123.064 29.6219 123.264 28.3302 122.88C27.9457 122.772 27.2691 122.434 26.8385 122.142C26.1311 121.696 26.0234 121.557 26.0234 121.111C26.0234 120.696 25.9465 120.573 25.562 120.419C24.8854 120.143 24.2241 119.389 23.9627 118.62C23.7474 118.005 23.7474 117.882 23.9473 117.482C24.1011 117.205 24.178 116.59 24.178 115.683C24.178 113.284 24.5625 112.761 28.9453 109.162C29.4989 108.716 30.1141 108.194 30.3294 108.009C30.5447 107.84 31.1905 107.286 31.7903 106.779C32.3747 106.287 32.9437 105.81 33.036 105.733C33.1282 105.641 33.5434 105.302 33.9433 104.964C35.4196 103.749 37.0343 102.35 37.9109 101.55C38.9413 100.612 39.5718 100.289 40.8636 100.043C42.1246 99.7969 42.4783 99.7815 43.4317 99.9968Z" fill="#00BCD4"/>
<path d="M40.1716 103.103C40.1716 103.242 40.9406 103.288 41.1251 103.18C41.2481 103.088 41.1097 103.042 40.756 103.042C40.4331 103.042 40.1716 103.072 40.1716 103.103Z" fill="#00BCD4"/>
<path d="M41.8938 103.488C41.74 103.58 41.7708 103.641 42.0322 103.703C42.432 103.811 42.6781 103.703 42.5551 103.488C42.432 103.319 42.1552 103.319 41.8938 103.488Z" fill="#00BCD4"/>
<path d="M43.5241 104.149C43.8778 104.334 44.0778 104.81 43.9855 105.287C43.9547 105.456 43.6318 105.687 43.1243 105.887C41.9248 106.348 42.1708 106.671 43.4011 106.225C44.2162 105.933 44.7852 105.502 44.7852 105.179C44.7852 104.749 43.9701 103.964 43.5395 103.98H43.1704L43.5241 104.149Z" fill="#00BCD4"/>
<path d="M37.3265 104.287C37.2189 104.441 37.4803 104.718 37.7571 104.733C37.9417 104.733 37.8802 104.472 37.6495 104.287C37.4803 104.149 37.4034 104.149 37.3265 104.287Z" fill="#00BCD4"/>
<path d="M39.6793 105.533C39.9408 105.656 40.0792 105.656 40.2022 105.533C40.3406 105.395 40.2637 105.349 39.8639 105.364C39.3564 105.364 39.341 105.379 39.6793 105.533Z" fill="#00BCD4"/>
<path d="M41.0174 105.964C41.448 106.148 41.7094 106.148 41.7094 105.964C41.7094 105.871 41.4788 105.81 41.2173 105.825C40.7867 105.825 40.756 105.856 41.0174 105.964Z" fill="#00BCD4"/>
<path d="M46.7688 107.363C46.5689 107.532 46.169 107.855 45.8922 108.086C45.6154 108.317 45.1387 108.732 44.8157 109.024C44.5082 109.301 43.9084 109.793 43.4778 110.116C43.0626 110.439 42.4936 110.931 42.2168 111.208C41.9554 111.5 41.4017 112.007 41.0019 112.346C40.6021 112.684 40.0177 113.191 39.7255 113.468C39.4179 113.745 38.772 114.253 38.2953 114.591C37.3111 115.268 37.1419 115.452 37.3726 115.683C37.4649 115.775 37.8032 115.744 38.3414 115.56C41.2633 114.622 42.7397 113.361 43.078 111.5C43.1702 110.962 43.1856 110.962 44.2467 110.792C44.8465 110.7 45.5539 110.5 45.8461 110.346C46.5996 109.947 47.8607 108.686 47.8607 108.332C47.8607 108.163 47.8145 108.101 47.7376 108.209C47.5223 108.547 45.5539 109.67 45.2925 109.624C45.0772 109.593 45.1541 109.47 45.6308 109.132C46.7995 108.27 47.7684 107.04 47.2763 107.04C47.1994 107.04 46.9687 107.179 46.7688 107.363Z" fill="#00BCD4"/>
<path d="M34.4048 107.348C34.4509 107.425 34.5893 107.501 34.7123 107.501C34.8353 107.501 34.9738 107.425 35.0199 107.348C35.0814 107.255 34.943 107.194 34.7123 107.194C34.4816 107.194 34.3432 107.255 34.4048 107.348Z" fill="#00BCD4"/>
<path d="M35.5884 107.686C35.6345 107.794 35.8805 107.901 36.1574 107.932C36.5264 107.978 36.6495 107.932 36.6033 107.778C36.5572 107.671 36.3111 107.563 36.0343 107.532C35.6652 107.486 35.5422 107.532 35.5884 107.686Z" fill="#00BCD4"/>
<path d="M37.1264 108.147C37.1726 108.255 37.4186 108.363 37.6954 108.393C38.0645 108.44 38.1875 108.393 38.1414 108.24C38.0953 108.132 37.8492 108.024 37.5724 107.994C37.2033 107.947 37.0803 107.994 37.1264 108.147Z" fill="#00BCD4"/>
<path d="M32.1748 108.701C32.1748 109.085 32.2363 109.193 32.4824 109.193C32.7899 109.193 32.7899 109.178 32.5285 108.763C32.3901 108.532 32.2517 108.317 32.2209 108.286C32.1902 108.255 32.1748 108.44 32.1748 108.701Z" fill="#00BCD4"/>
<path d="M38.326 108.516C38.326 108.563 38.5105 108.824 38.7258 109.085L39.1103 109.547L38.6797 109.901C38.449 110.085 38.0184 110.285 37.7416 110.346C37.0495 110.47 37.2802 110.731 38.0799 110.731C38.6028 110.731 38.8334 110.623 39.2948 110.208C39.6024 109.931 39.8638 109.624 39.8638 109.547C39.8638 109.224 39.0334 108.424 38.695 108.424C38.4951 108.424 38.326 108.47 38.326 108.516Z" fill="#00BCD4"/>
<path d="M29.8063 111.331C29.6832 111.515 30.5752 111.715 30.8212 111.561C30.9443 111.484 30.9135 111.408 30.6982 111.331C30.283 111.162 29.8985 111.162 29.8063 111.331Z" fill="#00BCD4"/>
<path d="M31.3441 111.792C31.2364 111.961 31.6209 112.115 32.1438 112.115C32.5436 112.1 32.5436 112.1 32.2668 111.884C31.9285 111.623 31.4671 111.577 31.3441 111.792Z" fill="#00BCD4"/>
<path d="M32.636 112.269C32.636 112.346 32.8667 112.453 33.1435 112.499C33.6356 112.592 34.1738 113.191 34.1738 113.653C34.1738 113.976 33.4972 114.406 32.9897 114.422C32.4514 114.422 32.19 114.652 32.5745 114.791C33.0666 114.975 33.5279 114.868 34.1431 114.422C34.789 113.96 34.9735 113.407 34.6659 112.945C34.3584 112.469 32.636 111.884 32.636 112.269Z" fill="#00BCD4"/>
<path d="M27.4075 112.73C27.4075 113.022 27.9611 113.453 28.1456 113.284C28.1918 113.238 28.161 113.191 28.0687 113.191C27.9765 113.191 27.8534 113.022 27.8073 112.807C27.6843 112.346 27.4075 112.3 27.4075 112.73Z" fill="#00BCD4"/>
<path d="M29.1452 113.76C29.2836 113.791 29.5297 113.791 29.6835 113.76C29.8219 113.714 29.6988 113.684 29.4066 113.684C29.1145 113.684 28.9914 113.714 29.1452 113.76Z" fill="#00BCD4"/>
<path d="M35.7116 116.913C35.0811 117.497 34.2814 118.174 33.9431 118.389C33.6047 118.62 33.2972 118.851 33.251 118.897C33.2049 118.943 32.9742 119.035 32.7128 119.097C32.4667 119.158 32.2053 119.281 32.1592 119.374C32.0054 119.62 30.9596 119.804 29.6832 119.804C28.5606 119.804 28.1146 119.973 28.4222 120.266C28.4991 120.342 29.1604 120.481 29.9139 120.589C31.3441 120.788 32.5282 120.65 33.4509 120.173C33.697 120.05 34.0199 119.958 34.1737 119.958C34.4813 119.958 35.7731 119.051 36.2191 118.512C36.9265 117.667 37.3724 116.144 36.9726 115.898C36.9111 115.867 36.3421 116.313 35.7116 116.913Z" fill="#00BCD4"/>
<path d="M115.372 100.243C114.572 100.658 113.219 101.519 112.296 102.196C112.081 102.365 111.497 102.765 111.035 103.072C110.559 103.38 109.867 104.072 109.467 104.595C108.836 105.425 108.759 105.625 108.759 106.333C108.759 106.763 108.852 107.255 108.975 107.425C109.082 107.594 109.436 108.393 109.759 109.193C110.436 110.9 111.128 112.1 112.219 113.499C112.665 114.053 113.327 115.098 113.711 115.837C114.111 116.575 114.818 117.667 115.326 118.266C116.618 119.85 117.079 120.465 118.202 122.142C118.771 122.972 119.524 123.895 119.909 124.218C120.385 124.618 120.555 124.833 120.431 124.956C120.324 125.064 124.138 124.941 120.601 124.937C123.886 124.941 124.138 124.941 124.138 124.941C124.261 125.064 120.601 124.937 124.138 124.941C123.999 124.802 124.245 124.618 125.091 124.187C125.706 123.879 126.721 123.28 127.336 122.864C127.952 122.449 128.49 122.111 128.536 122.111C128.582 122.111 129.074 121.742 129.612 121.296C130.72 120.373 131.489 119.312 131.627 118.528C131.735 117.851 130.904 116.021 129.874 114.699C128.843 113.361 128.582 112.992 127.536 111.423C127.029 110.654 126.475 109.854 126.306 109.639C126.121 109.408 125.937 109.101 125.875 108.947C125.829 108.778 125.614 108.44 125.414 108.178C125.214 107.917 125.06 107.624 125.06 107.548C125.06 107.132 123.415 104.964 122.046 103.58C119.17 100.673 117.986 99.8122 116.802 99.8122C116.464 99.8122 115.849 99.9968 115.372 100.243ZM117.525 101.212C117.879 101.396 118.417 101.796 118.724 102.104C119.032 102.411 119.678 102.98 120.139 103.365C120.616 103.78 121.139 104.38 121.339 104.795C121.539 105.179 121.754 105.502 121.831 105.502C122.077 105.502 123.4 107.348 123.323 107.563C123.23 107.794 123.815 108.424 124.107 108.424C124.215 108.424 124.291 108.547 124.291 108.716C124.291 109.055 124.691 110.07 124.86 110.147C124.937 110.162 125.26 110.546 125.599 110.992C125.937 111.423 126.383 112.007 126.598 112.284C126.814 112.546 127.121 113.022 127.29 113.33C127.459 113.637 127.659 113.93 127.721 113.976C127.798 114.037 127.936 114.222 128.028 114.391C128.521 115.237 129.751 116.928 129.997 117.082C130.228 117.221 130.289 117.451 130.289 118.113C130.289 119.035 130.181 119.189 129.197 119.743C128.92 119.896 127.967 120.558 127.106 121.188C126.229 121.819 124.922 122.757 124.215 123.264C123.492 123.772 122.754 124.31 122.569 124.448C122.4 124.602 122.215 124.694 122.154 124.664C122.108 124.648 121.739 124.479 121.339 124.295C120.754 124.033 120.601 123.879 120.601 123.587C120.601 123.387 120.493 123.141 120.37 123.034C120.247 122.926 120.139 122.772 120.139 122.695C120.139 122.618 119.832 122.157 119.463 121.665C119.094 121.188 118.325 120.112 117.771 119.266C117.202 118.435 116.479 117.482 116.156 117.159C115.618 116.621 115.249 115.883 115.434 115.698C115.464 115.652 115.31 115.437 115.08 115.206C114.68 114.822 113.788 113.561 113.157 112.53C112.988 112.253 112.542 111.623 112.158 111.131C111.266 109.947 110.974 109.362 110.851 108.501C110.789 108.117 110.574 107.609 110.359 107.348C110.051 106.994 109.974 106.763 110.02 106.24C110.066 105.533 109.682 105.856 114.603 102.503C115.157 102.134 115.849 101.627 116.141 101.365C116.433 101.104 116.725 100.904 116.787 100.889C116.848 100.889 117.187 101.043 117.525 101.212Z" fill="#00BCD4"/>
<path d="M116.941 102.965C116.571 103.165 116.11 103.472 115.91 103.611C115.726 103.765 115.403 103.995 115.218 104.118C115.034 104.241 114.788 104.41 114.695 104.503C114.603 104.58 114.111 104.933 113.603 105.256C112.373 106.071 111.374 106.871 111.374 107.056C111.374 107.394 113.142 107.025 113.557 106.61C113.665 106.502 113.819 106.425 113.926 106.425C114.019 106.425 114.188 106.317 114.311 106.179C114.418 106.056 115.126 105.518 115.879 104.995C116.817 104.334 117.34 103.872 117.54 103.472C118.048 102.473 117.94 102.38 116.941 102.965Z" fill="#00BCD4"/>
<path d="M119.801 106.302C118.939 107.225 118.847 107.578 118.693 110.516C118.632 111.792 118.447 112.115 117.34 113.022C116.279 113.868 115.464 115.191 115.987 115.191C116.064 115.191 116.587 114.914 117.14 114.576C117.694 114.237 118.201 113.96 118.263 113.96C118.478 113.96 119.155 113.13 119.401 112.576C119.862 111.531 120.031 110.577 119.939 109.562C119.847 108.332 120.016 107.686 120.693 106.625L121.215 105.81H120.739C120.4 105.81 120.124 105.948 119.801 106.302Z" fill="#00BCD4"/>
<path d="M122.354 107.917C122.169 107.947 121.831 108.178 121.6 108.424C121.246 108.793 121.139 109.116 120.893 110.685C120.724 111.684 120.447 112.807 120.278 113.176C120.093 113.561 119.493 114.314 118.909 114.868C117.663 116.098 116.971 117.005 117.156 117.174C117.233 117.251 117.463 117.344 117.679 117.39C118.002 117.467 118.125 117.39 118.432 116.944C118.847 116.344 119.263 116.298 119.339 116.852C119.386 117.128 119.493 117.19 119.924 117.19C120.293 117.19 120.447 117.113 120.447 116.959C120.447 116.836 120.385 116.729 120.324 116.729C120.262 116.729 120.093 116.482 119.955 116.175C119.709 115.637 119.709 115.591 120.078 115.006C120.293 114.683 120.554 114.376 120.677 114.314C120.8 114.268 120.908 114.099 120.908 113.945C120.908 113.545 121.354 113.576 121.508 113.991C121.585 114.191 121.831 114.514 122.046 114.714C122.461 115.098 123.061 116.144 123.061 116.467C123.046 116.913 121.831 117.913 121.523 117.728C121.446 117.682 121.369 117.697 121.369 117.79C121.369 117.867 121.446 117.99 121.523 118.036C121.785 118.189 121.708 119.912 121.446 120.02C121.323 120.066 121.216 120.204 121.216 120.342C121.216 120.465 121.108 120.573 120.985 120.573C120.862 120.573 120.754 120.635 120.754 120.727C120.754 121.296 121.908 120.189 122.123 119.404C122.215 119.081 122.292 118.712 122.292 118.589C122.292 118.466 122.384 118.251 122.507 118.128C123.123 117.451 123.968 116.036 123.784 115.975C123.476 115.883 123.215 115.467 123.215 115.052C123.199 114.652 123.123 114.56 121.8 113.576C121.139 113.084 121.062 112.961 121.062 112.438C121.062 111.346 122.184 111.054 123.015 111.93C123.707 112.653 123.984 113.453 123.984 114.668C123.984 115.652 124.015 115.821 124.199 115.667C124.399 115.498 124.645 114.714 124.814 113.684C124.876 113.284 124.845 113.191 124.63 113.191C124.261 113.176 122.292 110.47 122.292 109.962C122.292 109.501 122.538 109.193 122.938 109.193C123.092 109.193 123.215 109.132 123.215 109.055C123.215 108.901 122.769 107.794 122.707 107.824C122.692 107.84 122.523 107.886 122.354 107.917Z" fill="#00BCD4"/>
<path d="M123.984 111.085C123.984 111.315 124.491 111.961 124.676 111.961C124.891 111.961 124.707 111.515 124.368 111.192C124.045 110.9 123.984 110.869 123.984 111.085Z" fill="#00BCD4"/>
<path d="M121.739 112.284C121.631 112.469 122.461 113.345 122.738 113.345C123 113.345 122.938 112.961 122.584 112.515C122.246 112.1 121.923 112.007 121.739 112.284Z" fill="#00BCD4"/>
<path d="M126.552 115.498C126.598 115.667 126.783 115.96 126.983 116.175C127.813 117.082 127.644 117.759 126.383 118.559C125.875 118.881 125.306 119.297 125.153 119.481C124.983 119.65 124.783 119.804 124.691 119.804C124.091 119.82 121.354 122.311 121.631 122.588C121.846 122.803 122.446 122.542 123.799 121.603C124.461 121.142 125.322 120.542 125.752 120.25C126.168 119.958 126.598 119.635 126.721 119.543C126.829 119.435 127.306 119.097 127.767 118.789C128.72 118.159 128.92 117.836 128.551 117.62C128.397 117.544 128.29 117.421 128.29 117.328C128.29 117.251 128.09 116.975 127.828 116.729C127.582 116.482 127.367 116.236 127.367 116.19C127.367 116.036 126.706 115.191 126.583 115.191C126.521 115.191 126.506 115.329 126.552 115.498Z" fill="#00BCD4"/>
<path d="M121.139 115.76C120.816 116.252 120.985 116.652 121.538 116.652C121.938 116.652 122.077 116.329 121.923 115.714C121.8 115.221 121.477 115.237 121.139 115.76Z" fill="#00BCD4"/>
<path d="M119.416 118.22C118.786 118.297 118.77 118.497 119.37 118.712C119.632 118.789 119.847 118.958 119.862 119.066C119.862 119.174 119.878 119.374 119.893 119.497C119.924 119.912 120.37 119.82 120.662 119.343C120.908 118.897 120.923 118.835 120.693 118.497C120.554 118.282 120.324 118.128 120.17 118.143C120.031 118.143 119.678 118.189 119.416 118.22Z" fill="#00BCD4"/>
</svg>
