<svg width="154" height="142" viewBox="0 0 154 142" fill="none" xmlns="http://www.w3.org/2000/svg">
<rect width="154" height="142" rx="6" fill="#00BCD4" fill-opacity="0.25"/>
<path fill-rule="evenodd" clip-rule="evenodd" d="M76.0834 41.202C73.4242 42.0425 72.1229 43.77 72.1308 46.4494C72.1363 48.3385 72.3714 48.9171 73.6656 50.2253C76.1509 52.7376 79.8205 52.4202 81.9997 49.505C83.0804 48.0595 83.1414 45.2061 82.1261 43.6011C80.8478 41.5805 78.2058 40.5315 76.0834 41.202ZM82.9796 54.031C82.9148 54.1089 82.8088 54.4685 82.7441 54.8302C82.521 56.0738 82.3881 56.9136 82.2752 57.788C82.2132 58.2701 82.0927 58.8954 82.008 59.1778C81.923 59.4602 81.8531 59.9345 81.8531 60.2317C81.8531 60.5288 81.7832 61.185 81.6975 61.6901C81.6121 62.1949 81.5112 62.8792 81.474 63.2107C81.4045 63.8246 81.1793 65.2587 80.9666 66.4423C80.9015 66.804 80.8006 67.4447 80.7425 67.8664C80.6843 68.2882 80.5669 68.9539 80.4815 69.3455C80.3961 69.737 80.3114 70.4028 80.2932 70.8245L80.2598 71.5912L80.6309 71.6265C80.8351 71.6461 81.231 71.5884 81.5102 71.4982C81.7894 71.4083 82.2159 71.3022 82.4576 71.2628C82.6997 71.2233 83.12 71.1227 83.392 71.0394C83.664 70.956 84.3043 70.7604 84.8152 70.6046C85.3261 70.4488 85.7961 70.2806 85.8594 70.2305C85.9228 70.1801 86.088 70.1046 86.2267 70.062C86.3655 70.0198 86.8922 69.7425 87.3973 69.446C87.9027 69.1499 88.3489 68.9073 88.3891 68.9073C88.8016 68.9073 91.7448 65.7625 91.7448 65.3218C91.7448 65.2391 91.8167 65.0326 91.9052 64.8624C92.4746 63.7646 92.5077 61.3298 91.9686 60.198C91.9114 60.0776 91.7888 59.8065 91.6969 59.5954C91.1736 58.3985 89.3607 56.6027 87.8042 55.7396C86.8478 55.2094 85.9592 54.7753 85.8301 54.7753C85.7733 54.7753 85.6652 54.7012 85.5898 54.6109C85.5148 54.5207 85.3667 54.4466 85.2611 54.4466C85.1554 54.4466 84.7784 54.3542 84.4228 54.2417C83.3903 53.914 83.1104 53.8731 82.9796 54.031ZM70.3684 54.2437C68.3568 54.9112 66.3132 56.1013 64.8532 57.4561C61.0131 61.0182 62.0959 66.3888 67.2359 69.2765C67.629 69.4972 68.0246 69.7264 68.1152 69.7858C68.206 69.8451 68.4037 69.9429 68.5548 70.003C68.7059 70.0634 68.9273 70.1691 69.0471 70.2384C69.1666 70.3077 69.4878 70.4285 69.7615 70.5071C70.0348 70.5853 70.6046 70.7531 71.0277 70.8801C73.0342 71.4813 74.3541 71.6787 74.214 71.3564C74.1654 71.2446 74.0807 70.8575 74.026 70.4958C73.9709 70.1344 73.8573 69.444 73.7733 68.9622C73.689 68.48 73.5888 67.7405 73.5506 67.3187C73.5123 66.897 73.4111 66.1966 73.3261 65.7625C73.2407 65.328 73.1708 64.7028 73.1708 64.3727C73.1708 64.0429 73.114 63.6338 73.0448 63.4643C72.9756 63.2948 72.8568 62.7121 72.7808 62.1699C72.6427 61.1874 72.5212 60.4365 72.2306 58.7739C72.1466 58.2917 72.0478 57.5526 72.0113 57.1308C71.9748 56.7087 71.8757 56.0186 71.7906 55.5968C71.7059 55.1751 71.6233 54.6576 71.6068 54.4466C71.57 53.9682 71.3207 53.9273 70.3684 54.2437ZM30.8027 88.3933C26.8487 89.0889 24.709 94.2388 26.8411 97.9275C27.5008 99.0692 29.2779 100.378 30.4994 100.623C30.6949 100.662 30.8836 100.739 30.918 100.795C30.9525 100.851 31.4985 100.896 32.1316 100.896C33.5008 100.896 34.2503 100.682 35.8332 99.8389C36.9883 99.224 38.1722 97.3928 38.449 95.7933C38.5107 95.4364 38.5881 94.9965 38.6212 94.8153C38.7448 94.1355 38.1702 92.0199 37.6304 91.1671C37.0795 90.2975 35.1987 88.7358 34.7023 88.7358C34.6093 88.7358 34.419 88.6562 34.2792 88.5583C33.9972 88.3614 31.6241 88.2488 30.8027 88.3933ZM50.3107 88.3641C49.8951 88.489 49.871 88.8271 49.871 94.5603C49.871 100.942 49.8655 100.896 50.6708 100.896C51.4509 100.896 51.5118 100.718 51.516 98.4206C51.5208 95.9042 51.3738 96.0758 53.5258 96.0758C55.271 96.0758 55.5471 96.1698 55.9413 96.897C56.018 97.0383 56.3034 97.491 56.5754 97.9021C56.8477 98.3135 57.1197 98.7326 57.18 98.8331C58.3333 100.754 59.1919 101.357 59.6377 100.561C59.8853 100.119 59.7162 99.6032 58.9489 98.459C57.3394 96.0596 57.2733 95.8568 57.9618 95.4217C60.3673 93.9011 60.4082 90.5923 58.0417 88.9815C57.1218 88.3555 57.1986 88.3669 53.7179 88.3397C51.9346 88.326 50.4015 88.337 50.3107 88.3641ZM71.6567 88.4681C71.3372 88.6912 71.3241 89.3054 71.6323 89.6122C71.8371 89.8167 71.9986 89.8315 74.0257 89.8315C75.8152 89.8315 76.2424 89.8617 76.4435 90.0021L76.6876 90.1726L76.6938 95.1235C76.701 100.81 76.7027 100.822 77.4192 100.875C78.252 100.935 78.2265 101.109 78.2265 95.3603C78.2265 91.1764 78.253 90.2752 78.3821 90.0988C78.5257 89.9032 78.7236 89.8819 80.865 89.8315C83.1469 89.7776 83.1961 89.7718 83.402 89.5182C83.6836 89.1706 83.666 88.8898 83.3421 88.5666L83.0722 88.2979H77.4867C72.609 88.2979 71.8698 88.3195 71.6567 88.4681ZM95.705 88.5131C95.3652 88.8518 95.3579 100.237 95.697 100.677L95.9081 100.951L99.5688 100.985C104.542 101.033 104.603 101.021 104.603 100.033C104.603 99.2789 104.475 99.2528 100.744 99.2528C98.2846 99.2528 97.3585 99.2178 97.2618 99.1214C97.0776 98.9374 97.0776 95.7336 97.2618 95.55C97.3571 95.455 98.1228 95.4186 100.015 95.4186C103.212 95.4186 103.664 95.2618 103.29 94.2824C103.109 93.8088 102.898 93.7752 100.113 93.7752C96.7732 93.7752 97.1296 93.9958 97.1316 91.9286C97.1337 89.652 96.7006 89.8964 100.854 89.8315C102.785 89.8013 104.407 89.7354 104.457 89.6853C104.576 89.5666 104.576 88.5625 104.457 88.4437C104.224 88.2114 95.9415 88.277 95.705 88.5131ZM116.602 88.5511C116.057 89.129 116.056 89.1273 119.005 92.0888C120.272 93.3617 121.309 94.4735 121.309 94.5593C121.309 94.6451 120.196 95.8349 118.836 97.2031C117.476 98.5713 116.357 99.7772 116.35 99.8825C116.324 100.261 116.386 100.407 116.675 100.646C117.272 101.14 117.225 101.172 120.217 98.2068C121.496 96.9388 122.564 95.9663 122.677 95.9663C122.79 95.9663 123.863 96.9409 125.143 98.2058C128.099 101.127 128.05 101.092 128.611 100.726C129.382 100.222 129.178 99.8873 126.421 97.1447C124.343 95.0771 124.047 94.7412 124.113 94.5209C124.155 94.3819 125.232 93.2258 126.507 91.9512C127.781 90.6771 128.866 89.5216 128.917 89.3837C129.049 89.0292 128.915 88.5367 128.648 88.3943C128.06 88.0807 127.778 88.278 125.342 90.7097C123.731 92.3184 122.932 93.0408 122.716 93.084C122.431 93.1407 122.211 92.9505 119.979 90.7217C117.323 88.0687 117.157 87.9623 116.602 88.5511ZM33.2002 90.0051C36.1548 90.9049 37.6637 93.5706 36.6891 96.1681C36.55 96.539 36.3927 96.8427 36.3397 96.8427C36.2866 96.8427 36.2422 96.9042 36.2415 96.9797C36.2405 97.0548 35.9971 97.3911 35.7007 97.7264C33.7697 99.9093 29.9083 99.6282 28.4262 97.1969C28.2888 96.9721 28.1411 96.7628 28.0974 96.7322C27.457 96.282 27.4619 92.8792 28.1032 92.4619C28.1508 92.431 28.2733 92.2429 28.3756 92.0439C29.1285 90.5793 31.6235 89.5251 33.2002 90.0051ZM56.3124 90.0532C58.6752 90.8486 58.8339 93.4224 56.5716 94.2501C55.7123 94.5648 51.9215 94.5171 51.6909 94.189C51.4664 93.8695 51.4375 90.4149 51.6571 90.139C51.9721 89.743 55.2131 89.6833 56.3124 90.0532Z" fill="#00BCD4"/>
</svg>
