<svg width="154" height="142" viewBox="0 0 154 142" fill="none" xmlns="http://www.w3.org/2000/svg">
<rect width="154" height="142" rx="6" fill="#00BCD4" fill-opacity="0.25"/>
<path d="M33.4524 16.7298C31.5327 17.3138 31.3581 17.4935 31.3581 18.8411C31.3581 19.6497 31.6199 20.7278 31.969 21.222C32.5362 22.0306 32.5362 22.2103 31.7508 22.929C31.0527 23.513 30.9218 24.0072 31.14 25.1302C31.5763 27.1517 31.7508 27.3314 33.0597 27.0619C34.0196 26.8822 33.9323 26.9271 32.7543 27.5111C31.4018 28.0951 31.3145 28.2748 31.4454 30.0716C31.5763 31.7337 31.7072 31.9584 32.5798 31.9134C33.5833 31.8685 33.5833 31.9134 32.4053 32.8568C30.4855 34.4291 30.7909 37.9779 32.7543 37.3041C33.3651 37.1244 33.5397 37.2142 33.3651 37.5287C33.1906 37.7982 32.7979 38.0228 32.4489 38.0228C31.2709 38.0228 30.8782 41.8861 32.0126 42.3803C32.6234 42.6049 32.6234 42.6947 32.0562 43.3686C31.7072 43.7729 31.3581 44.8061 31.2709 45.6596C31.1836 46.9174 31.3145 47.3217 32.0999 47.726L33.1033 48.2201L32.0126 49.1635C30.7473 50.2866 30.6601 52.6674 31.7944 53.4311C32.4489 53.8354 32.4053 54.0151 31.7072 55.5424C31.0527 56.8901 30.9655 57.5639 31.3145 58.7319L31.7072 60.2592L31.7508 58.3725C31.7944 56.7104 32.0999 56.1713 35.1976 52.8022C43.4001 43.7729 54.6131 37.4838 66.0442 35.5072C71.018 34.6537 71.6289 34.3842 68.0075 34.6986C64.5171 35.0131 58.8888 36.0912 56.0092 36.9896C48.9848 39.2807 40.4332 44.5365 35.1103 49.8823C31.969 53.0717 31.7944 53.1616 31.7944 51.9487C31.7944 49.6127 38.8189 43.7279 46.1488 40.0443C53.4787 36.3158 59.7614 34.5638 68.0075 33.9799L72.5887 33.6654L67.5712 33.6205C55.0057 33.4408 43.4873 37.6185 33.8451 45.7943L31.7508 47.5912L31.8817 46.1088C31.969 44.851 32.4489 44.3119 34.8486 42.6049C41.0004 38.1576 49.2029 34.7435 56.9255 33.3509C62.3356 32.3627 70.7562 32.4525 75.3811 33.4857C79.7441 34.5189 79.5696 33.9799 75.2065 32.8568C65.0843 30.2962 51.7335 31.5541 42.0475 35.9564C38.8625 37.3939 32.667 41.2123 32.667 41.7064C32.667 41.8861 32.4925 42.0658 32.2307 42.0658C32.0126 42.0658 31.7944 41.4818 31.7944 40.7182C31.7944 39.5502 32.1435 39.2357 34.7613 37.7084C45.7125 31.3744 58.7579 29.0384 70.9744 31.2396C73.8976 31.7787 77.3008 32.5873 78.5224 33.1263C79.7877 33.6205 80.9657 33.9349 81.2275 33.8451C81.9692 33.6205 76.4282 31.4642 72.3706 30.3861C60.5031 27.2415 47.2395 28.724 36.1138 34.4291C34.5868 35.1927 33.147 36.0013 32.8852 36.2709C32.1871 36.9896 31.7944 36.7201 31.7944 35.4174C31.7944 34.2943 32.1435 34.0248 34.8922 32.722C42.6584 29.0384 49.4647 27.5111 57.7544 27.5111C68.4875 27.5111 78.5224 30.431 87.1176 36.0463C88.3392 36.8998 89.3864 37.4388 89.3864 37.349C89.3864 36.6303 80.9221 31.5541 76.8645 29.8021C68.7056 26.2533 62.7283 25.1751 53.8713 25.5794C46.2361 25.9388 39.6479 27.6458 33.6269 30.7904L31.7944 31.7337V30.431C31.7944 28.8587 32.0999 28.6341 37.1173 26.8372C44.6217 24.097 53.7405 23.1536 61.6375 24.2767C72.8069 25.8939 83.7144 31.015 90.8262 37.933C92.1787 39.2807 93.3131 40.1791 93.3131 39.9545C93.3131 39.3705 89.2991 35.5521 85.9396 32.9466C80.0495 28.3197 75.1629 25.804 68.0075 23.6927C56.4892 20.2786 44.6217 21.0872 32.5362 26.1185C31.8381 26.4329 31.7508 26.2533 31.8817 24.9505L32.0126 23.4232L36.7683 21.9407C48.723 18.2571 62.0302 19.1107 73.8976 24.3665C80.6167 27.3314 88.2083 32.9916 92.7023 38.3822C96.3672 42.7846 96.7162 43.0541 94.6656 39.9994C92.3532 36.4955 85.1979 29.308 81.5765 26.7923C77.7371 24.1419 70.7126 20.7728 66.0442 19.3353C62.641 18.3021 61.114 18.1224 54.2204 17.9427C45.4507 17.6732 41.0004 18.1224 35.7212 19.8743C33.9323 20.4583 32.4489 20.8626 32.4053 20.8177C32.318 20.7728 32.2307 20.1439 32.1435 19.4251C31.9253 17.4036 33.6705 16.9993 42.8329 16.9544C47.2832 16.9095 50.5554 16.7298 50.5554 16.5052C50.5554 15.7864 35.8084 15.9661 33.4524 16.7298ZM53.086 18.5716C52.1698 18.6614 50.5991 18.6614 49.5956 18.5716C48.5485 18.4817 49.2902 18.3919 51.2099 18.3919C53.1296 18.3919 53.9586 18.4817 53.086 18.5716ZM56.3583 18.5716C56.0529 18.6614 55.5293 18.6614 55.2675 18.5716C54.9621 18.4368 55.1803 18.347 55.7911 18.347C56.4019 18.347 56.62 18.4368 56.3583 18.5716ZM38.1208 20.5032C37.6409 20.7278 36.9428 20.9075 36.5938 20.9075C36.2011 20.9075 36.2447 20.7278 36.8119 20.5032C37.2919 20.2786 37.9899 20.0989 38.339 20.0989C38.7316 20.0989 38.688 20.2786 38.1208 20.5032ZM49.9883 23.0189C49.8574 23.1536 49.4647 23.1986 49.1593 23.0638C48.8102 22.929 48.9411 22.7943 49.4211 22.7943C49.901 22.7493 50.1628 22.8841 49.9883 23.0189ZM46.3233 23.513C46.0179 23.6029 45.4071 23.6029 45.0144 23.513C44.5781 23.3782 44.8399 23.2884 45.538 23.2884C46.2797 23.2884 46.5851 23.3782 46.3233 23.513ZM37.6845 25.4447C37.5536 25.6693 37.161 25.8939 36.8992 25.8939C36.5938 25.8939 36.6374 25.7142 37.0301 25.4447C37.859 24.9056 38.0336 24.9056 37.6845 25.4447ZM47.3704 27.5111C47.2395 27.6458 46.8469 27.6908 46.5415 27.556C46.1924 27.4212 46.3233 27.2865 46.8032 27.2865C47.2832 27.2415 47.545 27.3763 47.3704 27.5111ZM37.9027 30.1166C37.9027 30.2064 37.5973 30.431 37.2046 30.5658C36.8555 30.7005 36.681 30.6556 36.8119 30.3861C37.0737 29.9369 37.9027 29.7572 37.9027 30.1166ZM35.503 31.2845C35.3721 31.5091 35.0231 31.7337 34.8049 31.7337C34.5431 31.7337 34.4995 31.5091 34.6304 31.2845C34.7613 31.015 35.1103 30.8353 35.3285 30.8353C35.5903 30.8353 35.6339 31.015 35.503 31.2845ZM36.5938 35.5072C36.5938 35.597 36.2884 35.8217 35.8957 35.9564C35.5466 36.0912 35.3721 36.0463 35.503 35.7767C35.7648 35.3275 36.5938 35.1478 36.5938 35.5072Z" fill="#00BCD4"/>
<path d="M51.7772 16.3255C52.0826 16.4603 52.4752 16.4153 52.6061 16.2806C52.7807 16.1458 52.5189 16.011 52.0389 16.056C51.559 16.056 51.4281 16.1907 51.7772 16.3255Z" fill="#00BCD4"/>
<path d="M54.0458 16.4602C54.0458 16.7298 56.0528 16.9095 59.2378 16.9095C63.9499 16.9095 64.8225 17.0442 68.3129 18.302C70.4072 19.0657 73.1559 20.2337 74.3339 20.8626C83.2345 25.4447 92.1787 34.0697 97.1525 42.7846C99.5522 47.0072 99.2468 47.4565 96.2799 44.1322C94.7965 42.3803 93.5748 40.7631 93.6621 40.5385C93.7494 40.2689 93.6621 40.1791 93.4876 40.3588C93.3131 40.5385 92.964 40.5385 92.7022 40.3139C92.4405 40.0892 90.957 39.1459 89.43 38.2924C86.7249 36.6752 85.067 36.0912 81.0966 35.3275C78.4788 34.7884 71.1925 34.7884 70.8871 35.2826C70.7126 35.5072 69.7964 35.8216 68.7492 36.0013C67.7457 36.181 65.9569 36.8099 64.8225 37.4388C63.6881 38.0228 62.5537 38.3822 62.3356 38.2474C61.7248 37.8881 54.4385 41.7514 50.5991 44.4467C46.5851 47.2768 40.5205 53.3862 37.8154 57.3393C34.8922 61.562 32.5798 66.144 32.7107 67.312C32.7979 67.896 32.7107 68.6147 32.5361 68.8843C32.318 69.1987 32.2744 69.4683 32.4053 69.4683C32.5361 69.4683 32.318 70.3218 31.9689 71.355C31.4018 72.9273 31.2709 76.2066 31.2272 89.3687C31.0963 108.191 31.14 108.326 34.4122 108.326C36.2011 108.326 36.3756 108.236 36.332 107.248L36.2883 106.17L37.1173 107.382C38.1644 108.82 40.6514 109.045 41.3495 107.742C41.7858 107.023 41.873 107.023 42.4402 107.742C43.4001 109.045 46.6287 108.685 46.6287 107.293C46.6287 106.709 46.8032 106.798 47.3268 107.562C48.0249 108.595 49.8137 108.865 50.9481 108.146C51.4717 107.787 51.5153 107.472 51.079 106.439L50.5554 105.181L51.6462 106.529C52.257 107.248 52.7369 108.011 52.7369 108.191C52.7369 108.73 55.5729 108.595 56.0965 108.056C56.3583 107.787 56.4891 107.248 56.3146 106.843C56.1837 106.484 56.6637 106.754 57.3617 107.472C58.8452 109 60.9831 109.089 61.3321 107.607C61.5503 106.798 61.5939 106.798 62.641 107.652C64.5171 109.134 67.004 108.82 66.7422 107.068C66.655 106.439 67.4403 106.754 68.2257 107.652C69.0547 108.595 72.676 109 72.1524 108.101C72.0215 107.832 71.2798 107.652 70.5817 107.652C69.491 107.652 68.5311 106.888 65.2152 103.429C57.7108 95.6578 52.7369 86.3589 50.3373 75.5777C49.1593 70.3667 48.9411 71.0854 49.901 76.9253C51.6026 86.898 56.4891 96.9605 63.2518 104.283C64.9098 106.08 66.2623 107.652 66.2623 107.742C66.2623 107.877 65.6079 107.877 64.8661 107.697C63.6881 107.472 62.7719 106.529 60.0232 102.935C53.1732 93.8609 49.421 83.5738 48.3739 70.771C48.0249 66.2788 47.9812 66.3686 48.1558 72.8374C48.3739 80.6538 49.2902 85.9097 51.5153 91.5699C53.3914 96.3766 56.271 101.543 58.9761 105.002L61.0703 107.697L59.6742 107.562C58.4525 107.427 57.9289 106.978 56.3146 104.507C52.5624 98.7125 49.5519 91.3453 48.1121 84.2027C47.3268 80.2495 47.0214 69.6929 47.5886 64.7514L47.894 62.0561L47.2395 64.5268C46.1488 68.5249 45.9306 80.5191 46.8032 85.4156C48.1994 92.9625 50.1628 98.3531 53.6532 104.148L55.7474 107.652H54.4822C53.2605 107.652 53.0424 107.338 50.5991 102.127C46.1924 92.7379 44.3163 82.4058 45.2762 72.3882C45.7997 67.0874 47.065 61.1128 48.4175 57.8784C48.8975 56.8002 49.2465 55.6772 49.2465 55.4077C49.2029 54.4643 46.6723 60.8881 45.5816 64.6616C42.702 74.5894 42.8329 86.9429 45.887 96.1969C47.3704 100.644 49.2029 104.957 50.2064 106.394L51.0354 107.652H49.5956H48.1121L46.0615 102.306C43.2692 94.8941 42.2657 89.5035 42.2657 81.732C42.2657 78.3179 42.4838 74.2749 42.702 72.7476C43.7491 66.144 47.9376 54.4194 49.2465 54.4194C49.5956 54.4194 49.901 54.0151 49.901 53.5209C49.901 52.5776 51.8207 49.0736 52.1698 49.433C52.3006 49.5229 52.1261 50.0619 51.8643 50.601C50.8172 52.5776 49.6392 56.7104 49.3774 59.1362C49.072 62.1909 49.072 62.7299 49.4647 66.0991C49.6392 67.5815 49.7701 69.2436 49.8137 69.7827C49.8573 70.2769 50.0319 70.6362 50.25 70.5015C50.4245 70.4116 50.5554 70.6362 50.5554 71.0405C50.5554 71.3999 50.8608 72.478 51.2971 73.4214C51.6898 74.3198 51.9516 75.2183 51.9516 75.398C51.908 75.6226 52.0389 75.7573 52.257 75.7573C52.4752 75.7573 52.7369 76.1167 52.9115 76.521C53.0424 76.9702 53.3041 77.5991 53.435 77.9585C53.6095 78.3628 53.5223 78.4527 53.2169 78.2281C51.908 77.4195 56.6637 86.5386 59.7178 90.8062C63.9063 96.5562 70.7999 102.621 76.6899 105.675C78.5224 106.664 80.1367 107.607 80.3113 107.877C80.4858 108.146 80.6603 107.966 80.6603 107.517C80.6603 107.113 80.4421 106.754 80.1367 106.754C79.875 106.754 79.7441 106.664 79.8313 106.529C79.9622 106.439 81.3584 106.843 82.9727 107.427C85.416 108.371 86.6813 108.55 90.1717 108.506C94.9274 108.416 93.8803 107.787 88.8628 107.697C85.3287 107.652 81.0966 106.08 75.2501 102.666C66.8731 97.7691 58.7143 89.2789 54.8748 81.5074C53.3914 78.4527 53.3041 78.0484 54.4822 79.1265C54.9621 79.5757 55.2239 80.1597 55.0493 80.4292C54.9185 80.6988 54.9185 80.7886 55.093 80.6089C55.2675 80.4742 56.2274 81.2378 57.2309 82.3609C58.1907 83.439 59.8487 84.8765 60.8958 85.5054C61.9429 86.1343 62.6846 86.8082 62.5537 86.9878C62.2047 87.5269 68.0075 91.6597 71.9779 93.7262C80.0495 97.9488 90.5644 100.42 98.1124 99.8356C106.882 99.2066 113.383 97.3648 120.931 93.3668C121.106 93.2769 121.236 93.8609 121.236 94.7144C121.236 96.1969 121.193 96.2418 117.441 97.6793C111.114 100.15 107.231 100.959 100.25 101.228C90.6953 101.588 84.4125 100.464 76.4718 96.9156C70.4508 94.2203 65.9569 91.3004 61.2448 87.0328C60.0668 85.9546 60.634 86.6734 62.5974 88.605C76.3845 102.486 97.0653 107.248 115.564 100.734C117.833 99.9254 120.058 99.1168 120.495 98.9371C121.106 98.6227 121.236 98.8023 121.236 100.105V101.632L117.441 102.845C103.174 107.203 88.4701 106.08 76.0791 99.7008C71.2362 97.1852 65.477 92.7828 61.4194 88.5152C59.3687 86.314 57.449 84.1128 57.1872 83.6187C56.9254 83.1246 56.62 82.8101 56.4891 82.9449C56.0965 83.3941 60.9394 89.4586 64.4735 92.9625C70.4072 98.8023 78.0861 103.339 85.8087 105.675C90.1281 106.933 94.9274 107.607 94.4911 106.888C94.2729 106.529 96.3236 106.394 100.992 106.349C105.966 106.304 107.667 106.439 107.449 106.843C107.013 107.562 111.289 106.978 115.259 105.81C120.407 104.283 120.233 104.283 120.495 105.72C120.626 106.439 120.495 107.113 120.233 107.293C119.928 107.472 117.441 107.652 114.692 107.697C111.943 107.742 109.107 107.922 108.366 108.101C107.58 108.326 109.718 108.461 113.688 108.416C121.236 108.326 121.847 108.101 121.149 105.496C120.931 104.642 120.364 103.834 119.797 103.609C119.055 103.295 119.011 103.205 119.578 103.205C121.585 103.115 122.851 99.9254 121.455 98.5328C120.887 97.9039 120.887 97.6793 121.455 96.5562C121.804 95.8824 122.109 94.9391 122.109 94.5348C122.109 93.5465 120.844 92.2887 120.233 92.6929C119.928 92.8277 120.233 92.4234 120.931 91.7945C121.847 90.8961 122.065 90.3121 121.935 89.4136C121.629 87.8863 120.887 87.3472 119.753 87.9761C119.229 88.2457 119.578 87.7515 120.495 86.8531C122.24 85.146 122.327 84.9214 121.673 83.1695C121.324 82.271 121.018 82.0464 120.451 82.2261C120.015 82.4058 120.189 82.0464 120.931 81.3726C121.891 80.4292 122.109 79.8902 121.935 78.812C121.629 76.9253 121.018 76.3413 120.058 77.1499C119.622 77.5093 119.84 77.105 120.495 76.2964C122.022 74.3648 122.196 71.2651 120.8 71.2651C120.32 71.2651 119.928 71.0405 119.928 70.8159C119.928 70.5464 120.102 70.3667 120.364 70.3667C121.716 70.3667 122.414 65.7397 121.236 64.5268C120.451 63.7182 120.451 63.6284 121.28 61.8764C122.327 59.5854 122.022 55.9916 120.713 55.6323C120.146 55.4975 119.971 55.183 120.146 54.6889C120.32 54.2846 120.8 52.5326 121.236 50.8256C121.978 48.0404 122.065 46.1986 121.935 34.6537C121.847 21.6712 121.542 18.5716 120.146 16.9993C119.36 16.1009 118.139 16.0559 116.743 16.7747C115.608 17.3587 115.39 17.3587 114.692 16.6849C113.601 15.6516 111.551 15.9661 110.94 17.2239L110.46 18.2571L109.98 17.1341C109.631 16.3704 109.107 16.011 108.409 16.011C106.882 16.011 105.966 16.4602 105.966 17.2239C105.966 17.7181 105.704 17.6731 104.831 16.9544C103.392 15.7864 102.301 15.7415 101.21 16.8645C100.425 17.6731 100.381 17.6731 99.6831 16.8645C98.7232 15.6966 96.629 15.7415 96.1054 16.9544L95.7127 17.8528L94.6656 16.9544C93.3567 15.7864 91.2624 15.8313 90.8698 16.9993C90.6516 17.8079 90.5644 17.8079 89.2118 16.9095C87.6848 15.9661 85.8959 15.6966 85.8959 16.4602C85.8959 16.6849 86.3322 16.9095 86.8994 16.9095C88.9064 16.9095 95.0146 24.8607 98.1124 31.5091C102.17 40.224 103.915 47.5463 103.915 55.9916C103.959 60.0795 104.046 60.7983 104.352 59.3608C104.875 56.8901 104.439 47.142 103.566 42.6049C102.039 34.3392 96.8907 23.4232 92.0914 18.1224L90.957 16.9095H92.3532C93.5748 16.9095 93.9675 17.2688 96.3236 20.9525C104.613 33.9349 107.493 50.5112 103.959 64.7514C103.784 65.5151 103.828 65.56 104.177 64.9311C105.137 63.4038 106.053 57.3842 106.271 51.4994C106.533 44.6713 105.748 38.0677 104.002 32.4076C102.606 27.7806 98.1124 18.886 96.8035 18.0325C95.9745 17.4935 96.3672 16.9095 97.5888 16.9095C98.6796 16.9095 99.0286 17.3138 100.468 19.9192C108.322 34.5189 109.718 52.7573 104.002 67.6264C103.435 69.2436 102.999 70.5913 103.086 70.6811C103.392 70.9956 105.879 64.3921 107.013 60.3491C110.678 47.4115 109.238 32.183 103.261 20.3685C102.475 18.8411 101.777 17.4485 101.69 17.2239C101.603 17.0442 102.126 16.9095 102.824 16.9095C104.002 16.9095 104.221 17.179 105.442 20.1439C111.245 34.1146 111.943 47.9955 107.493 61.6967C105.966 66.3237 103.872 70.9956 101.865 74.1851L100.73 75.9819L101.995 74.4995C104.919 70.9956 109.282 61.4721 110.94 54.7787C113.601 44.1771 112.379 30.5658 107.886 20.5482C107.057 18.7063 106.402 17.1341 106.402 17.0442C106.402 16.9544 107.013 16.9095 107.755 16.9993C108.976 17.1341 109.238 17.4485 110.154 19.8294C112.51 25.7591 113.427 30.6107 113.688 38.2474C113.95 46.558 113.339 51.4096 111.114 58.0131C108.627 65.56 105.18 71.8042 100.163 77.7788L97.5016 80.9234L100.032 78.4527C105.617 72.9722 110.896 64.3022 113.339 56.6206C116.873 45.4799 116.786 32.3626 113.121 21.6263C112.51 19.8743 111.943 18.1224 111.769 17.6731C111.594 17.0442 111.812 16.9095 112.903 16.9095C114.168 16.9095 114.256 16.9993 115.346 20.6829C117.702 28.679 118.444 38.1127 117.31 45.8842C116.655 50.2865 114.648 57.3842 112.903 61.3374C110.372 67.0425 105.486 73.9605 100.425 78.9019C96.5417 82.7203 96.149 83.2144 98.1124 81.8218C101.472 79.396 108.409 72.0288 110.852 68.3003C114.736 62.2807 117.397 56.0366 119.011 48.894C119.797 45.5248 119.971 43.3236 119.971 37.6185C119.971 30.3861 119.273 25.4896 117.484 19.8743C116.699 17.4935 117.048 16.7747 118.793 16.9993C119.448 17.0892 119.84 17.8528 120.451 20.2786C121.106 22.929 121.236 25.3997 121.236 35.5521C121.236 49.1186 121.018 50.5561 117.964 57.7436C114.954 64.7514 110.067 72.0288 105.224 76.7007C102.083 79.7105 96.8035 83.6636 94.0112 85.0113C91.0443 86.4488 91.0007 86.9429 93.9675 85.5953C101.821 82.0015 109.587 75.3081 114.954 67.4018C117.79 63.1792 120.364 58.1928 120.364 56.7553C120.364 56.351 120.582 55.9916 120.8 55.9916C121.062 55.9916 121.236 56.9799 121.236 58.1479C121.236 59.8999 120.887 60.8881 119.317 63.4936C115.215 70.3667 109.456 76.6109 103.13 81.1031C98.9414 84.0679 95.3637 85.9097 90.3462 87.7066C85.3287 89.5035 85.8087 89.7281 91.0879 88.066C95.5382 86.6734 101.995 83.6187 104.962 81.5523C111.158 77.1948 117.877 70.3667 120.058 66.0991L121.018 64.3022L121.149 66.0093C121.324 67.9858 120.887 68.6147 115.477 74.2749C108.147 82.0015 98.985 87.0328 87.423 89.6832C83.4963 90.5816 83.4963 90.5816 86.3322 90.3121C97.5452 89.2789 109.151 83.6636 117.528 75.2183C119.448 73.2866 121.062 71.7144 121.106 71.7144C121.193 71.7144 121.236 72.2983 121.236 73.0171C121.236 74.0503 120.713 74.7691 118.749 76.521C107.58 86.4039 95.9745 91.0308 81.9692 91.1207C76.6027 91.1656 76.3409 91.2105 78.9151 91.5699C82.6673 92.109 91.3933 91.7047 95.4946 90.8062C104.395 88.8746 115.215 83.439 119.448 78.7222C120.8 77.2398 121.236 77.2398 121.236 78.7671C121.236 80.2495 118.531 82.4507 112.598 85.73C101.734 91.8394 91.1752 93.7711 77.8243 92.1539C76.2973 91.9742 76.3845 92.064 78.4788 92.648C80.2676 93.1871 83.0163 93.4117 89.1682 93.4566C98.4614 93.5015 101.559 92.9625 108.802 89.9527C112.772 88.2906 119.055 84.7417 119.928 83.6187C120.756 82.5855 121.236 82.8101 121.236 84.1578C121.236 85.2359 120.756 85.6851 117.615 87.5269C110.722 91.5699 104.613 93.5015 95.9745 94.4449C90.3462 95.0738 89.1682 95.0738 84.1507 94.4449C80.6603 93.9957 77.1699 93.232 74.7266 92.3785C69.5346 90.5367 68.8365 90.357 70.2763 91.2554C72.4142 92.5133 80.573 95.1187 84.4998 95.7476C89.4736 96.6012 96.9344 96.6012 101.821 95.7027C106.882 94.8043 113.645 92.4683 117.702 90.1324C119.491 89.1441 120.975 88.3355 121.062 88.3355C121.149 88.3355 121.236 88.9195 121.236 89.6383C121.236 90.7613 120.931 91.0308 118.313 92.2887C109.456 96.4215 104.744 97.4996 94.8401 97.4996C86.4195 97.5445 84.587 97.275 77.6062 94.984C72.4578 93.2769 66.5677 90.3121 66.9604 89.5933C67.1349 89.2789 67.0913 89.234 66.7859 89.4136C66.3059 89.7281 62.5974 87.482 62.9464 87.1226C63.0337 87.0328 63.9063 87.3472 64.8225 87.7964C68.9674 89.9976 74.7266 90.8511 80.0058 90.0875C81.9256 89.773 84.0635 89.5484 84.7179 89.5484C85.416 89.5484 85.7214 89.4136 85.4596 89.234C85.1542 89.0543 85.765 88.65 86.9431 88.2906C88.0338 87.9761 88.95 87.5269 88.95 87.3023C88.95 87.1226 89.1682 87.0777 89.4736 87.2574C89.779 87.482 89.8226 87.3921 89.6045 86.9878C89.3427 86.5386 89.4736 86.4488 90.1717 86.6285C90.6953 86.8082 91.0443 86.7632 90.9134 86.5836C90.8261 86.4039 91.6987 85.4605 92.8768 84.5621C95.8436 82.2261 98.2869 79.0816 100.338 75.0835C101.254 73.2417 102.126 71.7144 102.301 71.7593C102.432 71.7593 102.694 71.6245 102.824 71.4448C102.999 71.2651 102.868 71.2651 102.563 71.4448C101.995 71.8042 102.083 70.7261 102.955 67.9409C103.435 66.2788 103.479 65.4253 102.955 65.4253C102.737 65.4253 102.475 66.0991 102.345 66.8628C101.69 71.4448 100.207 74.814 96.7599 79.6206C94.4911 82.7652 89.8663 86.4039 86.3322 87.7964C84.1071 88.65 80.9657 89.5933 80.224 89.5933C73.7231 89.773 72.196 89.6832 69.9273 89.0093C67.6585 88.3355 66.5241 87.8863 62.3792 85.9097C60.8522 85.191 54.7876 78.9468 54.0458 77.3296C53.6968 76.5659 53.086 75.4878 52.6933 74.8589C50.9481 72.0737 49.6392 65.5151 49.9882 60.9331C50.2936 56.5756 50.8608 54.3295 52.7806 50.3764C56.8382 41.8412 65.6951 35.9564 74.7702 35.6869C79.046 35.5521 82.4055 35.8216 82.4055 36.3158C82.4055 36.4955 82.9291 36.6752 83.5399 36.6752C84.8488 36.6752 88.95 38.4271 88.95 38.9662C88.95 39.1908 89.0809 39.3256 89.2991 39.2806C89.8663 39.101 91.7424 40.3588 93.2258 41.8861C94.0112 42.7396 94.7965 43.4135 94.971 43.4584C95.1455 43.4584 96.149 44.7162 97.2398 46.2436C100.512 50.8256 101.952 54.6889 102.345 59.81C102.694 64.8413 103.435 66.2339 103.174 61.3823C102.912 57.0698 101.254 50.6459 99.9012 48.7592C98.8977 47.3666 98.7232 46.7826 99.4213 47.2318C100.076 47.6361 97.9379 42.7846 95.8873 39.2806C92.2223 32.9017 86.7685 26.8822 80.5294 22.39C76.8645 19.7396 72.8505 17.6731 71.8906 17.9427C71.4107 18.0774 71.1489 17.9876 71.2798 17.8079C71.4107 17.6282 71.1053 17.5384 70.669 17.6731C70.189 17.8079 68.6184 17.4935 67.1786 16.9544C65.0407 16.1907 63.47 16.011 59.2815 16.011C56.0965 16.011 54.0458 16.1907 54.0458 16.4602ZM107.58 22.39C107.449 22.7493 107.318 22.6146 107.318 22.1204C107.275 21.6263 107.406 21.3567 107.537 21.5364C107.667 21.6712 107.711 22.0755 107.58 22.39ZM118.488 29.5775C118.357 29.9369 118.226 29.8021 118.226 29.3079C118.182 28.8138 118.313 28.5443 118.444 28.724C118.575 28.8587 118.619 29.263 118.488 29.5775ZM118.924 34.5189C118.793 34.8334 118.706 34.6088 118.706 33.9798C118.706 33.3509 118.793 33.1263 118.924 33.3959C119.011 33.7103 119.011 34.2494 118.924 34.5189ZM60.7649 39.8646C58.5834 41.6615 57.7108 42.1107 57.3181 41.7064C57.1 41.5267 57.1 41.6615 57.2745 41.931C57.449 42.2904 56.8382 43.3236 55.7038 44.5814C54.6567 45.7045 53.8277 46.7826 53.8277 46.9174C53.8277 47.5463 52.257 49.4779 51.9516 49.2983C50.9045 48.6244 44.0109 61.6069 42.3529 67.4468C40.4768 74.0054 39.7788 82.2261 40.4768 88.7398C41.2622 95.6129 42.1784 98.9371 45.6252 107.068C45.7561 107.472 45.4071 107.652 44.5345 107.652C43.3564 107.652 43.1383 107.382 42.3093 105.271C38.1208 94.6695 37.5536 78.9019 40.9568 68.1206C43.1819 61.0678 47.894 52.4877 51.9516 48.0854C53.3041 46.6029 54.0022 45.4799 53.7841 45.1654C53.5659 44.8061 53.6532 44.7611 54.0458 44.9857C54.3949 45.2104 54.5258 45.1654 54.3076 44.851C54.1767 44.5814 54.6567 43.8178 55.442 43.1439C56.8818 41.931 56.8818 41.931 55.5729 42.7396C51.8207 45.0307 45.538 51.2299 42.2657 55.9018C38.8625 60.7534 35.5466 68.1206 33.9323 74.4097C33.0161 77.8238 32.9288 79.2613 32.8852 87.8863C32.8852 97.0055 32.9288 97.7691 34.0632 101.812C34.674 104.148 35.3721 106.439 35.503 106.843C35.7648 107.517 35.5466 107.652 34.325 107.652C32.9288 107.652 32.7979 107.517 32.318 105.63C31.9689 104.238 31.7944 99.1168 31.7944 89.5035C31.7944 75.6226 31.7944 75.353 32.8852 71.939C37.1173 58.642 46.8469 46.6029 58.5834 40.1791C62.3792 38.1127 62.99 38.0228 60.7649 39.8646ZM51.3844 47.7709C40.9131 59.5854 36.1138 72.6128 36.7246 87.7964C36.9864 95.1637 38.688 103.429 40.3896 106.08C41.2622 107.382 41.0877 107.652 39.4733 107.652H38.0336L36.8992 103.519C35.154 97.1402 34.7177 93.9957 34.674 87.8863C34.6304 78.7222 36.681 69.6929 40.6514 61.6069C43.0074 56.7104 51.908 45.2104 53.2605 45.2104C53.4787 45.2104 52.6497 46.3783 51.3844 47.7709ZM33.845 82.5855C33.7142 82.8999 33.6269 82.6753 33.6269 82.0464C33.6269 81.4175 33.7142 81.1929 33.845 81.4624C33.9323 81.7769 33.9323 82.316 33.845 82.5855ZM37.7718 85.2808C37.6409 85.6402 37.51 85.5054 37.51 85.0113C37.4664 84.5171 37.5972 84.2476 37.7281 84.4273C37.859 84.5621 37.9027 84.9664 37.7718 85.2808ZM37.7718 87.0777C37.6409 87.4371 37.51 87.3023 37.51 86.8082C37.4664 86.314 37.5972 86.0445 37.7281 86.2242C37.859 86.3589 37.9027 86.7632 37.7718 87.0777ZM37.7718 89.9976C37.6409 90.4468 37.5536 90.0875 37.5536 89.234C37.5536 88.3804 37.6409 88.0211 37.7718 88.4254C37.859 88.8746 37.859 89.5933 37.7718 89.9976ZM116.219 89.6832C116.088 89.9078 115.695 90.1324 115.434 90.1324C115.128 90.1324 115.172 89.9527 115.564 89.6832C116.393 89.1441 116.568 89.1441 116.219 89.6832ZM33.845 94.2652C33.7142 94.6246 33.5833 94.4898 33.5833 93.9957C33.5396 93.5015 33.6705 93.232 33.8014 93.4117C33.9323 93.5465 33.9759 93.9508 33.845 94.2652ZM116.873 94.3551C116.873 94.4449 116.568 94.6695 116.175 94.8043C115.826 94.9391 115.652 94.8941 115.783 94.6246C116.044 94.1754 116.873 93.9957 116.873 94.3551ZM114.037 95.523C113.907 95.7476 113.514 95.9723 113.252 95.9723C112.947 95.9723 112.99 95.7926 113.383 95.523C114.212 94.984 114.386 94.984 114.037 95.523ZM118.182 98.8473C118.182 98.9371 117.79 99.1168 117.31 99.2516C116.83 99.3863 116.524 99.2965 116.699 99.0719C116.917 98.6676 118.182 98.4879 118.182 98.8473ZM115.783 99.566C115.652 99.7906 115.259 100.015 114.997 100.015C114.692 100.015 114.736 99.8356 115.128 99.566C115.957 99.027 116.132 99.027 115.783 99.566ZM113.383 100.464C113.034 100.689 112.554 100.914 112.292 100.914C112.074 100.914 112.161 100.689 112.51 100.464C112.859 100.24 113.383 100.015 113.601 100.015C113.863 100.015 113.732 100.24 113.383 100.464ZM44.6217 101.632C44.7526 101.992 44.709 102.172 44.4472 102.037C44.1854 101.902 44.0109 101.588 44.0109 101.318C44.0109 100.689 44.3163 100.824 44.6217 101.632ZM103.915 102.576C103.61 102.666 102.999 102.666 102.606 102.576C102.17 102.441 102.432 102.351 103.13 102.351C103.872 102.351 104.177 102.441 103.915 102.576ZM112.205 105.72C111.9 105.81 111.376 105.81 111.114 105.72C110.809 105.586 111.027 105.496 111.638 105.496C112.249 105.496 112.467 105.586 112.205 105.72ZM109.325 106.125C109.194 106.259 108.802 106.304 108.496 106.17C108.147 106.035 108.278 105.9 108.758 105.9C109.238 105.855 109.5 105.99 109.325 106.125Z" fill="#00BCD4"/>
<path d="M71.9343 16.4603C71.9343 16.6849 72.676 16.9095 73.5923 16.9095C75.4684 16.9095 79.2642 19.2903 84.3689 23.6478C91.088 29.3529 97.3271 38.4721 100.119 46.6928C101.69 51.3198 102.039 50.7807 100.512 46.019C97.8071 37.5736 92.9205 29.5326 86.725 23.3782C83.06 19.7396 79.0461 16.7298 78.8279 17.4485C78.7406 17.7181 77.9989 17.5384 76.9518 16.9544C75.163 15.9661 71.9343 15.6517 71.9343 16.4603Z" fill="#00BCD4"/>
<path d="M80.0058 16.4602C79.8313 16.7298 80.2676 16.9095 81.053 16.9095C82.0565 16.9095 83.1036 17.6282 85.8523 20.3235C94.4475 28.6341 100.556 40.224 102.694 52.1733C103.13 54.644 103.261 54.9584 103.304 53.6108C103.348 51.4545 102.301 46.0639 100.861 41.4369C98.5923 33.9798 95.2764 27.9603 90.1717 21.9856C87.0739 18.347 84.6743 16.1907 85.1542 17.4934C85.3724 18.1223 85.1106 18.0325 83.8017 17.1341C82.1437 15.9661 80.4858 15.6966 80.0058 16.4602Z" fill="#00BCD4"/>
<path d="M82.0128 34.1595C82.1001 34.2494 82.6673 34.5638 83.2781 34.8334C84.3252 35.3275 84.3252 35.3275 83.5399 34.6986C82.8418 34.1146 81.402 33.6205 82.0128 34.1595Z" fill="#00BCD4"/>
<path d="M60.154 37.5736C51.428 40.6283 45.4943 44.4916 38.7752 51.4545C33.6705 56.7104 31.7944 59.4507 32.7978 60.1245C33.1033 60.3491 33.1469 60.4839 32.8851 60.4839C32.6233 60.4839 32.1434 61.2475 31.7944 62.146C30.7472 65.2007 31.009 68.6147 32.3615 68.5249C32.7542 68.5249 32.7542 68.4351 32.3615 68.2554C32.0125 68.1206 31.7944 67.2222 31.7944 66.0093C31.7944 64.3921 32.187 63.4038 33.8013 60.7983C40.7822 49.7475 51.3843 41.1225 62.6846 37.349C64.8661 36.5853 65.5205 36.181 64.4298 36.2709C64.1244 36.2709 62.2046 36.8549 60.154 37.5736Z" fill="#00BCD4"/>
<path d="M48.1994 60.2592C48.0685 60.6635 47.9376 61.2475 47.9812 61.5171C47.9812 61.8315 48.1994 61.562 48.4175 60.978C48.6357 60.394 48.7666 59.81 48.6357 59.7202C48.5484 59.6303 48.3739 59.8549 48.1994 60.2592Z" fill="#00BCD4"/>
<path d="M48.4176 65.2456C48.4176 65.7397 48.5485 65.8745 48.6794 65.5151C48.8103 65.2007 48.7667 64.7964 48.6358 64.6616C48.5049 64.4819 48.374 64.7514 48.4176 65.2456Z" fill="#00BCD4"/>
<path d="M50.9917 75.6675C50.9917 77.105 53.435 83.5289 55.6601 87.9762C58.3216 93.277 62.2047 98.5328 66.2623 102.396C69.6218 105.631 72.9377 107.966 73.1559 107.293C73.2431 107.023 73.5922 106.933 73.9412 107.068C74.2466 107.203 74.4648 107.427 74.3339 107.607C74.1157 108.011 74.2903 108.056 77.5625 108.371C79.2205 108.55 79.7877 108.506 79.6131 108.146C79.4386 107.877 78.6533 107.652 77.8243 107.652C75.5992 107.652 70.2763 103.744 64.9534 98.2633C58.8888 92.0191 55.791 87.2125 52.6933 79.3511C51.777 77.0152 50.9917 75.3531 50.9917 75.6675Z" fill="#00BCD4"/>
<path d="M72.7196 91.1207C72.9377 91.3453 73.4177 91.4801 73.7231 91.3902C74.0721 91.2555 73.854 91.0758 73.2868 90.8961C72.545 90.7164 72.3705 90.7613 72.7196 91.1207Z" fill="#00BCD4"/>
<path d="M74.9011 91.7945C75.2065 91.9293 75.5991 91.8844 75.73 91.7496C75.9046 91.6148 75.6428 91.4801 75.1628 91.525C74.6829 91.525 74.552 91.6597 74.9011 91.7945Z" fill="#00BCD4"/>
<path d="M37.3791 113.043C36.681 113.761 36.0266 114.39 35.9393 114.39C35.8957 114.39 35.6775 113.896 35.5466 113.267C35.2412 112.054 34.0632 111.785 33.1906 112.683C32.8852 112.998 32.667 114.48 32.667 116.277C32.667 117.939 32.4925 119.332 32.2744 119.332C31.6199 119.332 31.3145 120.769 31.8381 121.398C33.1033 123.015 35.7212 121.263 35.7212 118.748C35.7648 117.445 35.8084 117.4 36.2447 118.209C37.7718 120.949 40.3896 121.488 42.5275 119.422C43.5746 118.478 43.8364 117.849 43.8364 116.412C43.7927 114.345 43.3564 113.537 41.8294 112.459C40.2587 111.336 38.8625 111.515 37.3791 113.043ZM42.0475 113.941C43.1819 115.199 42.7456 117.894 41.2622 119.062C40.1278 119.916 39.9533 119.916 38.8625 119.287C36.5938 117.984 36.5065 114.345 38.7316 113.222C39.9097 112.593 41.0877 112.863 42.0475 113.941ZM34.4995 116.502C34.4122 118.433 34.2814 120.275 34.1941 120.545C33.9759 121.218 32.2307 121.353 32.2307 120.679C32.2307 120.41 32.5361 120.23 32.8852 120.23C33.4088 120.23 33.5396 119.511 33.5396 116.636C33.5396 114.031 33.6705 113.043 34.1068 113.043C34.4995 113.043 34.6304 113.941 34.4995 116.502Z" fill="#00BCD4"/>
<path d="M38.8626 114.211C37.8155 114.974 37.5537 116.996 38.4263 117.894C39.168 118.658 41.2623 118.568 41.5677 117.715C42.0476 116.457 41.8295 114.929 41.1314 114.211C40.3024 113.312 40.0842 113.312 38.8626 114.211ZM40.6514 115.693C40.9132 116.771 40.346 117.759 39.6916 117.355C39.168 116.996 39.0371 115.603 39.517 115.154C39.997 114.615 40.4333 114.795 40.6514 115.693Z" fill="#00BCD4"/>
<path d="M45.1452 112.414C44.6217 112.908 44.4471 114.031 44.4471 116.412C44.4471 119.197 44.578 119.826 45.2761 120.185C45.8869 120.545 46.2796 120.455 46.8468 119.781C47.5885 118.927 47.6758 118.927 48.4611 119.646C49.5519 120.634 50.4245 120.769 50.7735 119.916C50.9917 119.287 51.1226 119.287 51.8207 119.961C52.606 120.724 52.6933 120.724 53.5659 119.826C54.6566 118.703 55.6165 118.613 55.9655 119.601C56.2709 120.455 57.9289 120.275 58.5397 119.287C58.8451 118.748 58.7142 117.984 58.0162 116.367C56.5764 113.132 56.4455 112.908 55.6601 112.414C54.5257 111.65 53.6095 112.504 52.5624 115.289L51.6461 117.759L51.428 115.334C51.1662 112.504 50.2936 111.56 48.7665 112.504C48.0248 112.998 47.6758 112.998 46.8468 112.414C45.8869 111.785 45.7561 111.785 45.1452 112.414ZM47.7194 115.289C48.4611 116.502 49.1592 117.535 49.2901 117.535C49.421 117.535 49.4646 116.502 49.3337 115.289C49.2028 113.582 49.2901 113.043 49.7264 113.043C50.2063 113.043 50.2936 113.761 50.2063 116.457C50.0318 120.365 49.6391 120.365 47.4576 116.412L46.1924 114.166V116.951C46.1924 118.523 46.0178 119.781 45.7561 119.781C45.4943 119.781 45.3197 118.343 45.3197 116.412C45.3197 112.324 45.8869 112.054 47.7194 115.289ZM55.791 113.582C55.791 113.896 56.2709 115.334 56.8381 116.771C57.8416 119.242 57.6235 120.994 56.5764 118.703C55.8783 117.086 53.7404 117.041 53.3477 118.658C53.2168 119.287 52.9114 119.781 52.6933 119.781C52.1261 119.781 52.2133 119.152 52.9114 117.445C53.2605 116.636 53.784 115.289 54.0458 114.48C54.5694 113.088 55.791 112.459 55.791 113.582Z" fill="#00BCD4"/>
<path d="M54.5695 115.289C54.2641 116.142 54.3077 116.457 54.7877 116.547C55.7039 116.771 55.8784 116.457 55.3985 115.244L55.0058 114.166L54.5695 115.289Z" fill="#00BCD4"/>
<path d="M59.6306 112.009C58.1036 112.279 57.6673 113.492 58.8016 114.48C59.4561 114.974 59.7179 115.738 59.7179 117.041C59.7179 119.377 61.1577 121.174 62.1612 120.14C62.5102 119.781 62.8156 118.568 62.8593 117.355C62.8593 115.783 63.0774 115.154 63.6882 114.795C64.4736 114.39 64.5172 114.57 64.5172 116.771C64.5172 119.377 65.1717 120.41 66.5678 120.14C67.0041 120.05 67.5713 119.511 67.8767 118.883C68.2258 118.164 68.4439 118.029 68.4439 118.478C68.4439 118.883 68.8366 119.556 69.3165 120.006C70.0582 120.679 70.2764 120.724 70.8872 120.185C71.4544 119.736 71.7162 119.736 72.4579 120.185C73.1996 120.679 73.505 120.59 74.3776 119.736C75.3811 118.748 75.4248 118.748 76.2974 119.556C76.9955 120.23 77.3445 120.275 78.2607 119.871C78.9152 119.556 79.4387 119.511 79.5696 119.781C80.0059 120.455 81.4457 120.32 81.882 119.556C82.1875 118.927 82.362 118.972 83.0601 119.781C84.8925 121.847 86.0705 120.365 86.0269 116.097C85.9397 112.593 85.4161 111.47 84.1072 112.189C83.6709 112.414 83.2782 112.953 83.2782 113.357C83.2782 113.941 83.1037 113.896 82.4492 113.132C81.533 112.009 80.1368 111.83 79.4387 112.728C79.177 113.043 78.9152 114.3 78.8279 115.513L78.697 117.759L77.8681 115.513C77.4318 114.256 76.6464 112.908 76.1665 112.459C75.2502 111.65 75.2066 111.65 74.2467 112.908C73.6796 113.582 72.9815 114.974 72.6324 115.963C72.2398 117.131 71.978 117.445 71.9343 116.861C71.6289 112.549 70.7127 111.066 69.2293 112.414C68.8366 112.818 68.5748 113.312 68.6621 113.537C68.793 113.716 68.7057 113.986 68.4439 114.166C68.2258 114.3 67.8331 113.941 67.615 113.357C67.0914 111.965 66.0443 111.56 65.3462 112.414C64.9971 112.863 64.6917 112.908 64.5172 112.593C64.2118 112.054 61.3758 111.695 59.6306 112.009ZM64.0809 113.492C64.0809 113.716 63.601 113.941 62.9901 113.941C61.943 113.941 61.8994 114.031 61.8994 116.861C61.8994 118.523 61.7249 119.781 61.4631 119.781C61.2013 119.781 61.0268 118.523 61.0268 116.861C61.0268 114.031 60.9832 113.941 59.936 113.941C59.3252 113.941 58.8453 113.716 58.8453 113.492C58.8453 113.222 60.0233 113.043 61.4631 113.043C62.9029 113.043 64.0809 113.222 64.0809 113.492ZM66.6987 114.39C66.6987 115.648 66.8296 115.738 68.2258 115.738C69.6219 115.738 69.7528 115.648 69.7528 114.39C69.7528 113.627 69.971 113.043 70.1891 113.043C70.4509 113.043 70.6254 114.48 70.6254 116.412C70.6254 118.343 70.4509 119.781 70.1891 119.781C69.971 119.781 69.7528 119.062 69.7528 118.209C69.7528 116.726 69.6656 116.636 68.2258 116.636C66.786 116.636 66.6987 116.726 66.6987 118.209C66.6987 119.062 66.5242 119.781 66.2624 119.781C66.0006 119.781 65.8261 118.343 65.8261 116.412C65.8261 114.48 66.0006 113.043 66.2624 113.043C66.5242 113.043 66.6987 113.627 66.6987 114.39ZM76.8646 116.097C78.1735 119.422 78.2171 119.781 77.6499 119.781C77.4318 119.781 77.1263 119.287 76.9955 118.658C76.6028 117.041 74.4649 117.086 73.7668 118.703C72.7633 120.949 72.4579 119.287 73.4178 116.951C73.9413 115.693 74.5522 114.256 74.6831 113.806C75.163 112.459 75.6865 112.998 76.8646 116.097ZM82.7546 115.738L84.1508 118.164V115.603C84.1508 114.211 84.369 113.043 84.5871 113.043C84.8489 113.043 85.0234 114.48 85.0234 116.412C85.0234 120.41 84.6307 120.455 82.4492 116.861C81.6639 115.513 80.9658 114.39 80.9222 114.39C80.8785 114.39 80.8785 115.513 80.8785 116.861C80.8785 118.209 80.7477 119.332 80.5731 119.332C80.355 119.332 80.2241 119.242 80.2241 119.107C80.2241 118.972 80.2241 117.535 80.2241 115.918C80.2241 112.324 80.704 112.279 82.7546 115.738Z" fill="#00BCD4"/>
<path d="M74.9884 114.795C74.9884 115.019 74.8575 115.513 74.7266 115.918C74.5521 116.412 74.7266 116.636 75.3374 116.636C75.9919 116.636 76.1664 116.412 75.9919 115.738C75.7301 114.75 74.9884 114.031 74.9884 114.795Z" fill="#00BCD4"/>
<path d="M91.0443 112.459C90.608 112.998 90.3462 114.3 90.3026 116.232C90.2153 118.658 90.3462 119.287 91.0879 119.961C92.2223 121.039 94.7529 120.679 96.1491 119.332L97.1525 118.343L97.458 119.287C97.7634 120.365 99.0723 120.545 99.8576 119.556C100.599 118.658 101.036 118.703 102.126 119.781C103.086 120.679 103.13 120.679 103.915 119.871C104.701 119.062 104.701 118.972 103.566 116.097C102.912 114.435 102.083 112.818 101.646 112.414C100.905 111.74 100.774 111.785 99.7267 112.863C99.0723 113.537 98.636 114.166 98.7232 114.345C98.8105 114.48 98.5487 115.334 98.1124 116.187L97.2834 117.759L97.3271 116.097C97.3707 114.166 96.7162 113.132 94.7529 112.279C92.8768 111.47 91.8297 111.56 91.0443 112.459ZM102.475 116.187C104.002 120.05 103.915 119.781 103.348 119.781C103.086 119.781 102.694 119.287 102.475 118.658C102.17 117.804 101.734 117.535 100.774 117.535C99.814 117.535 99.4649 117.759 99.2468 118.658C99.0723 119.287 98.7669 119.781 98.5487 119.781C97.8943 119.781 98.0252 119.197 99.0286 116.771C99.5086 115.603 100.119 114.121 100.338 113.537C100.556 112.953 100.817 112.548 100.948 112.683C101.036 112.773 101.734 114.345 102.475 116.187ZM95.5819 113.806C96.5854 114.705 96.629 117.4 95.6255 118.523C95.1892 119.017 94.3166 119.332 93.2258 119.332H91.5679V116.187V113.043H93.1822C94.0548 113.043 95.1456 113.357 95.5819 113.806Z" fill="#00BCD4"/>
<path d="M100.381 115.513C99.9449 116.502 99.9885 116.636 100.73 116.636C101.646 116.636 101.865 115.918 101.254 114.929C100.992 114.525 100.73 114.66 100.381 115.513Z" fill="#00BCD4"/>
<path d="M92.2224 116.187C92.2224 118.299 92.3097 118.433 93.3568 118.433C94.753 118.433 95.4947 117.67 95.4947 116.187C95.4947 114.705 94.753 113.941 93.3568 113.941C92.3097 113.941 92.2224 114.076 92.2224 116.187ZM94.0113 116.951C93.5313 117.445 93.1823 116.681 93.5313 115.873C93.8804 115.109 93.8804 115.109 94.0549 115.873C94.1858 116.322 94.1421 116.816 94.0113 116.951Z" fill="#00BCD4"/>
<path d="M108.496 112.908L107.362 114.076L106.882 113.088C106.315 112.009 105.006 111.83 104.308 112.728C103.741 113.402 105.442 119.017 106.489 120.006C107.231 120.769 109.02 120.095 109.02 119.107C109.02 118.658 109.238 118.523 109.544 118.703C109.849 118.927 109.936 118.793 109.805 118.388C109.674 118.029 109.805 117.131 110.111 116.412L110.678 115.064L110.722 116.771C110.809 119.646 112.292 121.174 113.645 119.781C113.95 119.467 114.648 119.646 115.739 120.23C117.441 121.084 117.441 121.084 118.662 120.185C120.233 119.062 120.669 117.4 119.84 116.052C119.36 115.334 119.317 114.884 119.622 114.3C120.015 113.716 119.928 113.312 119.317 112.638C118.182 111.336 116.394 111.425 115.39 112.818L114.561 113.941L113.907 112.998C113.427 112.279 112.99 112.099 111.943 112.324C111.245 112.459 110.416 112.414 110.111 112.144C109.805 111.875 109.282 112.099 108.496 112.908ZM119.055 113.582C119.055 113.806 118.706 113.941 118.313 113.896C116.088 113.672 115.652 115.019 117.615 115.783C119.709 116.591 120.058 118.029 118.444 119.107C117.79 119.556 117.004 119.736 116.263 119.511C114.648 119.107 114.866 118.523 116.743 118.343C118.837 118.164 119.011 117.445 117.092 116.502C115.259 115.603 114.91 113.716 116.524 113.088C117.615 112.683 119.055 112.953 119.055 113.582ZM106.708 115.558L107.449 118.074L108.278 115.558C108.715 114.166 109.369 113.043 109.674 113.043C110.067 113.043 109.98 113.716 109.238 115.603C108.715 117.041 108.147 118.613 107.973 119.062C107.58 120.23 107.144 119.646 105.835 116.052C105.006 113.761 104.875 113.043 105.311 113.043C105.66 113.043 106.271 114.121 106.708 115.558ZM112.947 116.412C112.947 118.343 112.772 119.781 112.51 119.781C112.249 119.781 112.074 118.343 112.074 116.412C112.074 114.48 112.249 113.043 112.51 113.043C112.772 113.043 112.947 114.48 112.947 116.412ZM115.565 117.131C115.565 117.265 115.259 117.67 114.91 117.984C114.299 118.523 114.212 118.343 114.343 116.906C114.43 115.424 114.517 115.289 114.997 116.008C115.303 116.457 115.565 116.951 115.565 117.131Z" fill="#00BCD4"/>
<path d="M45.8434 122.117C44.9708 123.015 45.189 125.082 46.2361 125.396C47.2832 125.756 48.8103 124.543 48.8103 123.375C48.8103 122.476 47.9813 121.578 47.0651 121.578C46.6724 121.578 46.1488 121.802 45.8434 122.117ZM48.374 123.06C48.374 123.599 46.8905 125.172 46.4106 125.172C46.2797 125.172 46.1925 124.543 46.1925 123.824C46.1925 122.701 46.367 122.476 47.2832 122.476C47.894 122.476 48.374 122.746 48.374 123.06Z" fill="#00BCD4"/>
<path d="M50.9918 122.207C50.3809 122.836 50.4682 125.037 51.079 125.441C51.7771 125.89 53.2605 125.89 53.9586 125.441C54.6131 125.037 54.6567 122.611 53.9586 122.207C53.1733 121.713 51.4717 121.713 50.9918 122.207ZM52.5188 123.375C52.8242 123.375 53.2169 123.105 53.3042 122.791C53.4351 122.521 53.5223 122.97 53.5223 123.824C53.5223 124.677 53.4351 125.037 53.3042 124.588C53.2169 124.183 52.8242 123.824 52.5188 123.824C52.2134 123.824 51.8207 124.183 51.7335 124.588C51.6026 125.037 51.5153 124.677 51.5153 123.824C51.5153 122.97 51.6026 122.521 51.7335 122.791C51.8207 123.105 52.2134 123.375 52.5188 123.375Z" fill="#00BCD4"/>
<path d="M56.7073 122.207C55.9656 123.105 56.271 125.217 57.1873 125.801C58.278 126.474 60.0232 125.351 60.2414 123.779C60.3723 123.06 60.3723 122.566 60.2414 122.701C60.1541 122.791 59.7614 122.611 59.4124 122.252C58.6271 121.398 57.3618 121.398 56.7073 122.207ZM59.456 123.15C60.0232 124.677 58.4089 126.115 57.2745 125.127C56.6201 124.588 56.4455 123.285 56.9691 122.791C57.4927 122.207 59.1943 122.476 59.456 123.15Z" fill="#00BCD4"/>
<path d="M57.6236 123.644C57.7981 124.588 58.5834 124.677 58.758 123.689C58.8452 123.24 58.6271 122.926 58.1908 122.926C57.7545 122.926 57.5363 123.195 57.6236 123.644Z" fill="#00BCD4"/>
<path d="M62.5537 122.027C62.3792 122.297 62.8155 122.476 63.5136 122.476C64.3862 122.476 64.5607 122.611 64.1244 122.881C63.7753 123.105 63.6008 123.689 63.7753 124.228C63.9062 124.902 63.7753 125.172 63.339 125.172C62.8591 125.172 62.7282 124.857 62.8591 124.093C63.0336 123.285 62.8591 122.926 62.2483 122.791C61.5938 122.611 61.5066 122.656 61.8992 123.15C62.2046 123.509 62.2919 123.959 62.161 124.183C61.812 124.767 63.0773 125.756 63.819 125.486C64.5607 125.172 64.997 122.342 64.3425 121.937C63.6444 121.443 62.8591 121.488 62.5537 122.027Z" fill="#00BCD4"/>
<path d="M67.3969 122.297C66.2189 123.465 66.6115 125.172 68.1386 125.756C70.102 126.519 71.629 123.959 70.1456 122.431C69.1421 121.398 68.3131 121.353 67.3969 122.297ZM70.102 123.42C70.2765 124.408 69.0112 125.666 68.2259 125.351C67.4841 125.037 66.9606 123.554 67.3533 122.925C67.7896 122.162 69.9274 122.611 70.102 123.42Z" fill="#00BCD4"/>
<path d="M68.0076 123.824C68.0076 124.318 68.313 124.722 68.662 124.722C69.0111 124.722 69.3165 124.318 69.3165 123.824C69.3165 123.33 69.0111 122.925 68.662 122.925C68.313 122.925 68.0076 123.33 68.0076 123.824Z" fill="#00BCD4"/>
<path d="M73.1559 122.207C72.0651 123.015 72.1524 125.037 73.2868 125.621C74.5084 126.295 76.2973 125.801 76.2536 124.812C76.21 123.15 75.6864 122.566 74.6393 122.97C73.5485 123.375 73.5049 124.318 74.5957 124.633C75.0756 124.767 75.0756 124.722 74.552 124.318C73.9848 123.914 74.0285 123.824 74.8138 123.824C75.9482 123.824 75.9918 125.037 74.9011 125.306C73.8976 125.576 72.6759 124.408 72.9814 123.509C73.1122 123.15 73.2431 122.746 73.2431 122.656C73.2431 122.566 73.6358 122.476 74.0721 122.476C74.552 122.476 75.0756 122.252 75.2065 122.027C75.5992 121.353 74.0285 121.488 73.1559 122.207Z" fill="#00BCD4"/>
<path d="M78.5224 122.207C78.217 122.566 78.0425 123.42 78.1298 124.138C78.217 125.127 78.5224 125.441 79.5259 125.531C80.5731 125.666 80.6603 125.621 80.1804 125.037C79.8313 124.677 79.5259 124.543 79.4387 124.767C79.0896 125.711 78.4788 125.082 78.4788 123.824C78.4788 122.701 78.6533 122.476 79.4823 122.476C80.7912 122.476 81.2275 122.926 80.6167 123.644C80.3113 124.004 80.3113 124.273 80.6603 124.498C81.3148 124.902 81.7511 123.375 81.2275 122.521C80.6167 121.533 79.1769 121.398 78.5224 122.207Z" fill="#00BCD4"/>
<path d="M83.8017 122.297C83.4963 122.656 83.1909 123.509 83.1472 124.183C83.06 125.261 83.2345 125.396 84.7179 125.531C86.245 125.666 86.3323 125.621 86.3323 124.363C86.3323 123.644 85.9832 122.746 85.5469 122.342C84.587 121.443 84.5434 121.443 83.8017 122.297ZM85.5033 123.644C85.9832 124.992 85.6342 125.711 84.9797 124.722C84.6307 124.138 84.5434 124.138 84.1944 124.722C83.4963 125.801 83.2345 124.992 83.8453 123.689C84.4998 122.162 84.9361 122.162 85.5033 123.644Z" fill="#00BCD4"/>
<path d="M88.5575 122.207C87.7721 123.15 88.1212 125.351 89.081 125.531C89.91 125.711 91.568 124.093 91.568 123.15C91.568 121.713 89.4737 121.084 88.5575 122.207ZM91.0444 123.285C91.1317 123.599 90.8263 124.004 90.3027 124.138C89.8228 124.273 89.5173 124.543 89.6482 124.767C89.7791 124.992 89.561 125.172 89.2119 125.172C88.732 125.172 88.5139 124.722 88.5139 123.779C88.5139 122.566 88.6447 122.431 89.6919 122.566C90.3027 122.656 90.9135 122.97 91.0444 123.285Z" fill="#00BCD4"/>
<path d="M89.3864 123.375C89.3864 123.599 89.6045 123.824 89.8227 123.824C90.0844 123.824 90.259 123.599 90.259 123.375C90.259 123.105 90.0844 122.926 89.8227 122.926C89.6045 122.926 89.3864 123.105 89.3864 123.375Z" fill="#00BCD4"/>
<path d="M93.7494 122.207C93.5313 122.431 93.3131 123.195 93.3131 123.824C93.3131 125.396 93.9676 125.935 95.4946 125.711C96.8035 125.531 97.1962 124.812 96.8908 123.06C96.7163 122.027 94.5348 121.398 93.7494 122.207ZM94.7965 123.015C95.0147 123.465 95.102 123.465 95.3201 123.015C95.7564 122.027 96.3672 122.476 96.3672 123.824C96.3672 124.543 96.1927 125.172 95.9309 125.172C95.7128 125.172 95.4946 124.857 95.4946 124.498C95.4946 124.138 95.3201 123.824 95.0583 123.824C94.8402 123.824 94.622 124.138 94.622 124.498C94.622 124.857 94.4475 125.172 94.1857 125.172C93.9676 125.172 93.7494 124.543 93.7494 123.824C93.7494 122.476 94.3602 122.027 94.7965 123.015Z" fill="#00BCD4"/>
<path d="M99.4649 121.982C98.7668 122.431 98.6795 125.037 99.334 125.711C99.5957 125.98 100.163 126.025 100.687 125.845C101.428 125.621 101.603 125.217 101.603 123.689C101.603 122.656 101.428 122.027 101.254 122.297C101.079 122.566 100.643 122.926 100.294 123.06C99.8139 123.24 99.8575 123.33 100.512 123.33C101.254 123.375 101.297 123.465 100.73 123.824C100.163 124.228 100.163 124.318 100.73 124.722C101.254 125.082 101.21 125.172 100.425 125.172C99.5957 125.172 99.4212 124.902 99.4212 123.824C99.4212 122.926 99.6394 122.476 100.076 122.476C100.425 122.476 100.73 122.252 100.73 122.027C100.73 121.488 100.294 121.443 99.4649 121.982Z" fill="#00BCD4"/>
<path d="M103.959 122.162C103.479 122.746 103.479 123.734 103.959 124.992C104.09 125.351 104.744 125.621 105.617 125.576C106.402 125.576 106.751 125.441 106.402 125.306C106.053 125.172 105.617 124.812 105.442 124.543C105.224 124.183 105.093 124.228 105.093 124.588C105.093 124.902 104.919 125.172 104.657 125.172C104.439 125.172 104.221 124.543 104.221 123.824C104.221 122.656 104.395 122.476 105.355 122.476C106.228 122.476 106.446 122.656 106.315 123.465C106.228 123.959 106.402 124.498 106.708 124.588C107.275 124.812 106.969 123.06 106.271 122.117C105.748 121.443 104.57 121.443 103.959 122.162Z" fill="#00BCD4"/>
<path d="M79.3514 123.42C79.3514 123.644 79.5696 123.734 79.7877 123.599C80.0495 123.465 80.224 123.24 80.224 123.105C80.224 123.015 80.0495 122.925 79.7877 122.925C79.5696 122.925 79.3514 123.15 79.3514 123.42Z" fill="#00BCD4"/>
</svg>
