<svg width="154" height="142" viewBox="0 0 154 142" fill="none" xmlns="http://www.w3.org/2000/svg">
<rect width="154" height="142" rx="6" fill="#00BCD4" fill-opacity="0.25"/>
<path fill-rule="evenodd" clip-rule="evenodd" d="M96.3153 24.1757C95.9988 24.2692 95.6007 24.35 95.4312 24.3556C94.922 24.3725 92.788 24.9995 91.8385 25.411C90.0513 26.1855 88.5013 26.9434 87.5338 27.5155C87.013 27.8234 86.5633 28.0752 86.5349 28.0752C86.5061 28.0752 85.9307 28.4493 85.2562 28.9065C84.5816 29.3637 83.9737 29.7378 83.9052 29.7378C83.8367 29.7378 83.7806 29.7909 83.7806 29.8553C83.7806 29.92 83.5909 30.0902 83.359 30.2335C83.1274 30.3764 82.8161 30.5972 82.6676 30.7232C82.5191 30.8497 82.2703 31.0394 82.115 31.1449C81.4405 31.6032 78.9881 33.674 77.7606 34.8221C76.8866 35.6396 76.7126 35.649 75.9075 34.9243C74.2318 33.4162 72.2303 31.776 70.779 30.7217C67.8238 28.5754 64.8907 26.8914 62.1644 25.7758C61.7776 25.6175 61.3616 25.4372 61.2403 25.3755C58.4153 23.9362 52.5124 23.7533 50.1412 25.0313C48.7135 25.8012 46.3042 28.1549 46.3042 28.78C46.3042 28.8171 46.1605 29.0752 45.9846 29.3532C45.4033 30.2743 44.7934 32.1737 44.3213 34.5344C44.2229 35.0268 44.0845 35.6886 44.0138 36.0051C43.8503 36.7365 43.8484 43.4038 44.0115 44.2553C44.0789 44.607 44.2169 45.4705 44.3179 46.1738C44.5974 48.1148 45.0239 50.4505 45.3595 51.8774C45.7082 53.3608 45.4882 53.6537 43.7878 53.9713C43.5184 54.0219 43.2408 54.1086 43.1705 54.1648C43.1002 54.2205 42.7833 54.3249 42.4668 54.3967C41.8517 54.5363 41.1371 54.7712 40.772 54.9538C40.6489 55.0152 39.9867 55.2737 39.3009 55.5285C37.8426 56.0694 37.3517 56.2819 35.6132 57.1245C34.9038 57.4679 34.2562 57.7493 34.1743 57.7493C34.0923 57.7493 34.025 57.8013 34.025 57.8649C34.025 57.9281 33.8668 58.0433 33.6733 58.1208C33.4799 58.1982 33.1488 58.3725 32.9378 58.508C32.7268 58.6438 32.2662 58.9098 31.9146 59.0998C29.7181 60.2855 26.3121 63.302 24.9906 65.2318C24.2645 66.2928 23.6647 67.4279 23.6647 67.7418C23.6647 67.8656 23.612 67.9992 23.548 68.0388C23.4837 68.0785 23.3905 68.3553 23.3411 68.6539C23.2917 68.9524 23.1993 69.2959 23.1361 69.4167C22.8106 70.0359 23.108 72.9305 23.6146 74.0768C23.7126 74.2983 23.7927 74.5411 23.7927 74.6163C23.7927 74.8498 24.3501 75.8146 25.2189 77.084C25.8395 77.9917 29.0888 81.284 29.3638 81.284C29.4495 81.284 30.1842 81.8021 30.4401 82.0434C30.7159 82.3027 32.5315 83.4584 32.6636 83.4584C32.7238 83.4584 32.9913 83.6312 33.2577 83.8422C33.5241 84.0532 33.8312 84.2257 33.9401 84.2257C34.049 84.2257 34.1713 84.2796 34.2121 84.3458C34.2529 84.4116 34.6157 84.6182 35.0191 84.8048C36.0251 85.2706 36.6746 85.5942 37.3386 85.9613C37.6488 86.1322 37.9724 86.2722 38.0581 86.2722C38.1434 86.2722 38.4943 86.3911 38.8374 86.5363C39.1804 86.6818 39.5763 86.8464 39.7169 86.9026C39.8576 86.959 40.2381 87.1278 40.5625 87.2782C40.8865 87.4286 41.2157 87.5513 41.2935 87.5513C41.3713 87.5513 41.6239 87.6306 41.8551 87.7279C42.0859 87.8248 42.5917 87.9954 42.9786 88.1072C45.6274 88.872 45.6726 88.9038 45.4216 89.8413C45.1709 90.7785 44.5933 93.8849 44.3254 95.7375C44.2289 96.4057 44.0878 97.2625 44.0119 97.6414C43.8323 98.5378 43.8338 105.602 44.0138 106.29C44.0875 106.571 44.2255 107.204 44.3209 107.696C44.5428 108.84 44.8017 109.799 45.1504 110.766C45.3026 111.188 45.4579 111.661 45.496 111.818C45.5338 111.974 45.6449 112.168 45.7426 112.249C45.8402 112.33 45.9203 112.454 45.9203 112.524C45.9203 112.678 46.7999 114.15 47.0359 114.391C47.128 114.485 47.354 114.76 47.5384 115.001C48.3162 116.021 50.1457 117.203 51.6762 117.674C52.5326 117.938 56.1223 118.077 57.1762 117.888C57.5631 117.818 58.2537 117.693 58.7109 117.61C59.1681 117.528 59.7236 117.378 59.9455 117.279C60.167 117.179 60.4547 117.096 60.5849 117.094C60.7151 117.091 60.9332 117.005 61.0697 116.902C61.2063 116.798 61.4173 116.714 61.5389 116.714C61.6605 116.714 61.9373 116.628 62.154 116.522C62.3709 116.417 62.7256 116.244 62.9422 116.139C63.1588 116.033 63.4035 115.945 63.4858 115.944C63.5681 115.943 63.9333 115.785 64.2977 115.593C66.679 114.335 67.1609 114.067 67.8522 113.609C68.2765 113.328 68.7797 112.991 68.9701 112.86C69.1609 112.728 69.3502 112.621 69.391 112.621C69.4887 112.621 70.247 112.086 70.4128 111.9C70.4838 111.821 70.8546 111.545 71.2366 111.287C71.6182 111.029 72.1652 110.624 72.4514 110.386C72.7379 110.148 73.1775 109.791 73.4286 109.592C74.0986 109.062 75.4099 107.912 76.1365 107.217C76.9813 106.409 76.5215 106.158 79.9982 109.327C80.2103 109.521 80.4258 109.679 80.4775 109.679C80.5287 109.679 80.7663 109.881 81.0054 110.127C81.2444 110.373 81.4999 110.575 81.5733 110.575C81.6466 110.575 81.7398 110.661 81.7802 110.766C81.8206 110.872 81.913 110.958 81.9856 110.958C82.0578 110.958 82.6313 111.347 83.2595 111.822C84.8846 113.05 87.2854 114.564 88.3823 115.054C88.5571 115.131 88.7295 115.235 88.7662 115.283C88.8362 115.375 89.4202 115.669 90.1759 115.99C90.4221 116.096 90.9043 116.301 91.2474 116.448C91.5905 116.594 91.9429 116.714 92.0312 116.714C92.1191 116.714 92.2628 116.8 92.3503 116.906C92.4379 117.011 92.6137 117.098 92.7413 117.098C92.8688 117.098 93.1352 117.164 93.3331 117.246C95.1327 117.985 99.501 118.246 101.503 117.733C104.634 116.931 107.391 113.94 108.457 110.191C108.607 109.663 108.814 108.973 108.918 108.656C109.022 108.339 109.107 107.923 109.107 107.731C109.106 107.539 109.186 107.165 109.283 106.9C109.898 105.228 109.904 97.8558 109.292 95.2687C109.19 94.8351 109.106 94.2979 109.106 94.0745C109.106 93.8516 109.02 93.3139 108.915 92.8803C107.843 88.4604 107.816 88.5405 110.555 87.9445C110.825 87.8858 111.109 87.7735 111.188 87.6946C111.267 87.6156 111.435 87.5513 111.562 87.5513C111.689 87.5513 112.008 87.4364 112.27 87.2954C112.532 87.1547 112.813 87.0399 112.895 87.0399C112.975 87.0399 113.207 86.9538 113.408 86.8487C113.61 86.7436 113.872 86.6571 113.991 86.6568C114.11 86.6564 114.238 86.6048 114.277 86.5423C114.316 86.4798 114.506 86.3908 114.701 86.3447C114.895 86.2983 115.571 86.0103 116.205 85.7046C116.838 85.3986 117.816 84.9287 118.379 84.6604C118.942 84.3918 119.641 84.0117 119.932 83.8153C120.224 83.6189 120.513 83.4584 120.575 83.4584C120.637 83.4584 120.993 83.2571 121.367 83.0109C121.741 82.7644 122.073 82.5631 122.105 82.5631C122.137 82.5631 122.232 82.5021 122.318 82.428C122.403 82.3536 122.904 81.978 123.431 81.5934C126.485 79.3677 128.814 76.6987 129.745 74.3578C130.409 72.6903 130.646 70.5316 130.293 69.3797C130.197 69.068 130.014 68.4679 129.885 68.0459C129.335 66.2337 127.263 63.4255 125.45 62.0341C125.267 61.8934 124.551 61.342 123.858 60.8088C123.166 60.2757 121.88 59.4175 121.001 58.9016C120.122 58.386 119.373 57.9232 119.338 57.8738C119.303 57.8245 119.131 57.7403 118.955 57.6868C118.779 57.6333 117.937 57.2517 117.084 56.8383C116.232 56.4249 115.497 56.0866 115.453 56.0866C115.365 56.0866 113.25 55.2789 112.623 55.0058C111.965 54.7192 110.731 54.3268 109.423 53.9874C107.813 53.5699 107.817 53.5808 108.27 51.226C108.386 50.6282 108.556 49.6783 108.648 49.1156C108.74 48.5529 108.879 47.747 108.955 47.325C109.337 45.2194 109.412 44.2209 109.456 40.6738C109.49 37.9506 109.459 36.6883 109.351 36.325C109.267 36.0437 109.158 35.4683 109.107 35.0459C109.001 34.1584 108.294 31.4187 108.001 30.761C106.577 27.5671 104.694 25.4597 102.57 24.6841C100.865 24.0612 97.6045 23.7963 96.3153 24.1757ZM100.859 28.5395C102.414 29.2488 104.056 31.4644 104.324 33.2138C104.371 33.5179 104.487 33.9224 104.583 34.1124C104.679 34.3025 104.758 34.619 104.759 34.8158C104.759 35.0129 104.855 35.4615 104.971 35.8136C105.283 36.7594 105.282 44.1004 104.97 45.3822C104.853 45.8614 104.757 46.4739 104.757 46.7425C104.757 47.0115 104.675 47.5117 104.575 47.854C104.475 48.196 104.332 48.9367 104.257 49.4994C103.904 52.1684 103.739 52.4595 102.711 52.2309C102.394 52.1606 101.761 52.0278 101.303 51.9357C100.846 51.8437 100.31 51.7042 100.112 51.6252C99.914 51.5463 99.5769 51.4819 99.3629 51.4819C99.1489 51.4819 98.5915 51.3996 98.1242 51.299C96.9958 51.0562 94.2213 50.6936 90.5755 50.3135L89.1209 50.162L88.2993 49.1272C87.8477 48.5581 87.285 47.8046 87.049 47.453C86.8129 47.1013 86.4926 46.6696 86.3374 46.4937C86.1817 46.3179 85.7915 45.8285 85.4698 45.4065C85.148 44.9841 84.6796 44.4027 84.4286 44.1139C84.1776 43.8251 83.8285 43.3952 83.6527 43.1588C83.4768 42.9223 83.2464 42.6391 83.1409 42.5291C83.0354 42.4195 82.7102 42.0431 82.4184 41.6933C82.1266 41.3439 81.6649 40.8246 81.3929 40.5399C79.6607 38.7276 79.6626 38.7894 81.3073 37.3378C81.8584 36.851 82.3672 36.3905 82.4375 36.3142C82.5419 36.2012 83.1667 35.6957 83.971 35.0739C84.0421 35.0189 84.2943 34.8061 84.5318 34.6007C84.769 34.3953 85.2008 34.0675 85.4911 33.8726C85.7814 33.6773 86.3355 33.2819 86.7224 32.9934C87.7692 32.2134 90.0536 30.8845 91.6466 30.1287C92.4206 29.7617 93.1648 29.4014 93.3006 29.3281C93.5606 29.1882 93.7443 29.1295 95.2921 28.6899C97.2023 28.1478 99.8433 28.0763 100.859 28.5395ZM57.0819 28.5331C58.4602 28.8829 59.7906 29.2615 59.99 29.3607C60.0955 29.413 60.6425 29.6697 61.2052 29.9308C62.8625 30.6993 63.983 31.2825 64.5536 31.6739C64.8477 31.8752 65.1256 32.0401 65.1716 32.0401C65.2599 32.0401 66.661 32.9392 66.7692 33.0653C66.8043 33.1064 67.2357 33.4124 67.7284 33.7454C68.2208 34.0784 68.9114 34.582 69.2631 34.8644C69.6147 35.1469 70.1034 35.5337 70.3484 35.7238C70.5935 35.9138 70.9833 36.252 71.2149 36.4754C71.4465 36.6988 71.687 36.9 71.7491 36.9229C72.0301 37.0261 73.5479 38.5847 73.5479 38.7703C73.5479 38.9431 73.0503 39.5481 71.5015 41.2586C70.9145 41.9066 69.8366 43.1719 69.391 43.7353C69.1097 44.0915 68.7213 44.5389 68.5275 44.7301C68.3341 44.9216 68.1759 45.1173 68.1759 45.1652C68.1759 45.261 67.3109 46.3538 67.0737 46.5577C66.9918 46.628 66.7781 46.9232 66.5989 47.2139C66.4201 47.5042 66.1403 47.8877 65.9775 48.0658C65.8148 48.2439 65.5955 48.5177 65.49 48.6745C65.3845 48.8312 65.0852 49.2338 64.8248 49.569L64.3519 50.1788L63.2262 50.2615C62.607 50.3068 61.8416 50.3955 61.525 50.4587C61.2082 50.5215 60.4887 50.6091 59.926 50.6532C59.3634 50.6974 58.4206 50.8156 57.8309 50.9159C57.2413 51.0161 56.4856 51.0981 56.1519 51.0981C55.8178 51.0981 55.3378 51.1845 55.0852 51.29C54.8327 51.3955 54.398 51.4819 54.1189 51.4819C53.8398 51.4819 53.4492 51.5463 53.2513 51.6248C52.8895 51.7681 51.362 52.0955 50.5224 52.2096C49.8509 52.3005 49.681 52.0222 49.3739 50.3262C49.2276 49.5196 49.0487 48.572 48.9765 48.2203C48.9043 47.8686 48.7876 47.178 48.7176 46.6853C48.6477 46.1929 48.5384 45.6175 48.4752 45.4065C48.1142 44.2041 48.0349 37.9195 48.3562 35.9602C48.547 34.7967 48.7539 33.8984 48.862 33.7671C48.92 33.6968 49.0053 33.4087 49.0517 33.1274C49.1408 32.5901 49.1744 32.494 49.6399 31.4647C50.1816 30.2653 51.6732 28.7243 52.3062 28.7101C52.417 28.7078 52.6516 28.6233 52.8274 28.5226C53.2868 28.26 56.0318 28.2667 57.0819 28.5331ZM77.3169 42.3439C77.4837 42.5239 77.9847 43.0798 78.4299 43.5793C78.8755 44.0784 79.2978 44.5498 79.3689 44.6268C79.4868 44.7552 80.2444 45.6736 81.265 46.9266C81.488 47.2001 81.7278 47.4881 81.7981 47.5663C81.8685 47.6445 82.0963 47.939 82.3051 48.2203C82.5134 48.5016 82.7581 48.808 82.8487 48.9008C83.0537 49.1118 83.0544 49.2054 82.8532 49.4639C82.7102 49.6476 82.4431 49.6558 80.3271 49.5428C78.3326 49.4362 76.5465 49.45 71.1337 49.6143C70.3031 49.6394 70.3391 49.3314 71.3133 48.0751C71.797 47.4515 72.2329 46.9124 72.2823 46.8772C72.3313 46.842 72.6388 46.4679 72.9658 46.0459C74.0938 44.589 76.5237 42.0169 76.7718 42.0169C76.9049 42.0169 77.15 42.164 77.3169 42.3439ZM85.7983 54.0387C86.6528 54.2067 87.0946 54.5946 87.6928 55.7028C87.8256 55.949 88.1223 56.3904 88.3517 56.6838C88.581 56.9767 88.7688 57.2741 88.7688 57.3445C88.7688 57.4148 88.8167 57.4915 88.8754 57.5147C88.9338 57.5383 89.2312 57.9891 89.5358 58.5166C89.8407 59.0445 90.1273 59.5046 90.1725 59.5398C90.2182 59.575 90.4718 59.9779 90.7363 60.4355C91.4187 61.6155 91.3727 61.5376 92.1311 62.8014C92.5108 63.4348 92.8591 64.039 92.9048 64.1445C92.9508 64.25 93.0604 64.4495 93.1487 64.5875C93.8951 65.7533 94.5139 66.9183 94.5206 67.1716C94.5229 67.2539 94.5734 67.3399 94.6325 67.3635C94.692 67.3871 94.8214 67.5611 94.9205 67.75C95.093 68.08 96.4567 70.7883 96.5203 70.9271C96.5484 70.9888 96.2352 71.7026 95.512 73.2261C95.3616 73.5426 95.1678 73.8883 95.0814 73.9945C94.995 74.1008 94.6815 74.6765 94.3852 75.2736C94.0889 75.8711 93.7357 76.518 93.601 76.7114C93.4663 76.9048 93.1364 77.4806 92.8681 77.9905C92.0428 79.5585 91.9047 79.8107 91.8355 79.8769C91.7128 79.9943 91.2725 80.7018 90.9597 81.284C90.6574 81.847 90.122 82.6993 88.8328 84.669C88.4811 85.2066 88.1044 85.8015 87.9959 85.9912C86.7927 88.0923 86.9865 87.9991 83.4607 88.1742C79.752 88.3587 73.4738 88.3609 69.7913 88.1794L66.9607 88.0399L66.6711 87.6998C66.5121 87.5128 66.1492 86.9852 65.8649 86.5281C65.5806 86.0709 65.0067 85.2074 64.5895 84.6095C64.1724 84.0117 63.83 83.4554 63.8293 83.3731C63.8282 83.2911 63.784 83.2047 63.7313 83.1811C63.6082 83.1265 63.0597 82.3468 63.0597 82.2267C63.0597 82.1766 62.9778 82.0445 62.8779 81.9334C62.778 81.8227 62.546 81.4437 62.3627 81.092C61.9961 80.3887 61.7529 79.9753 61.6489 79.8769C61.5456 79.78 60.6294 78.206 60.6294 78.126C60.6294 78.0874 60.433 77.7316 60.1928 77.3358C59.4827 76.1644 57.6229 72.5646 57.1403 71.4265C56.9779 71.0442 56.9738 70.9203 57.1145 70.6592C57.2069 70.4882 57.6095 69.6861 58.0094 68.8772C58.944 66.9864 59.5643 65.8068 60.1269 64.8479C60.3746 64.4259 60.7139 63.8217 60.8808 63.5052C61.0477 63.1887 61.3862 62.6129 61.6335 62.226C61.8808 61.8392 62.2131 61.281 62.3721 60.9858C62.6983 60.3809 63.8686 58.5342 64.0755 58.2985C64.1499 58.2132 64.2128 58.0983 64.2154 58.0426C64.2356 57.573 66.749 54.2321 67.153 54.1371C68.6682 53.7813 84.0732 53.7001 85.7983 54.0387ZM60.8853 55.1098C60.8853 55.2763 60.7802 55.5498 60.6518 55.7174C60.5235 55.8854 60.1116 56.5405 59.7367 57.1739C59.3619 57.8069 58.9844 58.4111 58.8983 58.5166C58.8123 58.6221 58.5234 59.1114 58.2571 59.6038C57.9903 60.0965 57.6252 60.7295 57.4456 61.0109C57.2656 61.2922 57.0453 61.6581 56.9559 61.8242C56.8664 61.99 56.6652 62.3641 56.5088 62.6555C54.6744 66.0717 54.6236 66.0967 53.7414 64.0166C53.6366 63.7704 53.4784 63.3963 53.389 63.1853C53.2995 62.9743 53.1009 62.4561 52.9479 62.0341C52.7945 61.6121 52.6257 61.1785 52.5726 61.0707C52.5195 60.963 52.4346 60.6854 52.3837 60.4546C52.3332 60.2233 52.2108 59.8799 52.1124 59.6913C52.0141 59.5024 51.9332 59.2809 51.9329 59.1986C51.9321 59.1163 51.8521 58.8862 51.7544 58.6868C51.0432 57.2378 51.0387 56.4466 51.7402 56.2977C52.0215 56.2382 52.3538 56.136 52.4783 56.0713C52.6029 56.0062 52.977 55.9217 53.3096 55.8835C53.6422 55.845 54.2599 55.7353 54.6819 55.6392C55.6954 55.4091 59.574 54.8685 60.5336 54.824C60.8228 54.8105 60.8853 54.8614 60.8853 55.1098ZM94.0683 54.9381C95.9954 55.1555 98.4171 55.5561 100.216 55.9553C100.568 56.0335 101.173 56.1671 101.559 56.2524L102.263 56.4073L102.244 57.0904C102.234 57.466 102.162 57.8372 102.085 57.915C102.007 57.9928 101.943 58.1455 101.942 58.2547C101.942 58.3636 101.855 58.6191 101.749 58.8222C101.643 59.0254 101.322 59.8829 101.035 60.728C100.749 61.5732 100.47 62.3566 100.416 62.4692C99.8564 63.6357 99.385 64.7697 99.385 64.9493C99.385 65.5288 98.5933 65.6751 98.358 65.139C98.2877 64.9792 98.1189 64.6754 97.9835 64.4644C97.6988 64.0218 97.5439 63.7491 96.9427 62.6301C96.4728 61.755 96.4148 61.6566 95.9161 60.8829C95.7346 60.6016 95.3665 59.9686 95.0983 59.4762C94.8296 58.9835 94.5711 58.5518 94.524 58.5166C94.4768 58.4814 94.1338 57.9348 93.7615 57.3018C93.3896 56.6684 92.9773 56.0133 92.8457 55.8453C92.58 55.5075 92.5205 54.8075 92.7574 54.8075C92.8404 54.8075 93.4304 54.8663 94.0683 54.9381ZM46.945 57.909C47.0846 58.138 47.1987 58.4496 47.1991 58.6023C47.1991 58.7549 47.2829 59.0426 47.3854 59.242C47.4875 59.4411 47.6955 59.9491 47.8478 60.3715C48.0001 60.7935 48.1684 61.2271 48.2215 61.3349C48.2747 61.4426 48.3596 61.7198 48.4105 61.9511C48.461 62.1823 48.583 62.5257 48.6817 62.7143C48.7801 62.9028 48.8609 63.1797 48.8613 63.3297C48.8617 63.4794 48.9485 63.6732 49.054 63.7611C49.1595 63.8486 49.2459 64.0536 49.2459 64.2168C49.2459 64.3799 49.2953 64.5437 49.3551 64.5808C49.4154 64.6178 49.6212 65.0963 49.8123 65.6437C50.0035 66.191 50.2422 66.7915 50.3425 66.9782C50.4427 67.1649 50.525 67.4095 50.525 67.5218C50.525 67.634 50.5815 67.726 50.6504 67.726C50.7196 67.726 50.8139 67.8843 50.8599 68.0777C50.9063 68.2711 50.9863 68.487 51.0383 68.5574C51.6826 69.4302 52.139 71.1265 51.8689 71.6446C51.7638 71.8459 51.6773 72.1082 51.677 72.2271C51.6766 72.3461 51.6291 72.4726 51.5711 72.5081C51.5135 72.544 51.3028 72.9788 51.1031 73.4752C50.9036 73.9713 50.6915 74.3772 50.6324 74.3772C50.5733 74.3772 50.5232 74.4779 50.5205 74.601C50.5183 74.724 50.4049 75.0551 50.2691 75.3365C50.1333 75.6178 50.02 75.9392 50.0177 76.0507C50.0155 76.1618 49.9762 76.2901 49.9309 76.3354C49.8149 76.4514 49.247 77.8644 49.2466 78.0388C49.2463 78.1181 49.1595 78.2547 49.054 78.3422C48.9485 78.4298 48.8617 78.6239 48.8613 78.7736C48.8609 78.9232 48.7745 79.2106 48.6694 79.4118C48.5646 79.6135 48.4782 79.8724 48.4778 79.9876C48.4771 80.1025 48.4026 80.3408 48.3121 80.5166C48.2215 80.6925 48.0176 81.2391 47.859 81.7318C47.7004 82.2241 47.495 82.7707 47.4026 82.9469C47.3106 83.1228 47.1972 83.4651 47.1512 83.7075C46.9806 84.6092 46.4617 84.9642 45.8227 84.6167C45.7007 84.5501 44.9098 84.2848 44.0658 84.027C42.6153 83.5837 42.1596 83.4195 41.2516 83.0109C41.0406 82.9163 40.35 82.6259 39.7169 82.3663C34.2525 80.1238 29.491 76.4847 27.9257 73.354C27.7674 73.0371 27.6361 72.7128 27.6338 72.6331C27.6316 72.553 27.5437 72.3229 27.4389 72.1213C27.1879 71.6405 27.1909 70.2619 27.4438 69.664C28.5082 67.1499 30.2467 65.222 33.1297 63.36C33.6572 63.0192 34.1683 62.6731 34.2652 62.5908C34.3621 62.5085 35.0479 62.1333 35.7886 61.7569C36.5294 61.3801 37.1983 61.024 37.275 60.9649C37.3517 60.9061 37.9327 60.6431 38.5658 60.3809C39.7046 59.9091 40.4038 59.6049 40.8345 59.3932C41.4237 59.1036 43.9782 58.2611 44.2663 58.2611C44.3939 58.2611 44.5308 58.2083 44.5705 58.1443C44.6101 58.08 44.887 57.9865 45.1855 57.9363C45.4841 57.8862 45.8421 57.7661 45.9809 57.6692C46.382 57.3897 46.6723 57.4619 46.945 57.909ZM107.413 57.7335C107.535 57.7949 107.952 57.9348 108.339 58.0441C110.6 58.6827 111.819 59.1178 113.113 59.7475C113.313 59.8444 113.531 59.9237 113.6 59.9237C113.919 59.9237 117.756 61.8089 118.692 62.4251C119.059 62.6671 119.386 62.8654 119.416 62.8654C119.574 62.8654 121.247 64.054 122.462 65.0279C123.596 65.937 125.036 67.6127 125.44 68.4934C125.618 68.8802 125.843 69.3497 125.94 69.5364C126.195 70.0247 126.184 72.116 125.925 72.3304C125.82 72.4183 125.733 72.6001 125.733 72.7352C125.733 72.9758 125.315 73.892 125.078 74.1711C125.011 74.2493 124.823 74.5007 124.659 74.73C123.804 75.9272 121.117 78.2348 119.375 79.2678C118.988 79.4975 118.519 79.78 118.333 79.8956C118.147 80.0116 117.103 80.5492 116.013 81.0902C114.922 81.6315 113.93 82.1269 113.808 82.1908C113.686 82.2548 113.525 82.3072 113.449 82.3072C113.331 82.3072 112.923 82.4707 111.856 82.9469C111.566 83.076 110.542 83.4685 109.873 83.7068C109.627 83.7947 109.166 83.9253 108.85 83.9967C108.533 84.0686 108.217 84.1718 108.147 84.2257C107.417 84.7869 106.794 84.4528 106.434 83.3083C106.162 82.44 106.047 82.1381 105.664 81.284C105.585 81.1081 105.467 80.7916 105.402 80.5806C105.225 80.0104 104.897 79.089 104.74 78.7261C104.664 78.5498 104.526 78.2333 104.433 78.0223C104.34 77.8113 104.178 77.4372 104.074 77.191C103.968 76.9449 103.763 76.4626 103.616 76.1195C103.47 75.7765 103.35 75.3949 103.35 75.2718C103.35 75.1487 103.264 74.9762 103.158 74.8887C103.053 74.8011 102.966 74.6642 102.966 74.5845C102.966 74.5048 102.68 73.8643 102.33 73.1613C101.979 72.4584 101.691 71.7816 101.69 71.6573C101.688 71.5331 101.618 71.321 101.534 71.1856C101.419 71.003 101.416 70.8631 101.52 70.6438C101.598 70.4811 101.789 70.0314 101.946 69.6446C102.102 69.2577 102.404 68.5671 102.616 68.1095C102.827 67.6523 103.075 67.1057 103.166 66.8947C103.257 66.6834 103.422 66.3006 103.533 66.044C103.643 65.787 103.734 65.4959 103.734 65.3967C103.734 65.2976 103.818 65.1049 103.922 64.9684C104.025 64.8318 104.111 64.6403 104.114 64.5422C104.116 64.4446 104.24 64.0993 104.391 63.7749C104.797 62.8968 104.852 62.7584 105.194 61.7142C105.366 61.1867 105.631 60.4385 105.782 60.0516C105.933 59.6648 106.112 59.1466 106.181 58.9004C106.492 57.7829 106.846 57.4473 107.413 57.7335ZM75.4028 61.3831C75.3321 61.4093 74.9296 61.5279 74.5072 61.6465C73.7002 61.8729 73.662 61.8875 72.4914 62.4011C67.7565 64.4801 65.8612 70.5346 68.3446 75.6478C68.9043 76.8004 71.4828 79.3654 72.0821 79.3654C72.173 79.3654 72.2733 79.4373 72.3047 79.5252C72.4005 79.7931 72.5292 79.5581 72.6467 78.9019C72.708 78.5588 72.8244 77.906 72.9048 77.451C72.9852 76.9965 73.0971 76.5647 73.154 76.4918C73.2105 76.4192 73.2924 76.0874 73.3358 75.7548C73.3788 75.4222 73.4705 75.048 73.5386 74.9235C73.7268 74.5808 73.9782 73.1086 73.9598 72.4583C73.9509 72.1418 73.9265 71.4512 73.9056 70.9237C73.8409 69.2772 74.5996 68.2012 75.8387 68.1825C77.4616 68.1578 77.7434 69.8122 76.606 72.6884C75.7145 74.9433 78.4007 75.7828 79.8299 73.6956C81.1774 71.7277 81.005 68.2509 79.5074 67.1955C75.8694 64.6309 70.5504 68.6498 72.6526 72.3749C73.3485 73.608 72.5703 75.2927 71.7574 74.3133C71.6698 74.2078 71.5445 74.1213 71.4794 74.1213C71.2942 74.1213 70.4797 73.1849 70.4782 72.9702C70.4775 72.8647 70.3825 72.6058 70.2672 72.3944C69.4673 70.9293 70.268 67.8948 71.864 66.3425C72.6298 65.5976 73.6931 64.913 74.0874 64.9111C74.1776 64.9108 74.4241 64.8146 74.6351 64.6971C75.224 64.3698 78.6398 64.372 79.4359 64.7001C81.4607 65.5352 82.3365 66.3938 83.1955 68.3849C83.472 69.0258 83.4783 71.7602 83.2048 72.4142C83.0993 72.6667 83.0122 72.9672 83.0114 73.0816C83.0032 74.103 81.2059 76.1154 79.7374 76.7469C78.8725 77.1192 77.3225 77.0698 76.5697 76.6463C75.7919 76.2089 75.5944 76.2033 75.5944 76.6194C75.5944 76.7978 75.5173 77.1286 75.4227 77.3549C75.3284 77.5812 75.209 77.9894 75.1582 78.2621C75.1073 78.5345 75.0156 78.851 74.9546 78.9655C74.264 80.2607 74.3725 80.4358 75.936 80.5507C78.1459 80.713 80.9522 80.0258 82.0746 79.0474C82.1562 78.976 82.5067 78.7163 82.8535 78.4702C83.2003 78.224 83.662 77.7922 83.8798 77.5109C84.0971 77.2296 84.3927 76.8738 84.5363 76.72C84.8678 76.3657 85.5106 75.1824 85.6782 74.6178C85.7485 74.3799 85.8656 74.0125 85.9382 73.8015C86.7676 71.3906 86.6382 69.6928 85.4017 66.7668C84.7047 65.1176 81.7053 62.226 80.6922 62.226C80.641 62.226 80.4374 62.1594 80.2395 62.0783C78.8096 61.4913 78.5593 61.437 77.0654 61.3869C76.2214 61.3588 75.4732 61.3573 75.4028 61.3831ZM99.3408 76.9033C99.4501 77.1671 99.6719 77.6707 99.8339 78.0223C100.491 79.4485 100.664 79.8716 100.664 80.0542C100.664 80.1597 100.717 80.2783 100.782 80.3187C100.847 80.3587 100.939 80.5697 100.987 80.7871C101.063 81.1309 101.238 81.5911 101.687 82.6271C101.894 83.1052 102.583 85.1966 102.583 85.3484C102.583 85.5654 101.639 86.0166 101.185 86.0166C100.974 86.0166 100.554 86.0982 100.253 86.1977C99.7086 86.378 99.3244 86.4502 96.3793 86.9261C94.2845 87.2651 92.6683 87.3717 92.5493 87.1794C92.4622 87.0384 93.9531 84.3402 94.1697 84.247C94.2243 84.2238 94.2688 84.1569 94.2688 84.0985C94.2688 84.0401 94.4701 83.6866 94.7163 83.3125C94.9628 82.9387 95.1641 82.5822 95.1641 82.5204C95.1641 82.4587 95.3369 82.1523 95.548 81.8399C95.759 81.5271 95.9314 81.2477 95.9314 81.2192C95.9314 81.1908 96.0725 80.96 96.2442 80.7063C96.4163 80.453 96.7369 79.8892 96.9565 79.4537C97.4552 78.4649 98.1219 77.2756 98.2252 77.191C98.2678 77.1559 98.3726 76.9688 98.4575 76.7754C98.688 76.2505 99.095 76.3096 99.3408 76.9033ZM55.2783 77.2932C55.4728 77.6654 55.74 78.1256 55.872 78.316C56.0041 78.5061 56.1979 78.8346 56.3026 79.0456C56.7441 79.936 57.2323 80.8406 57.3038 80.9001C57.41 80.9888 58.1927 82.284 58.3394 82.6136C58.4052 82.7617 58.5586 83.036 58.681 83.2234C58.8684 83.5107 59.7334 84.9148 60.2833 85.8243C60.3683 85.9646 60.5875 86.2811 60.7708 86.5277C60.9541 86.7742 61.0787 87.0477 61.048 87.1356C60.977 87.3388 59.1194 87.3508 57.9436 87.1558C57.4864 87.0799 56.5653 86.9377 55.8971 86.8401C54.6034 86.6508 53.2472 86.3986 51.9957 86.1147L51.2284 85.9407L51.2381 85.3069C51.2471 84.73 51.3986 84.1468 51.6934 83.556C51.8274 83.287 52.0758 82.6009 52.5621 81.156C52.9307 80.0602 53.6692 78.2592 53.8473 78.0223C53.9 77.952 53.9838 77.7219 54.0336 77.5109C54.297 76.3904 54.7642 76.3088 55.2783 77.2932ZM103.97 90.2839C104.067 90.4856 104.201 91.0322 104.269 91.4991C104.337 91.966 104.475 92.6068 104.576 92.9233C104.676 93.2399 104.758 93.6869 104.758 93.9166C104.757 94.1464 104.84 94.6645 104.94 95.0678C105.807 98.5367 105.616 105.4 104.568 108.4C104.482 108.646 104.279 109.251 104.117 109.743C103.749 110.859 103.166 111.751 102.135 112.774C101.753 113.153 100.722 113.644 100.31 113.644C100.111 113.644 99.8863 113.706 99.8111 113.781C99.6547 113.937 97.597 113.872 96.3793 113.673C94.9625 113.441 94.1787 113.171 92.1311 112.214C91.5534 111.944 90.9372 111.669 90.7621 111.602C90.5874 111.535 90.1965 111.321 89.8942 111.126C89.1194 110.627 88.8608 110.47 88.6409 110.367C88.4444 110.275 87.144 109.444 86.9143 109.263C86.8439 109.208 86.6479 109.049 86.4788 108.909C86.3097 108.77 86.1267 108.656 86.0725 108.656C86.0179 108.656 85.897 108.582 85.8042 108.493C85.7111 108.403 85.0025 107.842 84.2296 107.246C83.4566 106.649 82.6328 105.989 82.3993 105.778C82.1659 105.567 81.6118 105.078 81.1685 104.691C79.8183 103.513 79.8156 103.566 81.2953 101.927C81.7828 101.387 82.2665 100.824 82.3705 100.676C82.4742 100.527 82.6792 100.291 82.8258 100.15C82.9721 100.009 83.4308 99.4627 83.845 98.9352C84.2595 98.4073 84.6351 97.9471 84.68 97.9119C84.7709 97.8408 86.0347 96.1741 86.7022 95.2452C86.9371 94.9178 87.2401 94.5063 87.3752 94.3304C87.5099 94.1546 87.8488 93.694 88.1279 93.3072C89.1796 91.85 88.4272 92.0857 94.0769 91.4426C95.9816 91.2259 96.9539 91.089 98.4897 90.8208C100.568 90.4582 101.114 90.3497 101.551 90.2132C102.077 90.0486 103.186 89.8739 103.541 89.8993C103.684 89.9098 103.872 90.0778 103.97 90.2839ZM51.2284 90.2259C51.5801 90.3019 52.1558 90.4257 52.5075 90.5013C54.5843 90.9472 57.1467 91.2989 62.4039 91.8601L64.4978 92.0834L66.3602 94.5179C68.3872 97.1682 69.4281 98.4585 70.4109 99.5409C70.7603 99.9262 71.1752 100.416 71.332 100.628C71.4891 100.841 71.9235 101.339 72.2976 101.734C74.0732 103.61 74.0829 103.513 71.9493 105.306C71.3159 105.838 70.7693 106.314 70.7341 106.364C70.699 106.414 70.3536 106.689 69.9668 106.976C69.5796 107.263 69.1202 107.622 68.9454 107.774C68.7707 107.926 68.2238 108.314 67.7303 108.636C67.2368 108.958 66.8043 109.252 66.7692 109.29C66.6618 109.406 65.8877 109.935 65.8256 109.935C65.7934 109.935 65.3161 110.202 64.765 110.529C63.1039 111.512 62.1887 111.981 61.9299 111.981C61.7948 111.981 61.6126 112.068 61.525 112.173C61.4371 112.279 61.2609 112.365 61.133 112.365C61.005 112.365 60.87 112.415 60.8329 112.474C60.7652 112.584 59.8946 112.912 58.5882 113.321C56.5249 113.966 53.3272 113.966 52.0402 113.321C50.9149 112.758 49.4487 110.707 49.1191 109.237C49.0409 108.888 48.9249 108.54 48.8613 108.463C48.7981 108.387 48.6832 107.982 48.6069 107.562C48.5302 107.144 48.415 106.542 48.3502 106.226C48.0061 104.538 48.0861 98.3175 48.4752 96.5048C48.5433 96.1883 48.6555 95.5838 48.7247 95.1617C48.7943 94.7397 48.9144 94.0491 48.9922 93.6271C49.5856 90.4092 49.6567 90.156 49.9941 90.0688C50.2197 90.0104 50.2486 90.0142 51.2284 90.2259ZM83.1603 92.6356C83.2785 92.7539 81.9706 94.6713 81.4809 95.0978C81.4408 95.1329 81.2107 95.4206 80.9698 95.7375C80.7292 96.054 80.3278 96.5471 80.0779 96.833C79.828 97.1192 79.4 97.622 79.1269 97.9508C78.2095 99.0556 76.9977 100.342 76.875 100.342C76.6793 100.342 73.09 96.2736 71.8213 94.6133C71.751 94.5212 71.604 94.348 71.4944 94.2283C70.6533 93.3076 70.2968 92.6214 70.6062 92.5185C70.9833 92.3928 83.0297 92.5055 83.1603 92.6356Z" fill="#00BCD4"/>
</svg>
