<svg width="154" height="142" viewBox="0 0 154 142" fill="none" xmlns="http://www.w3.org/2000/svg">
<rect width="154" height="142" rx="6" fill="#00BCD4" fill-opacity="0.25"/>
<path d="M76.244 14.6238C74.4082 15.1337 71.4507 18.2442 71.4507 19.57C71.4507 20.08 71.8586 19.723 72.3176 18.7032C73.4394 16.4595 75.7341 15.0827 78.4876 15.0827C81.5982 15.0827 84.1988 17.5303 84.5557 20.7429C84.8617 23.3945 83.8419 25.8931 82.1081 26.862C81.5472 27.1679 81.1902 27.5249 81.3432 27.6778C81.9041 28.2898 84.0458 26.301 84.9127 24.3633C86.1365 21.7117 85.6776 19.2131 83.6379 16.8674C82.3631 15.4397 79.3035 13.9099 78.0797 14.1139C77.9267 14.1139 77.1108 14.3688 76.244 14.6238Z" fill="#00BCD4"/>
<path d="M75.5299 16.2045C73.7962 17.1224 71.9604 20.029 71.9604 21.8647C71.9604 22.9355 72.5214 23.9554 73.9492 25.3322C75.6319 27.0149 76.2438 27.3209 78.1815 27.3209C79.9153 27.3209 80.7312 27.0149 82.057 25.8421C83.4847 24.5163 83.6887 24.0064 83.6887 21.7627C83.6887 19.672 83.4338 18.8561 82.3119 17.6323C80.6802 15.7966 77.5696 15.1337 75.5299 16.2045ZM79.0994 17.4793C80.3232 18.4992 80.4762 19.927 79.3544 19.4681C78.2325 19.0601 78.4365 20.3349 79.6093 21.3548C80.9351 22.4766 80.8841 23.4455 79.5073 25.2812C78.3345 26.913 77.5696 27.2189 77.5696 26.1481C77.5696 25.7911 77.1107 25.1282 76.5498 24.6183C75.4789 23.7514 75.173 22.2216 76.0398 22.2216C76.2948 22.2216 76.7537 22.6296 77.0087 23.0885C77.5186 23.9554 77.5186 23.9554 77.5696 23.0375C77.5696 22.4766 77.1107 21.5587 76.5498 20.9468C75.5299 19.876 75.5299 19.876 76.7027 18.2442C77.3147 17.3774 77.8756 16.6125 77.9266 16.6125C78.0286 16.6125 78.5385 17.0204 79.0994 17.4793ZM75.224 18.3972C74.765 19.1111 74.5611 20.08 74.765 20.6409C74.918 21.2018 74.867 22.1197 74.5611 22.6296C74.1531 23.3945 74.2551 23.8534 75.071 24.7203C75.6829 25.3322 76.0398 25.9951 75.8869 26.0971C75.4279 26.556 72.9803 22.9355 72.9803 21.7627C72.9803 20.5899 73.6942 18.9581 74.714 17.8363C75.6829 16.6635 76.0908 17.0714 75.224 18.3972ZM82.7199 21.5587C82.6689 23.2415 82.3119 24.3123 81.598 25.0262L80.5782 26.0461L81.1901 24.6693C81.547 23.8534 81.649 22.7316 81.3941 21.8647C81.1901 21.0998 80.9861 19.672 80.8841 18.7542L80.7821 17.0714L81.802 18.0913C82.5669 18.8561 82.8218 19.672 82.7199 21.5587Z" fill="#00BCD4"/>
<path d="M78.5896 23.2415C78.5896 23.4965 78.8446 23.7514 79.0995 23.7514C79.4055 23.7514 79.6094 23.4965 79.6094 23.2415C79.6094 22.9356 79.4055 22.7316 79.0995 22.7316C78.8446 22.7316 78.5896 22.9356 78.5896 23.2415Z" fill="#00BCD4"/>
<path d="M71.043 21.7117C71.043 22.4256 71.145 22.6806 71.2979 22.3236C71.3999 22.0177 71.3999 21.4057 71.2979 21.0488C71.145 20.7428 71.043 20.9978 71.043 21.7117Z" fill="#00BCD4"/>
<path d="M71.4507 23.3945C71.4507 24.2613 72.6236 26.0971 73.8474 27.1169L75.1222 28.1878L72.0117 28.8507C70.2779 29.2076 68.9011 29.5136 68.9011 29.5645C68.9521 29.5645 69.3601 31.0943 69.87 32.9301L70.7878 36.2446L71.1448 34.2559C71.3998 33.032 71.2978 32.0632 70.9918 31.7572C70.6859 31.4513 70.4309 31.0433 70.4309 30.8394C70.4309 30.4314 80.9353 30.8394 82.975 31.4003C83.8419 31.6042 84.8618 31.6042 85.2187 31.4003C86.4425 30.6354 81.5982 29.7175 76.346 29.6665C71.7567 29.6155 71.5017 29.5645 73.3375 29.0546C76.55 28.0858 85.1677 29.0546 86.0346 30.4314C86.1876 30.6864 86.6465 30.8904 87.1054 30.8904C87.5134 30.8904 89.757 31.7572 92.0517 32.8281C97.6609 35.4797 101.536 39.1001 103.831 43.8424C107.91 52.3072 106.228 60.058 98.8337 67.35L95.2132 70.8684L95.3152 75.2028C95.3662 77.5994 95.5702 80.2001 95.6722 80.9649C95.9781 82.6477 95.1112 83.2086 91.8987 83.1576C89.3491 83.1576 89.1961 82.9537 88.0233 78.7213C87.2584 75.8657 86.0346 73.979 85.2697 74.4379C85.0657 74.5909 84.0459 74.7439 83.026 74.8459C82.0062 74.8968 81.3433 75.1518 81.4963 75.4068C81.6492 75.6617 82.7711 75.7637 83.9439 75.6617L86.0856 75.4068L87.0544 79.2822C87.5644 81.4239 88.1763 83.4636 88.4312 83.7695C88.7372 84.1775 90.216 84.4324 92.4086 84.4324C95.4172 84.4324 95.9781 84.2795 96.4371 83.3616C96.998 82.3927 96.896 78.2114 96.1311 72.2452C95.9271 70.6645 96.0291 70.1545 96.4371 70.4095C97.3549 70.9704 103.168 64.6984 104.749 61.4348C111.276 48.1768 102.964 33.9499 85.9836 29.3606C83.7399 28.7487 80.6294 28.1878 79.0486 28.1368C75.7341 27.9838 73.8984 27.0149 72.4706 24.6183C71.9097 23.7004 71.4507 23.1905 71.4507 23.3945Z" fill="#00BCD4"/>
<path d="M61.6092 25.6891C60.4363 26.964 58.3456 31.9102 57.9377 34.2559C57.7847 35.3777 57.4788 36.8055 57.3768 37.5194C57.2238 38.2333 57.2748 38.6412 57.4788 38.3863C57.6827 38.1823 58.2437 38.3863 58.7536 38.8452C59.6715 39.6611 64.1588 40.018 66.1475 39.3551C66.7084 39.2021 67.5753 38.3353 68.0852 37.4684C68.7991 36.2446 69.156 36.0406 69.462 36.5505C70.6858 38.4883 68.5441 31.0943 67.0144 28.0858C65.2806 24.7203 63.2919 23.8024 61.6092 25.6891ZM65.7905 28.3917C66.3005 29.9215 66.3005 29.9725 65.4846 29.2586C64.2098 28.1878 62.884 27.7798 62.527 28.3408C62.1701 28.9527 61.2522 29.0037 61.2522 28.4427C61.2522 28.1878 61.7111 27.5249 62.2721 26.913C63.5979 25.4852 64.9747 26.0971 65.7905 28.3917ZM65.6886 31.9102C66.3005 33.185 66.9124 34.9188 67.1163 35.7857C67.4223 37.2644 67.2693 37.4684 65.7905 37.9783C63.8528 38.6412 60.7423 38.6922 59.7734 38.0803C59.1615 37.6724 59.1105 37.1625 59.6715 34.7658C60.9463 29.1056 63.6999 27.7798 65.6886 31.9102Z" fill="#00BCD4"/>
<path d="M54.5212 37.9273C52.3795 40.324 50.3908 43.6385 49.5239 46.2901L48.912 48.2278H45.7505C41.2632 48.2278 40.8552 48.7377 40.8552 55.0098C40.8552 60.9249 41.2122 61.4858 45.2406 61.4858C47.9432 61.4858 47.9942 61.5368 47.9942 62.9646C47.9942 65.5142 51.1557 67.7579 58.3456 70.3585C60.6403 71.2254 60.7423 71.3274 60.7423 73.2141C60.7423 74.2849 60.4363 75.4068 59.9774 75.7637C59.3655 76.2736 59.3145 76.5796 59.8244 77.1405C60.1304 77.5485 60.3853 78.9762 60.2834 80.404C60.2324 81.8318 60.4363 83.2596 60.7423 83.7185C61.4562 84.5344 67.6263 84.7384 68.1362 83.9225C68.3402 83.6166 69.8189 84.4324 71.6037 85.8092C73.3374 87.084 75.0202 88.3589 75.3771 88.6138C75.7341 88.9198 76.244 88.5628 76.8559 87.543C77.5188 86.4211 78.1817 85.9622 79.1506 85.9622C81.0373 85.9622 82.3631 84.3305 82.0061 82.4437C81.7512 81.3729 82.0061 80.557 82.771 79.5372C83.9439 78.0584 84.0458 78.2624 81.1393 76.2736C80.5274 75.8657 79.7115 75.2538 79.4055 74.9988C79.0996 74.6929 77.8248 73.724 76.5499 72.8062C75.2751 71.9393 73.5924 70.6645 72.7255 70.0526C71.9096 69.4407 71.3997 69.1857 71.6037 69.4916C71.8076 69.8486 73.8473 71.4804 76.142 73.2141C78.4367 74.8968 80.7313 76.9365 81.2413 77.7014C82.0571 78.9253 82.0571 79.1292 81.3432 79.8941C80.8333 80.455 80.6803 81.2199 80.8843 81.8318C81.2922 83.2086 80.3234 84.9424 79.0486 84.9424C78.4877 84.9424 77.4678 85.5033 76.7539 86.2172L75.4791 87.492L72.5725 85.3503C70.9918 84.1265 69.564 83.0556 69.411 82.9027C69.258 82.7497 68.3402 82.2398 67.3713 81.7298C66.3515 81.2199 64.4647 79.8941 63.1389 78.7723L60.7423 76.7326L61.5072 74.8968C61.9151 73.928 62.1191 72.9081 61.9661 72.6532C61.8131 72.3982 62.1701 72.1942 62.731 72.1942C64.0568 72.1942 64.4647 71.4294 63.8018 70.1545C63.3939 69.3897 63.3939 69.1347 63.8528 69.1347C64.2098 69.1347 64.3627 68.9817 64.1588 68.8287C64.0058 68.6758 63.4959 68.7268 63.0369 68.9817C62.2721 69.4407 62.2721 69.5426 62.986 70.1036C64.0058 70.9704 64.0568 71.6843 63.0879 71.6843C62.731 71.6843 62.2721 71.1744 62.0681 70.5115C61.8131 69.6446 61.6601 69.5426 61.3032 70.1036C60.8953 70.7155 60.6913 70.7155 59.9774 70.0016C59.5185 69.4916 58.8046 69.1347 58.3966 69.1347C57.9887 69.1347 57.3768 68.5738 57.0708 67.8599C56.7649 67.146 56.3569 66.5851 56.153 66.5851C55.949 66.5851 54.7252 65.2083 53.4504 63.5765C51.3087 60.8229 50.9007 60.517 49.167 60.517C44.5777 60.517 44.7816 60.67 44.8836 56.2846C44.9346 54.0919 44.7307 51.8993 44.4247 51.2873C43.6598 49.8596 43.8638 49.7066 46.5154 49.4516C48.861 49.2476 50.3398 48.2278 50.7988 46.4941C51.4107 44.4034 53.2974 41.0379 54.9801 39.0492C57.3258 36.3466 56.8669 35.3267 54.5212 37.9273ZM43.6598 54.8568C43.6598 57.3554 43.4558 59.5991 43.1499 59.9051C42.7929 60.262 42.64 58.5793 42.64 54.8568C42.64 51.1344 42.7929 49.4516 43.1499 49.8086C43.4558 50.0635 43.6598 52.3582 43.6598 54.8568ZM41.9771 55.4687C41.5181 56.4886 41.4161 56.3866 41.4161 54.3469C41.4161 52.3072 41.5181 52.2052 41.9771 53.1741C42.385 54.0409 42.385 54.6528 41.9771 55.4687ZM51.3597 61.9958C51.7166 61.9958 51.9206 62.3017 51.7676 62.6587C51.6656 63.0156 52.7365 64.6474 54.2152 66.3301L56.9178 69.3387L53.6033 67.5029C51.7676 66.4831 49.8809 65.0553 49.32 64.3924C48.2491 62.9136 48.5551 61.1799 49.8299 61.6898C50.2888 61.8428 50.9517 61.9958 51.3597 61.9958ZM65.4846 81.1179C66.8104 82.0358 67.7283 82.9537 67.5243 83.0556C67.2183 83.2596 63.6998 83.1576 61.6601 82.9537C61.4052 82.9027 61.2522 81.8828 61.2522 80.608C61.2522 77.9564 61.0992 77.9564 65.4846 81.1179Z" fill="#00BCD4"/>
<path d="M54.98 44.0464C53.2462 45.9331 54.4701 49.7576 56.7137 49.7576C57.9375 49.7576 59.7223 47.7689 59.7223 46.4431C59.7223 44.9643 58.0905 43.1285 56.7647 43.1285C56.2038 43.1285 55.4389 43.5365 54.98 44.0464ZM58.6004 46.596C58.4985 47.6669 58.1415 48.0238 57.0707 48.1258C55.082 48.3808 54.2151 46.596 55.6429 45.1682C57.0707 43.7405 58.8554 44.6073 58.6004 46.596Z" fill="#00BCD4"/>
<path d="M106.508 49.6301C109.811 49.663 108.919 50.346 108.246 51.7581C107.365 53.5363 107.779 55.3668 109.074 55.3668C110.525 55.3668 111.354 54.0593 110.939 52.2811C110.473 50.0322 110.473 49.9276 111.82 49.5615C112.493 49.3523 109.568 49.8213 109.568 49.8213L108.229 49.4389L106.508 49.6301ZM110.162 52.7518C110.162 53.7978 109.903 54.3208 109.385 54.3208C108.556 54.3208 108.401 53.4317 108.919 52.0196C109.437 50.6598 110.162 51.0782 110.162 52.7518Z" fill="#00BCD4"/>
<path d="M64.6306 67.7961C63.6617 69.3259 64.0697 69.4279 65.1915 67.9491C65.7014 67.2862 67.5116 66.2664 67.3077 66.2664C67.0527 66.2664 64.9875 67.1842 64.6306 67.7961Z" fill="#00BCD4"/>
<path d="M67.6392 66.7763C68.0471 67.0823 68.863 67.5922 69.4239 67.8981C70.028 68.2304 71.5872 69.5424 71.7058 69.5172C71.7874 69.4998 71.0133 68.5898 69.4749 67.3372C68.914 66.7763 68.1491 66.2664 67.6902 66.2664C67.3643 66.2664 67.1872 66.2876 67.154 66.3495C67.1144 66.4232 67.2788 66.5546 67.6392 66.7763Z" fill="#00BCD4"/>
<path d="M66.5555 73.2651C65.6377 74.2849 65.0767 77.2935 65.7906 77.2935C65.9946 77.2935 66.4535 77.8544 66.8615 78.5173C67.2184 79.2312 68.0853 79.8941 68.7992 80.0981C69.5641 80.302 70.431 80.863 70.8389 81.4239C71.8587 82.8517 75.8362 82.8007 77.009 81.3219C77.7739 80.404 77.8249 79.9451 77.3149 78.5683C76.652 76.5286 75.6322 75.2538 74.7143 75.2538C74.3574 75.2538 73.3375 74.5909 72.4197 73.775C70.4819 71.9903 67.8813 71.7863 66.5555 73.2651ZM71.3488 73.673C72.5726 73.724 71.7058 74.9988 70.431 74.9988C68.9522 74.9988 67.8813 76.4776 68.7992 77.3955C69.2581 77.8544 69.819 77.7524 71.4508 76.8346C73.9494 75.4578 75.4792 75.7637 75.8871 77.8544C76.0401 78.6703 76.3461 79.3332 76.601 79.3332C76.856 79.3332 77.06 79.5882 77.06 79.8941C77.06 80.2001 76.601 80.353 76.0401 80.2001C75.4792 80.0471 75.0203 80.1491 75.0203 80.404C75.0203 80.659 75.2752 80.863 75.6322 80.863C75.9891 80.863 76.0401 81.0159 75.7852 81.3219C75.1733 81.8828 71.4508 81.4239 71.4508 80.812C71.4508 80.557 71.8587 80.353 72.3687 80.353C73.5415 80.353 74.5103 79.3842 74.5103 78.2114C74.5103 76.9875 73.2355 77.0385 71.3488 78.3643C70.125 79.2822 69.6151 79.3842 68.5952 78.8743C67.9323 78.5683 67.3714 77.9054 67.3714 77.3445C67.3714 76.7836 67.1674 76.1717 66.8615 76.0187C66.6065 75.8657 66.3516 75.3558 66.3516 74.8968C66.3516 74.2339 66.4535 74.2339 67.1674 74.7949C67.9323 75.4068 67.9833 75.3558 67.6774 74.4379C67.3714 73.4181 67.5244 73.3671 69.0032 73.4691C69.921 73.571 70.9919 73.673 71.3488 73.673Z" fill="#00BCD4"/>
<path d="M24.219 107.481C22.4852 108.45 21.4144 110.133 21.4144 112.07C21.4144 114.365 22.9442 115.742 26.8706 116.864C29.2162 117.527 29.6242 117.832 29.4712 118.75C29.3692 119.668 28.9103 119.923 27.2785 120.025C25.8507 120.178 25.0858 119.974 24.6269 119.311C24.066 118.597 23.811 118.546 22.4342 119.107C20.5475 119.923 20.4965 120.229 22.4342 121.861C26.5646 125.328 33.4486 123.034 33.2956 118.24C33.2446 115.997 31.9698 114.773 28.9103 114.008C24.8309 112.937 23.709 111.917 25.0858 110.541C25.9527 109.674 28.8083 109.776 29.5732 110.694C30.0831 111.356 30.3381 111.305 31.4089 110.541C32.9897 109.368 32.9387 109.062 31.001 107.889C29.1652 106.767 25.8507 106.563 24.219 107.481Z" fill="#00BCD4"/>
<path d="M92.8677 115.028V123.187H97.508C101.944 123.187 102.199 123.136 103.627 121.708C105.412 119.923 105.616 117.323 104.137 115.487C103.27 114.365 103.27 114.11 103.882 113.243C105.004 111.713 104.749 109.98 103.117 108.348C101.689 106.92 101.383 106.869 97.253 106.869H92.8677V115.028ZM102.199 109.317C103.117 110.133 102.301 111.892 101.536 113.116C101.23 113.626 102.212 114.811 102.875 115.984C104.15 118.075 104.341 119.158 103.168 120.637C102.403 121.606 101.587 121.861 98.3239 122.065L94.3974 122.32L94.3465 119.923C94.3465 118.648 94.3465 116.558 94.3465 115.283C94.3465 114.008 94.3465 111.968 94.3465 110.745L94.3974 108.45L96.5901 108.297C99.4967 108.093 101.128 108.399 102.199 109.317Z" fill="#00BCD4"/>
<path d="M94.2699 108.335C93.25 109.355 93.1481 114.225 94.2699 114.837C97.8904 116.774 105.386 111.943 102.684 109.291C101.766 108.322 95.1878 107.417 94.2699 108.335ZM100.925 110.388C101.332 110.643 101.536 111.254 101.434 111.764C101.332 112.529 100.721 112.784 98.8339 112.886C96.4882 113.039 96.4372 113.039 96.4372 111.509C96.4372 110.031 96.5392 109.929 98.3749 109.929C99.3948 109.929 100.568 110.133 100.925 110.388Z" fill="#00BCD4"/>
<path d="M94.27 114.837C93.7601 115.296 93.5689 121.67 94.0788 122.486C94.7417 123.505 102.225 122.269 103.449 121.147C104.723 119.974 103.678 114.085 102.301 113.116C101.18 112.3 94.9329 114.174 94.27 114.837ZM101.74 117.17C102.709 118.699 101.536 119.872 98.7829 120.025L96.4372 120.178V118.087V115.997L98.7829 116.15C100.364 116.252 101.383 116.609 101.74 117.17Z" fill="#00BCD4"/>
<path d="M78.5893 110.643C78.5893 111.305 78.2324 111.968 77.8245 112.172C77.4165 112.325 77.0596 112.937 77.0596 113.498C77.0596 114.059 77.4165 114.518 77.8245 114.518C78.4364 114.518 78.5893 115.232 78.5893 117.781C78.5893 122.167 79.8132 123.799 82.8217 123.595C84.7084 123.442 84.9634 123.289 85.0654 122.065C85.1164 120.892 84.9634 120.688 83.5356 120.535C81.9039 120.382 81.9039 120.331 81.7509 117.425L81.5979 114.416L83.2807 114.62C84.7594 114.773 84.9634 114.62 85.0654 113.345C85.1674 112.07 85.0144 111.968 83.3316 111.968C81.6999 111.968 81.5469 111.866 81.7509 110.694C82.0058 109.521 81.8529 109.419 80.3231 109.419C78.8443 109.419 78.5893 109.572 78.5893 110.643Z" fill="#00BCD4"/>
<path d="M57.3768 111.968C55.3881 112.733 54.1133 114.977 54.1133 117.527C54.1133 120.229 55.0311 121.81 57.1728 122.932C59.0086 123.901 60.0794 123.901 61.9151 122.983C62.68 122.575 63.2919 122.422 63.2919 122.728C63.2919 122.983 63.9038 123.187 64.7197 123.187H66.0965V117.578V111.968H64.7197C63.9038 111.968 63.2919 112.223 63.2919 112.529C63.2919 112.784 62.782 112.682 62.1701 112.274C60.9463 111.407 59.0595 111.254 57.3768 111.968ZM62.1701 115.13C62.986 115.946 62.986 119.209 62.1701 120.025C61.3542 120.841 59.1105 120.79 57.9377 119.923C57.3768 119.515 57.0199 118.597 57.0199 117.578C57.0199 116.558 57.3768 115.64 57.9377 115.232C59.1105 114.365 61.3542 114.314 62.1701 115.13Z" fill="#00BCD4"/>
<path d="M72.4706 112.478C71.2468 113.702 70.9408 113.753 70.9408 112.733C70.9408 112.223 70.4309 111.968 69.564 111.968H68.1362V117.578V123.187H69.819H71.4507V119.668C71.4507 115.691 72.1136 114.518 74.5103 114.518C75.8361 114.518 76.499 113.6 76.55 111.815C76.55 111 73.4394 111.509 72.4706 112.478Z" fill="#00BCD4"/>
<path d="M119.384 111.815C119.384 111.866 120.455 114.11 121.78 116.762L124.126 121.555L122.8 124.716C122.035 126.45 121.423 127.878 121.423 127.98C121.423 128.031 122.188 127.98 123.157 127.878C124.84 127.674 124.942 127.521 128.053 120.484C129.837 116.507 131.469 113.039 131.724 112.784C132.489 111.866 132.132 111.662 130.194 111.866C128.358 112.07 128.205 112.223 127.033 115.13L125.809 118.189L124.432 115.13C123.208 112.325 122.902 112.07 121.22 111.866C120.2 111.764 119.384 111.713 119.384 111.815Z" fill="#00BCD4"/>
<path d="M35.2463 117.578V123.187H36.7761H38.3059V119.821C38.3059 116.048 38.9178 114.518 40.3966 114.518C41.7734 114.518 42.4873 116.66 42.2833 120.28L42.1303 123.187H43.8131H45.4448V119.158C45.4448 115.436 45.5468 115.079 46.5667 114.722C48.2494 114.212 49.0143 115.691 49.0143 119.719V123.187H50.5441H52.0739V118.903C52.0739 113.6 51.105 111.968 47.9945 111.968C46.9236 111.968 45.8018 112.274 45.4448 112.733C44.8839 113.396 44.6799 113.396 43.7621 112.733C42.4363 111.815 39.7847 111.713 38.9178 112.58C38.4589 113.039 38.3059 113.039 38.3059 112.58C38.3059 112.223 37.643 111.968 36.7761 111.968H35.2463V117.578Z" fill="#00BCD4"/>
<path d="M107.145 116.303C107.145 120.229 107.247 120.79 108.369 121.912C109.44 122.983 110.001 123.085 113.57 123.085H117.599V117.527V111.968H115.967H114.335L114.182 115.844C114.08 118.903 113.825 119.872 113.162 120.331C112.499 120.739 111.99 120.739 111.378 120.331C110.664 119.872 110.409 118.903 110.307 115.844L110.154 111.968H108.675H107.145V116.303Z" fill="#00BCD4"/>
</svg>
