<svg width="154" height="142" viewBox="0 0 154 142" fill="none" xmlns="http://www.w3.org/2000/svg">
<rect width="154" height="142" rx="6" fill="#00BCD4" fill-opacity="0.25"/>
<path fill-rule="evenodd" clip-rule="evenodd" d="M81.098 18.0899C80.7948 18.1496 79.4081 18.2197 78.0163 18.2459C75.9645 18.284 75.4142 18.3323 75.1082 18.5012C74.9007 18.6158 74.5714 18.7098 74.3768 18.7104C74.1818 18.7108 73.8988 18.7786 73.7479 18.861C73.5966 18.9437 73.1334 19.0832 72.7183 19.1715C71.4948 19.4316 70.4718 19.7387 70.2061 19.9252C70.0696 20.0212 69.8634 20.0998 69.748 20.0998C69.6322 20.0998 69.5071 20.1796 69.47 20.2771C69.4326 20.375 69.2285 20.493 69.0162 20.5397C68.804 20.5864 68.6304 20.677 68.6304 20.7411C68.6304 20.8049 68.5628 20.8572 68.4801 20.8572C68.054 20.8572 65.7144 22.9523 65.1666 23.824C65.0358 24.0323 64.7474 24.4303 64.5258 24.7084C64.3041 24.9864 64.0833 25.3699 64.0358 25.5605C63.988 25.7512 63.8987 25.9071 63.8371 25.9071C63.7751 25.9071 63.7248 26.0074 63.7248 26.1299C63.7248 26.2524 63.6116 26.5648 63.4733 26.8236C63.3349 27.0827 63.2217 27.3576 63.2217 27.434C63.2217 27.5107 63.1431 27.7522 63.0472 27.9712C62.2585 29.7686 61.9082 35.7239 62.5079 37.1429C62.6107 37.386 62.7346 37.8547 62.7837 38.1845C62.8327 38.5143 62.917 38.7841 62.9708 38.7841C63.0245 38.7841 63.1041 38.9265 63.1478 39.1004C63.1912 39.2743 63.4236 39.8329 63.6645 40.342C63.9053 40.8511 64.1022 41.3245 64.1022 41.3946C64.1022 41.4643 64.3144 41.7471 64.5739 42.023C64.8333 42.2988 65.2286 42.7281 65.4518 42.9764C65.8773 43.4495 67.103 44.2127 67.4373 44.2127C67.5445 44.2127 67.6618 44.291 67.6986 44.3866C67.7398 44.4942 68.0615 44.5924 68.5436 44.6441C70.6715 44.8727 70.7004 44.9162 71.1608 48.596C71.2743 49.504 71.2715 50.0033 71.1473 50.8684C71.0596 51.4778 70.952 52.3657 70.9077 52.8407C70.8092 53.898 70.5998 54.1157 69.7945 53.9971C69.3171 53.9267 69.2489 53.9491 69.1486 54.2101C68.9168 54.8129 68.6304 55.9236 68.6304 56.219C68.6304 56.6921 68.1628 57.4672 67.4521 58.172C67.0971 58.5242 66.6367 59.0276 66.4292 59.2905C66.2216 59.5535 65.9245 59.9073 65.7688 60.0767C65.6131 60.2465 65.4858 60.4293 65.4858 60.4829C65.4858 60.5369 65.1745 61.045 64.794 61.6122C64.4135 62.1794 64.1022 62.672 64.1022 62.7068C64.1022 62.7415 63.8975 63.2105 63.6475 63.7489C62.8101 65.5511 62.7186 65.7644 62.7186 65.9175C62.7186 66.0011 62.6494 66.194 62.5648 66.3455C62.4802 66.4973 62.3447 66.8486 62.2639 67.1263C61.7988 68.7211 61.4799 69.9795 61.4004 70.5349C61.3507 70.8821 61.2614 71.2574 61.2019 71.3688C61.1425 71.4802 61.0321 71.9609 60.9563 72.4371C60.8806 72.9131 60.7721 73.3616 60.7152 73.4339C60.6586 73.5058 60.5733 74.0477 60.5262 74.6379C60.4793 75.2281 60.363 76.2507 60.268 76.9103C59.7806 80.2991 59.5586 87.9862 59.9353 88.4423C60.1598 88.714 64.2871 88.7617 64.3839 88.4934C64.4154 88.4066 64.3864 87.5257 64.3198 86.5356C64.1688 84.2941 64.1302 84.3588 65.6194 84.3588H66.7282L67.3335 84.8667C68.2049 85.5983 68.1813 85.5818 68.5143 85.6838C68.6819 85.7352 68.9153 85.8621 69.0332 85.966C69.3615 86.2551 72.2608 86.2494 72.7026 85.9587C72.8793 85.8425 73.1007 85.7475 73.1944 85.7475C73.3664 85.7475 74.4406 84.9872 74.8444 84.5798C75.0217 84.4005 75.2868 84.3588 76.2446 84.3588C77.7452 84.3588 77.7056 84.2929 77.5735 86.5805C77.5091 87.6911 77.5169 88.3937 77.5946 88.4934C77.7739 88.7238 94.902 88.7238 95.2027 88.4934C95.3785 88.3586 95.414 87.9745 95.4467 85.8612C95.4926 82.9013 95.4627 82.9701 96.7036 82.9701C98.152 82.9701 98.3356 82.5747 97.8828 80.4307C97.7859 79.9715 97.6655 79.1244 97.6155 78.5481C97.5655 77.9721 97.4479 77.3538 97.3545 77.1739C97.2611 76.9943 97.1834 76.478 97.1819 76.0266C97.18 75.5753 97.0919 74.8084 96.986 74.3223C96.88 73.8363 96.7441 73.1829 96.6841 72.8705C96.5555 72.1985 96.2476 71.2994 95.9866 70.831C95.8838 70.6467 95.7995 70.4036 95.7995 70.291C95.7995 70.1783 95.6014 69.6837 95.3593 69.192C95.1171 68.7003 94.919 68.2499 94.919 68.1912C94.919 67.8484 92.8955 65.3096 92.1587 64.7276C91.8068 64.4499 91.3339 64.0522 91.1072 63.8439C90.8805 63.6356 90.4427 63.2951 90.1342 63.0868C89.8258 62.8788 89.5449 62.6742 89.5104 62.6323C89.4758 62.5903 89.3292 62.4937 89.1846 62.4173C89.0402 62.341 88.7572 62.1387 88.5557 61.9676C88.3544 61.7968 87.8824 61.4102 87.5069 61.1088C86.8092 60.5489 86.7177 60.3785 86.4381 59.1166C86.2944 58.4681 86.2504 58.4116 85.6573 58.1152C84.924 57.7485 84.8576 57.5957 84.4753 55.4022C83.9234 52.2381 84.3605 47.598 85.3158 46.4753C85.4089 46.3655 85.4853 46.2159 85.4853 46.1424C85.4853 46.0688 85.757 45.7182 86.0891 45.3631L86.6931 44.7177L88.8877 44.7161C92.1483 44.7133 91.9722 44.9127 91.6962 41.5335C91.2748 36.3754 91.1836 36.7276 92.9795 36.5777C94.509 36.4499 94.7033 36.0014 93.692 34.9336C92.7609 33.9508 92.2832 33.2893 92.199 32.8661C92.1562 32.6524 92.0433 32.4125 91.948 32.333C91.8524 32.2534 91.7741 32.1244 91.7738 32.0461C91.7732 31.9678 91.6936 31.7513 91.5968 31.5651C91.4999 31.3789 91.3808 31.038 91.332 30.8076C91.1254 29.8339 90.5761 28.2341 90.1987 27.5066C90.0968 27.31 90.0135 27.0647 90.0135 26.9619C90.0135 26.6062 88.9547 24.1999 88.7393 24.0664C88.6792 24.0292 88.6299 23.8922 88.6299 23.7625C88.6299 23.6328 88.5478 23.444 88.4475 23.3433C88.3472 23.2427 88.2277 23.0107 88.1818 22.8283C88.1362 22.6455 88.0478 22.4644 87.9852 22.4255C87.9227 22.3867 87.7859 22.1743 87.6812 21.9534C87.3988 21.3569 87.2158 21.0722 86.8919 20.7266C86.7318 20.5555 86.4931 20.245 86.3617 20.0366C86.2303 19.8283 85.9755 19.5443 85.796 19.4054C85.6164 19.2666 85.3598 19.0535 85.2259 18.932C85.0919 18.8105 84.9284 18.7111 84.8627 18.7111C84.797 18.7111 84.6979 18.635 84.6426 18.5422C84.3894 18.1168 82.3086 17.8513 81.098 18.0899ZM84.0388 18.753C84.2463 18.8679 84.4793 18.9623 84.5567 18.9629C84.751 18.9639 86.6173 20.8598 86.6173 21.0561C86.6173 21.1435 86.6645 21.2338 86.7221 21.2571C86.8136 21.2937 87.5786 22.5581 87.9365 23.2635C88.0047 23.3983 88.1038 23.5084 88.1566 23.5084C88.2094 23.5084 88.2544 23.5794 88.2566 23.6662C88.2585 23.753 88.3997 24.1081 88.5698 24.4552C88.7399 24.8024 88.8796 25.2143 88.8802 25.3705C88.8808 25.5268 88.9336 25.6546 88.9975 25.6546C89.0613 25.6546 89.1789 25.8534 89.2588 26.0964C89.3387 26.3395 89.4538 26.5383 89.5144 26.5383C89.5751 26.5383 89.6635 26.7513 89.7113 27.0117C89.7588 27.2721 89.8745 27.5972 89.9685 27.7342C90.0625 27.8711 90.1393 28.0747 90.1393 28.1864C90.1393 28.4812 90.6204 30.0754 90.8358 30.4936C90.9371 30.6902 91.0198 30.9399 91.0198 31.0481C91.0198 31.1564 91.126 31.4783 91.2562 31.7636C91.3864 32.0489 91.6263 32.5949 91.7895 32.9768C91.9528 33.3587 92.1213 33.6996 92.1644 33.7343C92.2075 33.769 92.3304 33.9698 92.438 34.1803C92.6288 34.5546 93.3577 35.2493 93.5596 35.2493C93.6156 35.2493 93.6612 35.421 93.6612 35.6312C93.6612 36.1125 93.3241 36.2592 92.2169 36.2592C90.9056 36.2592 90.9893 36.0733 91.0899 38.7696C91.138 40.0621 91.2194 41.1765 91.2704 41.2459C91.4886 41.542 91.5405 43.7248 91.3367 44.0369L91.1399 44.339H86.673C81.6455 44.339 82.0401 44.41 80.9043 43.3015C80.564 42.9695 80.2449 42.6978 80.1952 42.6978C80.0163 42.6978 76.4289 38.6093 76.4289 38.4054C76.4289 38.348 76.245 38.1008 76.0201 37.8562C75.2079 36.9728 75.0453 36.6859 75.0453 36.138C75.0453 35.8382 75.1179 35.7202 75.3598 35.628C75.5327 35.562 75.6742 35.456 75.6742 35.3922C75.6742 35.3288 75.8123 35.2417 75.9811 35.1994C76.3195 35.1142 77.722 33.8012 77.85 33.4503C77.8943 33.3287 77.982 33.2293 78.0449 33.2293C78.1078 33.2293 78.2298 33.0589 78.3157 32.8506C78.4015 32.6423 78.5216 32.4719 78.5826 32.4719C78.6433 32.4719 78.6933 32.3724 78.6936 32.2509C78.6943 32.1294 78.7782 31.8687 78.8807 31.6718C80.0266 29.4666 78.8701 24.4846 76.9321 23.2786C75.8333 22.5947 76.0016 21.8675 77.6235 20.2882C79.271 18.6836 82.513 17.9078 84.0388 18.753ZM77.8207 18.7155C78.2163 18.9279 78.1066 19.2129 77.3408 19.9634C76.9431 20.3532 76.4638 20.8699 76.2755 21.1113L75.9336 21.551L74.478 21.5106C71.8382 21.438 70.3162 21.9692 70.3756 22.9428C70.4115 23.5245 70.0753 24.1396 69.7219 24.1396C69.4392 24.1396 67.6521 26.1391 67.3367 26.8078C66.8801 27.7765 66.7653 27.85 65.8675 27.7481L65.1195 27.6632L64.8676 28.1587C64.2352 29.4022 64.1953 31.691 64.789 32.6495C64.8792 32.7947 64.9864 33.0605 65.0276 33.2397C65.2993 34.4208 67.8757 37.1739 67.8757 36.2829C67.8757 35.7381 68.9294 35.4449 69.3222 35.8805C69.4473 36.0194 69.6124 36.133 69.6888 36.133C70.1756 36.133 70.5133 36.7636 70.4341 37.5248C70.3659 38.1788 70.3838 38.2792 70.5671 38.2792C70.6835 38.2792 71.0171 38.4051 71.3083 38.5591C71.7941 38.816 72.0164 38.8397 74.0063 38.8451L76.1748 38.8514L76.5849 39.3418C76.8104 39.6114 77.2214 40.098 77.4981 40.4231C79.0282 42.2202 79.0178 42.3364 77.2654 42.9764C76.7016 43.1822 76.0384 43.4003 75.7918 43.4615C75.545 43.5225 75.1771 43.6591 74.9742 43.7655C74.7711 43.8718 74.3765 43.9589 74.0969 43.9596C73.8173 43.9599 73.2626 44.0454 72.8645 44.1496C71.179 44.5902 67.121 44.2657 67.121 43.69C67.121 43.6304 67.0644 43.5815 66.9955 43.5815C66.4216 43.5815 64.8547 41.8459 64.26 40.5516C64.1163 40.2391 63.8525 39.6656 63.6733 39.2768C63.494 38.8883 63.3475 38.5042 63.3475 38.4231C63.3475 38.342 63.2953 38.1772 63.2318 38.0566C62.7563 37.1559 62.451 33.4301 62.7016 31.5881C62.9811 29.5347 63.3764 27.9055 63.6836 27.5385C63.7755 27.4287 63.8506 27.269 63.8506 27.1834C63.8506 26.0911 66.5138 22.6152 68.2625 21.4254C68.5684 21.217 68.8379 21.004 68.8609 20.9519C68.8841 20.8999 68.958 20.8572 69.025 20.8572C69.0923 20.8572 69.3866 20.7477 69.6794 20.6139C69.9718 20.4801 70.3794 20.3295 70.5844 20.2797C70.7894 20.2295 71.069 20.1114 71.2055 20.0177C71.3419 19.924 71.5982 19.8473 71.7749 19.8473C71.9517 19.8473 72.2108 19.7668 72.3507 19.6683C72.491 19.5699 72.829 19.4521 73.102 19.4067C73.3752 19.3612 73.7123 19.2694 73.851 19.2022C74.0648 19.0986 76.6424 18.6568 77.349 18.6025C77.4748 18.5927 77.6871 18.6435 77.8207 18.7155ZM75.0535 22.1241C75.727 22.4858 75.195 23.1944 74.3198 23.1006C73.9925 23.0656 73.1928 23.0722 72.5428 23.1155C71.125 23.2098 70.846 23.0994 71.186 22.5789C71.4712 22.1421 71.9315 22.038 73.7013 22.0105C74.3114 22.0013 74.9198 22.0522 75.0535 22.1241ZM75.8629 23.6924C76.9512 24.174 77.216 24.33 77.5751 24.6986C77.7801 24.9091 77.9801 25.2102 78.0198 25.368C78.0591 25.5255 78.1396 25.6546 78.1984 25.6546C78.2575 25.6546 78.3701 25.896 78.4487 26.1911C78.5276 26.4862 78.6713 26.8785 78.7682 27.0629C79.0936 27.6811 79.0018 30.2559 78.6273 31.02C78.4572 31.3672 78.3175 31.7242 78.3169 31.8132C78.3163 31.9019 78.2349 32.006 78.1358 32.0442C78.0367 32.0821 77.8962 32.2651 77.8232 32.4504C77.4333 33.4398 75.4708 35.3755 74.8573 35.3755C74.517 35.3755 73.9592 35.9717 74.1334 36.1494C74.8796 36.91 72.4642 37.0584 71.0136 36.341C69.9483 35.8142 69.6703 35.6236 69.0036 34.9652C68.4442 34.4126 67.4983 33.003 67.4983 32.7218C67.4983 32.6151 67.3993 32.3876 67.2782 32.2159C67.0939 31.9546 67.0581 31.6165 67.0581 30.1363C67.0581 28.6561 67.0939 28.3181 67.2782 28.0567C67.3993 27.885 67.4983 27.6477 67.4983 27.5293C67.4983 27.4107 67.5804 27.2314 67.6807 27.1307C67.781 27.03 67.8983 26.8075 67.9411 26.6365C68.0301 26.2798 69.3797 24.7709 69.6096 24.7709C69.6936 24.7709 69.7624 24.7134 69.7624 24.6434C69.7624 24.4865 71.5476 23.628 72.1523 23.4939C72.9397 23.3194 75.3063 23.4459 75.8629 23.6924ZM72.1542 26.1668C71.9133 26.3016 71.6533 26.4121 71.5768 26.4121C71.4413 26.4121 70.4549 27.3355 70.2027 27.6985C69.0297 29.3861 69.2454 31.739 70.6954 33.0794C70.8973 33.2659 71.1504 33.5181 71.258 33.6396C71.3655 33.7611 71.5073 33.8606 71.5727 33.8606C71.6385 33.8606 71.8017 33.96 71.9353 34.0815C72.1391 34.2664 72.4281 34.3024 73.7114 34.3024H75.244L75.7604 33.8921C76.0443 33.6665 76.3248 33.4818 76.3843 33.4818C77.55 33.4806 78.3446 29.9962 77.554 28.3525C76.5764 26.3205 73.851 25.2175 72.1542 26.1668ZM75.0318 26.4913C75.2123 26.5856 75.4164 26.6652 75.4855 26.6677C75.5547 26.6705 75.8066 26.8697 76.0456 27.1105C76.2843 27.3513 76.5248 27.5483 76.5802 27.5483C76.6352 27.5483 76.6805 27.6051 76.6805 27.6745C76.6805 27.7439 76.7937 27.9144 76.9321 28.0533C77.0704 28.1921 77.1855 28.4052 77.1877 28.5267C77.1899 28.6482 77.2748 28.8578 77.3764 28.9925C77.8886 29.6727 77.4823 31.5907 76.6308 32.51C76.4506 32.7045 76.3012 32.9033 76.299 32.9519C76.2821 33.3319 74.6205 33.9868 73.6727 33.9868C70.3055 33.9868 68.609 29.7247 71.0489 27.3946C71.4731 26.9893 71.9658 26.6232 72.1435 26.5806C72.3212 26.5383 72.5234 26.46 72.5925 26.4067C72.9466 26.1343 74.4497 26.1864 75.0318 26.4913ZM86.9406 27.0291C86.9026 27.0906 86.6589 27.1784 86.3985 27.2244C85.8991 27.3125 84.9158 27.7559 84.6306 28.0217C84.5372 28.1085 84.4086 28.1795 84.3441 28.1795C84.28 28.1795 84.2275 28.2363 84.2275 28.3057C84.2275 28.509 84.5787 28.4522 85.146 28.1577C85.4362 28.0072 85.7752 27.8348 85.8988 27.7752C86.0227 27.7152 86.5227 27.6161 87.0101 27.5546C88.0098 27.4287 88.1022 27.381 87.8777 27.1096C87.706 26.9019 87.0535 26.8457 86.9406 27.0291ZM66.0842 28.3139C66.627 28.5039 66.8326 29.0414 66.6153 29.7023C66.4936 30.0726 66.4864 30.2752 66.5877 30.4847C66.6625 30.6403 66.7527 31.1699 66.7876 31.6617C66.8373 32.3595 66.9361 32.7007 67.2376 33.2139C67.4502 33.5756 67.6241 33.9174 67.6241 33.9729C67.6241 34.0288 67.7373 34.2055 67.8757 34.3655C68.4329 35.0103 67.8993 35.8253 67.1295 35.5052C66.8248 35.3787 66.1147 34.5388 66.1147 34.3053C66.1147 34.269 66.0157 34.1323 65.8946 34.0016C65.4408 33.5121 65.2342 33.17 65.2342 32.9074C65.2342 32.7587 65.1544 32.4719 65.0566 32.2702C64.6597 31.4521 64.7399 29.0957 65.1827 28.568C65.5493 28.1306 65.5553 28.129 66.0842 28.3139ZM72.3067 28.6854C71.3234 29.6727 71.435 30.8411 72.6079 31.834C73.218 32.3503 74.7007 32.1117 75.233 31.4114C76.7673 29.3921 74.0887 26.8968 72.3067 28.6854ZM74.3356 28.6214C74.4393 28.7255 74.5642 28.8107 74.6132 28.8107C74.662 28.8107 74.8359 28.9556 74.9994 29.133C76.016 30.2335 74.5573 32.2721 73.14 31.7314C72.3042 31.4123 71.686 29.8826 72.2152 29.442C72.319 29.3555 72.4039 29.2046 72.4039 29.1068C72.4039 29.0092 72.5029 28.8915 72.624 28.8454C72.745 28.7994 72.9189 28.6876 73.0104 28.5967C73.2365 28.3723 74.1035 28.3884 74.3356 28.6214ZM86.1416 28.9386C84.9199 29.5985 84.7624 30.4775 85.7998 30.8423C87.2809 31.3634 88.2525 30.9806 88.2525 29.8762C88.2525 28.7454 87.2903 28.3177 86.1416 28.9386ZM87.7808 29.4012C87.9541 29.5035 87.8777 30.1663 87.673 30.3367C87.2846 30.6605 85.6007 30.4582 85.6139 30.0893C85.6356 29.4757 87.1129 29.0064 87.7808 29.4012ZM72.7812 37.2026C73.2309 37.3001 73.8252 37.35 74.1019 37.3134C75.0664 37.1865 75.9025 38.145 75.0978 38.455C74.7104 38.6042 72.5111 38.5345 72.1083 38.36C71.8904 38.2656 71.5564 38.1248 71.3662 38.0472C71.1284 37.95 71.0202 37.8139 71.0202 37.6129C71.0202 36.9899 71.3951 36.9024 72.7812 37.2026ZM80.1964 43.27C80.4351 43.5108 80.671 43.7077 80.72 43.7077C80.9033 43.7077 81.7124 44.5952 81.725 44.8102C81.753 45.2763 81.6876 45.8201 81.5011 46.6745C81.3948 47.1605 81.2587 47.9199 81.1986 48.3621C81.1382 48.8043 81.036 49.2303 80.9716 49.3089C80.9068 49.3875 80.814 49.6791 80.7656 49.9569C80.7172 50.2346 80.5986 50.5878 80.5027 50.7415C80.4068 50.8952 80.3282 51.1303 80.3282 51.2635C80.3282 51.6836 79.9241 52.7826 79.692 52.9931C79.4845 53.1818 79.4354 53.1484 78.9506 52.4897C78.3572 51.6836 77.7088 51.2115 77.0251 51.0874C76.7648 51.0401 76.5211 50.9511 76.483 50.8895C76.3773 50.7178 76.0082 50.7557 75.55 50.9848C74.9554 51.2828 74.4717 51.0978 74.4994 50.5834C74.529 50.0383 74.7739 48.9968 74.9117 48.8301C74.9771 48.7509 75.089 48.2185 75.1604 47.6466C75.2318 47.0747 75.3412 46.5085 75.4035 46.3882C75.4654 46.268 75.556 45.8943 75.6047 45.5582C75.7673 44.4339 76.094 43.8662 76.6679 43.7112C76.9456 43.6361 77.2031 43.5259 77.2399 43.466C77.2767 43.4063 77.5053 43.3201 77.7484 43.2744C77.9911 43.2286 78.1899 43.1412 78.1899 43.08C78.1899 42.6283 79.7021 42.7716 80.1964 43.27ZM75.2733 44.9004C75.2953 45.2482 75.2321 45.7236 75.1305 45.9735C75.0305 46.2203 74.8887 46.7061 74.8158 47.0532C74.7428 47.4004 74.5642 48.1673 74.4183 48.7575C74.2727 49.3477 74.0994 50.1245 74.0331 50.4833C73.9142 51.13 73.4771 52.2896 73.3051 52.4162C73.0535 52.6008 72.768 53.2412 72.6988 53.7749C72.6035 54.5077 72.4438 54.7555 72.1985 54.551C71.9765 54.366 71.9759 53.416 72.1973 52.8842C72.2913 52.6585 72.4083 52.1501 72.4576 51.754C72.507 51.3579 72.5935 51.0054 72.6501 50.9703C72.7064 50.9353 72.7897 50.6929 72.8353 50.4316C72.8806 50.1706 72.9969 49.7012 73.0938 49.3888C73.3265 48.6376 73.7526 46.7001 73.85 45.9514C73.8928 45.6232 73.9812 45.3218 74.0463 45.2814C74.1114 45.241 74.1648 45.0974 74.1648 44.9626C74.1648 44.0574 75.2164 43.9984 75.2733 44.9004ZM73.5913 44.8064C73.7101 45.1176 73.5337 46.3428 73.3425 46.535C73.2532 46.6246 73.1397 46.9769 73.0903 47.3177C73.0413 47.6583 72.9579 47.9938 72.9051 48.0632C72.8523 48.1326 72.7425 48.7007 72.6608 49.3257C72.5331 50.3028 72.4623 50.5108 72.1558 50.8119L71.7995 51.1622L71.7278 50.5594C71.6885 50.228 71.6199 49.2752 71.5753 48.4419C71.5309 47.6087 71.425 46.7566 71.34 46.5483C70.8998 45.4692 71.0029 44.7754 71.6177 44.682C72.5903 44.534 73.5092 44.5921 73.5913 44.8064ZM85.1573 44.8815C85.4117 45.0683 85.3369 45.8583 85.0363 46.1604C84.9441 46.2528 84.8293 46.4914 84.7809 46.6909C84.7325 46.8901 84.6165 47.1653 84.5231 47.3023C84.4297 47.4392 84.3529 47.6665 84.3526 47.8072C84.352 47.948 84.2759 48.209 84.1831 48.3873C84.0907 48.5653 83.9753 48.8693 83.9268 49.0621C83.7891 49.6132 83.8382 54.6971 83.9866 55.2592C84.552 57.3994 84.496 57.6604 83.4976 57.5455C82.6542 57.4486 81.5955 57.1283 81.3489 56.8957C81.1385 56.6968 81.3703 54.8183 81.6634 54.3483C81.7593 54.1946 81.8401 53.9674 81.8433 53.8434C81.8461 53.7193 81.9316 53.3908 82.0329 53.113C82.1341 52.8353 82.2781 52.182 82.3527 51.6612C82.4272 51.1404 82.5322 50.6575 82.5857 50.5881C82.6395 50.5187 82.719 50.1863 82.763 49.8496C82.8473 49.2013 83.1401 48.1882 83.4253 47.5582C83.5196 47.3499 83.6482 46.8039 83.7114 46.3447C83.8938 45.0178 84.5029 44.4014 85.1573 44.8815ZM83.3454 45.1551C83.4297 45.3776 83.3938 45.7277 83.2193 46.386C83.0854 46.892 82.9737 47.4478 82.9718 47.6213C82.9696 47.7949 82.8898 48.0878 82.7939 48.2718C82.6983 48.4561 82.5797 48.9532 82.5307 49.3768C82.4819 49.8003 82.3945 50.1759 82.337 50.2119C82.2791 50.2476 82.1653 50.5992 82.0838 50.993C82.0024 51.3869 81.8879 51.7979 81.8297 51.9061C81.7131 52.1226 81.376 53.6982 81.1952 54.8732C80.9763 56.2966 80.5392 56.9007 79.9556 56.5873C79.6741 56.4361 79.5999 55.7443 79.821 55.3302C79.8876 55.2049 80.031 54.7113 80.1392 54.2338C80.2474 53.7563 80.4502 52.8826 80.5898 52.2924C80.7294 51.7022 80.9077 50.8501 80.986 50.3987C81.064 49.9474 81.1669 49.5497 81.2143 49.515C81.2615 49.4803 81.3417 49.111 81.3923 48.6944C81.4429 48.2778 81.5499 47.8577 81.6297 47.7605C81.7093 47.6636 81.8404 47.3228 81.9209 47.0031C82.2627 45.6431 82.4643 45.0494 82.6178 44.9519C82.9225 44.7578 83.2269 44.843 83.3454 45.1551ZM77.6239 51.7827C78.6468 52.4957 79.12 53.6502 78.8911 54.8745C78.6499 56.165 77.5487 55.8153 77.4264 54.4089C77.3302 53.3033 76.9597 52.9237 75.9767 52.9237C75.45 52.9237 75.2425 52.8609 74.989 52.6251C73.8554 51.5709 76.2308 50.8113 77.6239 51.7827ZM74.4714 52.8167C75.0975 53.1032 75.1183 55.103 74.4956 55.1743C73.5611 55.2816 73.1853 54.7264 73.4051 53.5625C73.5532 52.7772 73.8821 52.5471 74.4714 52.8167ZM76.7915 53.6881C77.3937 54.5055 76.3333 55.4981 75.5981 54.805C75.2233 54.4515 75.2123 53.9772 75.5704 53.5947C75.9601 53.178 76.4431 53.215 76.7915 53.6881ZM71.2089 54.876C71.6932 54.9922 72.3649 55.1686 72.7013 55.268C73.0378 55.3675 73.4768 55.4486 73.6765 55.4486C73.8765 55.4486 74.2513 55.5622 74.5095 55.7011C74.7673 55.8399 75.0824 55.9536 75.2088 55.9536C75.3356 55.9536 75.5465 56.0113 75.678 56.0817C75.8094 56.1524 76.3575 56.2941 76.8962 56.397C78.5043 56.7038 79.6207 56.9604 79.888 57.0844C80.0263 57.1488 80.3376 57.2397 80.5798 57.2864C80.8219 57.3331 81.087 57.4253 81.1687 57.4912C81.2505 57.5575 81.6989 57.6654 82.1649 57.7317C82.6313 57.798 83.074 57.9015 83.1486 57.9618C83.2231 58.0221 83.5942 58.1133 83.9734 58.1644C85.7576 58.4056 86.7711 59.4152 85.9312 60.1149C85.7268 60.2854 84.2127 60.1796 83.8058 59.9666C83.6778 59.8994 83.2102 59.793 82.7668 59.7299C82.3237 59.6671 81.8624 59.5632 81.742 59.4992C81.5134 59.378 79.6656 59.0485 78.0871 58.8477C77.5808 58.7834 77.067 58.677 76.9453 58.6117C76.8236 58.5463 76.417 58.4548 76.0418 58.4081C75.6667 58.3614 75.2466 58.2534 75.1082 58.1682C74.9698 58.083 74.4887 57.976 74.039 57.9306C73.5894 57.8851 72.8535 57.7633 72.4039 57.6595C71.9542 57.5559 71.1335 57.3773 70.58 57.2627C70.0266 57.1482 69.4407 56.972 69.2782 56.8714C68.9659 56.6785 68.9672 56.7161 69.2392 55.4561C69.3722 54.8398 69.6885 54.5191 70.0769 54.6075C70.2152 54.6387 70.7247 54.7596 71.2089 54.876ZM71.0202 57.8349C72.2259 58.0205 73.8057 58.3144 74.3654 58.457C74.6356 58.5258 75.1812 58.6196 75.578 58.6653C75.9745 58.7111 76.3283 58.796 76.3638 58.8537C76.3994 58.9115 76.7824 58.9995 77.2147 59.0497C77.6474 59.0999 78.1427 59.1949 78.3157 59.2606C78.6782 59.3988 80.0194 59.6715 81.6489 59.9382C82.2715 60.0404 82.9225 60.1762 83.0954 60.2402C83.2684 60.3046 83.7212 60.3955 84.1017 60.4425C85.3083 60.5921 86.4104 60.9302 86.9947 61.33C88.239 62.1819 88.5019 62.3684 89.0267 62.7727C89.3273 63.0041 89.6311 63.2543 89.7019 63.3291C89.8547 63.4904 90.2103 63.7227 90.6364 63.9395C91.005 64.127 91.5229 64.6276 91.5229 64.7964C91.5229 64.8627 91.5829 64.917 91.6565 64.917C91.8301 64.917 93.2839 66.3663 93.2839 66.5396C93.2839 66.6122 93.3559 66.7173 93.4442 66.7728C93.6458 66.9 94.0033 67.4492 94.4134 68.2625C94.5882 68.6097 94.8304 69.0342 94.9511 69.2059C95.0719 69.3776 95.1706 69.619 95.1706 69.7424C95.1706 69.8658 95.2206 69.9668 95.2816 69.9668C95.3423 69.9668 95.4599 70.236 95.5423 70.5649C95.625 70.8938 95.7429 71.2242 95.8049 71.299C95.8668 71.3738 95.9555 71.7725 96.0014 72.1843C96.0476 72.5965 96.1347 72.9967 96.1951 73.0741C96.2555 73.1514 96.3662 73.5491 96.441 73.9578C96.5162 74.3665 96.6287 74.7635 96.6916 74.8402C96.7542 74.9166 96.8558 75.4775 96.9174 76.0863C96.9787 76.6954 97.0834 77.2294 97.1501 77.273C97.2165 77.3165 97.3083 78.176 97.3536 79.1828C97.3992 80.1896 97.4696 81.2122 97.5099 81.4552C97.5658 81.7916 97.5193 81.9788 97.3152 82.2392L97.0473 82.581L94.3165 82.586C91.2191 82.5917 90.522 82.6545 89.8613 82.9875C89.6047 83.1169 89.3056 83.2226 89.1968 83.2226C89.0884 83.2226 88.9667 83.3078 88.927 83.412C88.8871 83.5162 88.7884 83.6014 88.7072 83.6014C88.6264 83.6014 88.4682 83.7008 88.3563 83.8223C88.2444 83.9438 87.9208 84.2102 87.6374 84.4141C87.3541 84.618 86.9661 85.0156 86.7758 85.2978C86.5853 85.58 86.3586 85.8561 86.2718 85.9117C86.1853 85.9672 86.1142 86.0881 86.1142 86.1803C86.1142 86.2724 86.035 86.4138 85.9378 86.4946C85.8409 86.5754 85.7233 86.7954 85.6765 86.9835C85.6296 87.1716 85.4495 87.5128 85.2762 87.7416L84.9608 88.1576L81.5813 88.1203C79.1496 88.0935 78.1594 88.0402 78.0503 87.9303C77.8581 87.7375 77.888 85.3202 78.0871 84.9471C78.1632 84.8045 78.2622 83.9896 78.3075 83.1365C78.3984 81.4157 78.5987 80.924 79.2399 80.8473C79.6329 80.8 79.6719 80.6728 79.7521 79.1828C79.7839 78.5926 79.8697 77.4153 79.9433 76.5666C80.0364 75.4913 80.0373 74.6682 79.9461 73.8524C79.8744 73.2082 79.7628 71.9221 79.6983 70.9945C79.6339 70.0669 79.5307 69.2431 79.4688 69.1639C79.4068 69.0847 79.3185 68.682 79.2722 68.2685C79.177 67.4198 78.7672 65.9058 78.4962 65.4024C78.3968 65.2181 78.3157 64.9845 78.3157 64.8829C78.3157 64.7816 78.2025 64.554 78.0641 64.3776C77.9257 64.2009 77.8125 63.9661 77.8125 63.8556C77.8125 63.7451 77.7603 63.6545 77.6965 63.6545C77.6327 63.6545 77.5151 63.4557 77.4352 63.2127C77.3553 62.9697 77.2415 62.7708 77.1824 62.7708C77.1232 62.7708 77.0421 62.6714 77.0022 62.5499C76.8126 61.9717 75.0098 60.399 74.2906 60.1837C74.1177 60.132 73.8912 60.0161 73.7875 59.9262C73.6837 59.8359 73.3724 59.7217 73.0957 59.6721C72.8189 59.6223 72.5359 59.5386 72.4668 59.4859C71.8014 58.9794 69.1992 59.3458 67.4427 60.1935C65.9166 60.9302 65.9839 60.2497 67.598 58.6274C68.5514 57.6692 68.9568 57.4704 69.6781 57.6086C69.9665 57.6639 70.5706 57.7655 71.0202 57.8349ZM72.1388 59.9319C72.8576 60.0344 73.5085 60.1686 73.5853 60.2298C73.662 60.291 73.8554 60.3816 74.0155 60.4309C75.7182 60.9551 75.5261 61.3963 72.3916 64.1595C71.8797 64.6109 71.3051 65.1319 71.1149 65.3175L70.7687 65.6549V70.7202V75.7855L70.4599 76.0954C70.2901 76.2659 70.0071 76.4054 69.8307 76.4054C69.6542 76.4054 69.2986 76.519 69.0404 76.6579C68.7826 76.7967 68.5021 76.9103 68.4178 76.9103C68.1942 76.9103 66.7436 78.3606 66.7436 78.5837C66.7436 78.6879 66.6656 78.8381 66.57 78.9177C66.4748 78.9972 66.3644 79.2172 66.3251 79.4065C66.1515 80.2413 65.7418 80.4452 64.2383 80.4452C63.2969 80.4452 62.8374 80.3963 62.7532 80.2874C62.5349 80.0056 62.2783 77.1512 62.2793 75.0167C62.2808 71.5881 62.989 66.8312 63.7003 65.4703C63.7689 65.3396 64.071 64.7261 64.3723 64.1071C65.5191 61.7495 67.3873 60.2576 69.5954 59.935C70.2061 59.8457 70.7341 59.7668 70.7687 59.7592C70.8033 59.7517 71.4199 59.8296 72.1388 59.9319ZM76.2402 62.239C76.4833 62.4489 77.561 63.973 77.561 64.1075C77.561 64.1437 77.6641 64.4117 77.7902 64.703C78.266 65.8017 78.427 66.2565 78.5006 66.7106C78.5424 66.9682 78.6591 67.3374 78.7597 67.5312C78.8606 67.725 78.9433 68.1211 78.944 68.4112C78.9443 68.7015 79.0235 69.0181 79.1197 69.1147C79.4487 69.4445 79.6037 77.4197 79.331 79.9627C79.2449 80.7662 75.6742 80.6087 75.6742 79.8014C75.6742 79.2503 74.5148 77.5741 73.8865 77.2165C73.0828 76.7592 72.2903 76.4265 71.8479 76.3612C71.1316 76.2548 71.1501 76.3975 71.1479 70.9396L71.146 65.9156L71.44 65.6372C71.602 65.4842 72.0762 65.0464 72.4938 64.6645C72.9114 64.2826 73.5274 63.7145 73.8629 63.4021C75.3774 61.9906 75.7447 61.811 76.2402 62.239ZM61.8422 76.1207C61.9192 78.3161 62.0271 79.7774 62.1513 80.2953C62.3466 81.1115 62.3076 81.5805 62.0079 82.0198C61.9145 82.1568 61.8378 82.3556 61.8375 82.4617C61.8368 82.5677 61.7541 82.8133 61.6532 83.0071C61.5526 83.2009 61.4318 83.5648 61.3849 83.816C61.3378 84.0669 61.223 84.4194 61.1293 84.5997C61.0356 84.7796 60.9589 85.051 60.9582 85.2028C60.9579 85.3546 60.8966 85.6387 60.8221 85.834L60.6865 86.1894L60.4636 85.9148C60.1822 85.568 60.2208 79.9879 60.5152 78.4884C60.6104 78.0024 60.7246 77.065 60.7689 76.4054C60.8129 75.7457 60.9529 74.7799 61.0793 74.2592C61.206 73.7384 61.3485 73.0867 61.396 72.8111C61.5818 71.7343 61.7265 72.8055 61.8422 76.1207ZM70.6599 77.1448C70.8577 77.6666 70.6121 78.0017 69.7247 78.4228C67.9876 79.2465 67.3046 80.9281 68.0581 82.5264C68.3747 83.1983 69.0618 83.9801 69.3357 83.9801C69.4206 83.9801 69.5134 84.0511 69.5423 84.1379C69.6244 84.3854 71.752 84.4191 72.1523 84.1793C72.3252 84.0757 72.5856 83.9362 72.7312 83.8696C72.8765 83.8027 73.1862 83.5061 73.4196 83.2106L73.8438 82.6731L73.8296 81.3182C73.8114 79.601 73.4674 78.9498 72.4013 78.6153C72.23 78.5616 72.0611 78.4824 72.0265 78.4398C71.9919 78.3972 71.7938 78.2747 71.5863 78.1681C70.4555 77.5861 71.436 76.4142 72.5929 76.9649C72.8211 77.0738 73.0617 77.1628 73.1277 77.1628C73.3079 77.1628 74.9195 78.8085 74.9195 78.9921C74.9195 79.0799 74.9975 79.2165 75.0925 79.2961C75.1878 79.3753 75.3016 79.6805 75.3456 79.9743C75.3896 80.2679 75.4934 80.782 75.5758 81.1162C75.6815 81.5436 75.6862 81.7497 75.5918 81.8106C75.5179 81.8582 75.4186 82.1622 75.3711 82.4863C75.3236 82.8104 75.2079 83.1396 75.1145 83.2176C75.0208 83.2955 74.9126 83.4859 74.8739 83.6405C74.7846 83.9975 73.4479 85.3013 73.0388 85.4307C72.8689 85.4843 72.6482 85.6106 72.5482 85.7109C72.3221 85.9379 69.3071 85.9013 69.1602 85.6699C69.1109 85.5926 68.9508 85.4916 68.8043 85.4458C68.0939 85.2233 66.7993 83.6449 66.5471 82.6933C66.0641 80.8726 66.4336 79.3491 67.6628 78.0917C68.1603 77.5829 68.6156 77.1657 68.6744 77.1647C68.7329 77.1638 68.9593 77.0814 69.1775 76.982C70.0058 76.6042 70.4747 76.6556 70.6599 77.1448ZM72.208 78.8167C72.4542 78.9622 72.6554 79.1184 72.6554 79.1638C72.6554 79.209 72.8498 79.4646 73.0869 79.7323C74.6629 81.5095 72.7803 84.4965 70.3822 84.024C68.8546 83.7232 67.8244 82.0056 68.293 80.5412C68.5018 79.8885 69.2017 78.9303 69.4693 78.9303C69.5445 78.9303 69.6763 78.8451 69.7624 78.7409C70.0174 78.4326 71.6444 78.4827 72.208 78.8167ZM65.6672 81.1045C65.7751 81.2589 65.865 81.5571 65.8675 81.7673C65.8697 81.9775 65.9811 82.3768 66.1147 82.6545C66.6125 83.6888 66.4153 83.9801 65.2182 83.9801C64.1129 83.9801 64.0343 83.8908 63.9387 82.5321C63.8308 81.0004 63.9182 80.824 64.7836 80.824C65.3518 80.824 65.5056 80.8729 65.6672 81.1045ZM77.8138 81.0146C78.1594 81.4328 77.9301 83.6023 77.5107 83.8835C77.2396 84.065 75.8403 83.9915 75.6708 83.7866C75.4796 83.5556 75.8129 81.5877 76.1245 81.108C76.3528 80.7567 77.5459 80.6908 77.8138 81.0146ZM63.3858 81.7392C63.4217 81.8955 63.5182 82.9323 63.6003 84.0432C63.6824 85.1542 63.7962 86.3472 63.8534 86.6944C64.0352 87.7959 63.7692 88.0743 62.4931 88.1197C61.2639 88.1636 60.9576 88.0383 60.9576 87.4916C60.9576 86.9251 61.3236 85.1223 61.5334 84.6555C61.6318 84.4365 61.7123 84.1613 61.7123 84.0435C61.7123 83.8324 61.7824 83.6686 62.3192 82.6296C62.4695 82.338 62.5928 82.0227 62.5928 81.9289C62.5928 81.4508 63.2811 81.2863 63.3858 81.7392ZM94.8939 83.1216C95.1829 83.4117 95.0989 87.8558 94.8014 88.0156C94.6483 88.0979 93.0524 88.1462 90.4861 88.1462C86.073 88.1462 85.8787 88.1181 86.0227 87.5033C86.1472 86.9709 86.4227 86.3157 86.6173 86.0881C86.851 85.8154 88.3135 84.3446 88.5333 84.1616C88.766 83.9678 90.094 83.3498 90.2886 83.3445C90.3795 83.3419 90.5952 83.2586 90.7682 83.1595C91.1811 82.9225 94.6637 82.8906 94.8939 83.1216ZM54.7942 99.8716C53.3867 100.183 52.482 101.101 51.7908 102.917L51.4786 103.738L51.4327 111.123C51.3855 118.678 51.4377 119.883 51.8622 121.033C52.6474 123.162 54.0395 124.091 56.2687 123.973C59.2051 123.817 60.706 121.59 60.706 117.388C60.706 115.866 60.6318 115.794 59.068 115.794C57.6703 115.794 57.6872 115.772 57.6872 117.564C57.6872 119.94 57.2407 120.869 56.098 120.869C54.7159 120.869 54.6684 120.569 54.6684 111.85C54.6684 103.076 54.6911 102.933 56.0885 102.921C57.2266 102.911 57.5681 103.602 57.6788 106.136L57.7501 107.777L58.9762 107.813C60.6894 107.864 60.706 107.851 60.706 106.416C60.706 101.635 58.3932 99.0747 54.7942 99.8716ZM79.0075 99.871C77.5314 100.266 76.6566 101.183 76.0525 102.968C75.6472 104.165 75.662 119.685 76.0692 120.866C76.8179 123.038 78.1103 124 80.2785 124C81.2584 124 82.4436 123.64 82.9067 123.202C83.0451 123.071 83.2857 122.878 83.4413 122.773C83.597 122.668 83.7243 122.522 83.7243 122.449C83.7243 122.376 83.8001 122.226 83.8929 122.116C83.9857 122.007 84.1979 121.548 84.3646 121.096L84.6677 120.276V111.88V103.485L84.3646 102.664C84.1979 102.213 83.9857 101.754 83.8929 101.645C83.8001 101.535 83.7243 101.395 83.7243 101.333C83.7243 101.147 82.9476 100.524 82.2914 100.184C81.6266 99.8391 79.7823 99.6633 79.0075 99.871ZM30.1659 100.165C29.9175 100.414 29.9599 103.121 30.214 103.219C30.3234 103.261 30.9986 103.296 31.7143 103.296C33.6174 103.296 33.4111 102.046 33.4111 113.578C33.4111 121.879 33.4391 123.487 33.5866 123.61C33.702 123.706 34.2284 123.744 35.1274 123.72L36.4928 123.684L36.5557 113.612C36.6104 104.842 36.6431 103.524 36.8073 103.419C36.911 103.353 37.5714 103.299 38.2748 103.298C40.0625 103.295 39.9518 103.398 39.9518 101.729C39.9518 99.8385 40.4578 100.013 34.9834 100.013C31.5215 100.013 30.2779 100.052 30.1659 100.165ZM41.8637 100.165C41.7486 100.28 41.7128 103.071 41.7128 111.954V123.592L41.9958 123.668C42.497 123.803 49.007 123.757 49.268 123.617C49.4859 123.5 49.5113 123.341 49.5113 122.099C49.5113 120.398 49.612 120.465 47.0756 120.465C44.7753 120.465 44.9831 120.812 44.9831 116.973C44.9831 113.214 44.8225 113.522 46.7831 113.522H48.0963L48.1749 113.127C48.2183 112.91 48.2535 112.264 48.2535 111.691C48.2535 111.118 48.2183 110.472 48.1749 110.255L48.0963 109.86H46.6907C44.8423 109.86 44.9831 110.131 44.9831 106.578C44.9831 102.972 44.769 103.296 47.1548 103.296C49.6047 103.296 49.5113 103.358 49.5113 101.722C49.5113 100.698 49.4679 100.366 49.3135 100.212C49.056 99.953 42.1184 99.9092 41.8637 100.165ZM63.1723 100.213C63.0723 100.474 63.0723 123.287 63.1723 123.548C63.234 123.709 63.4638 123.748 64.3754 123.748C66.1748 123.748 65.9889 124.518 65.9889 117.052V110.618H66.2933C66.5364 110.618 66.6144 110.701 66.6792 111.028C66.7688 111.482 67.1735 112.959 67.3968 113.648C67.4757 113.891 67.6122 114.402 67.7005 114.784C67.7886 115.166 67.9807 115.876 68.1272 116.362C68.2738 116.848 68.4697 117.558 68.5624 117.94C68.6552 118.322 68.8272 119.032 68.9445 119.518C69.0618 120.004 69.208 120.516 69.2694 120.654C69.3304 120.793 69.4357 121.134 69.5027 121.412C69.8039 122.656 70.1045 123.522 70.2722 123.628C70.5476 123.803 72.702 123.777 72.8818 123.596C73.0818 123.395 73.102 100.632 72.9026 100.258C72.7579 99.9862 70.6548 99.8899 70.2655 100.137C70.1033 100.24 70.0681 101.16 70.014 106.731C69.953 113.015 69.9439 113.206 69.709 113.206C69.5234 113.206 69.43 113.059 69.3093 112.575C69.2225 112.228 69.0307 111.546 68.8835 111.06C68.736 110.574 68.5376 109.834 68.4423 109.417C68.3474 108.999 68.2169 108.516 68.1524 108.344C68.0882 108.171 67.9945 107.746 67.9439 107.399C67.8936 107.052 67.8068 106.711 67.7518 106.641C67.6964 106.572 67.5603 106.174 67.4493 105.757C67.3379 105.341 67.1571 104.688 67.0471 104.306C66.9373 103.924 66.6741 102.901 66.4628 102.033C66.2515 101.165 65.993 100.356 65.8886 100.234C65.6201 99.9224 63.2902 99.9041 63.1723 100.213ZM92.6801 100.165C92.3738 100.472 92.4722 123.456 92.7804 123.621C92.9276 123.7 93.5926 123.741 94.3841 123.72L95.7366 123.684L95.7696 118.835C95.8045 113.684 95.8089 113.648 96.4199 113.648C97.0215 113.648 97.174 113.882 97.3671 115.1C97.6771 117.056 97.9174 118.404 98.0457 118.907C98.1136 119.174 98.2061 119.704 98.251 120.086C98.296 120.468 98.385 120.951 98.4491 121.16C98.5133 121.369 98.6189 121.963 98.6837 122.481C98.8375 123.711 98.8931 123.748 100.607 123.748C102.176 123.748 102.236 123.704 101.968 122.75C101.815 122.207 101.664 121.511 101.336 119.834C101.262 119.452 101.12 118.742 101.02 118.256C100.921 117.77 100.804 117.088 100.76 116.741C100.716 116.394 100.608 115.826 100.52 115.478C100.432 115.131 100.258 114.292 100.133 113.613L99.906 112.379L100.181 112.035C101.178 110.787 101.637 109.522 101.769 107.651C101.872 106.201 101.685 104.17 101.383 103.458C100.456 101.274 99.6356 100.573 97.5605 100.194C96.3514 99.9735 92.8914 99.9527 92.6801 100.165ZM104.555 100.213C104.397 100.627 104.469 123.435 104.629 123.596C104.74 123.707 105.734 123.748 108.315 123.748C112.487 123.748 112.151 123.891 112.151 122.106C112.151 120.38 112.266 120.465 109.944 120.465C107.409 120.465 107.623 120.789 107.623 116.959C107.623 113.284 107.495 113.522 109.471 113.522C111.047 113.522 111.019 113.555 111.019 111.656C111.019 109.874 111.007 109.86 109.334 109.86C107.484 109.86 107.623 110.121 107.623 106.656C107.623 102.995 107.418 103.296 109.918 103.296C110.927 103.296 111.843 103.261 111.952 103.219C112.157 103.14 112.257 100.69 112.075 100.213C111.959 99.9098 104.671 99.9098 104.555 100.213ZM113.606 100.227C113.561 100.344 113.609 100.87 113.712 101.395C113.815 101.92 113.957 102.775 114.027 103.296C114.265 105.071 114.424 106.136 114.553 106.831C114.625 107.212 114.764 108.065 114.861 108.724C114.959 109.384 115.152 110.634 115.289 111.502C115.427 112.37 115.601 113.705 115.677 114.468C115.752 115.232 115.872 116.045 115.943 116.274C116.013 116.503 116.148 117.241 116.242 117.915C116.483 119.651 116.661 120.763 116.873 121.857C116.974 122.379 117.057 122.959 117.057 123.146C117.057 123.635 117.373 123.748 118.755 123.748C120.323 123.748 120.406 123.698 120.514 122.708C120.561 122.273 120.68 121.596 120.778 121.204C120.876 120.813 120.956 120.33 120.956 120.131C120.955 119.81 121.116 118.808 121.591 116.173C121.672 115.721 121.787 114.869 121.847 114.279C121.949 113.266 122.123 112.082 122.533 109.608C122.63 109.018 122.744 108.251 122.785 107.904C122.827 107.556 122.94 106.903 123.038 106.452C123.136 106.001 123.271 105.148 123.338 104.558C123.525 102.919 123.859 100.592 123.915 100.536C124.232 100.218 123.643 100.013 122.414 100.013C120.827 100.013 120.853 99.9887 120.696 101.613C120.63 102.296 120.523 103.109 120.458 103.422C120.394 103.734 120.308 104.388 120.268 104.874C120.202 105.677 120.099 106.388 119.695 108.851C119.449 110.344 119.335 111.173 119.217 112.313C118.998 114.416 118.523 114.246 118.25 111.967C117.987 109.767 117.818 108.61 117.621 107.651C117.521 107.165 117.404 106.313 117.362 105.757C117.319 105.202 117.235 104.549 117.175 104.306C117.115 104.063 117.001 103.182 116.922 102.349C116.842 101.516 116.702 100.649 116.609 100.424L116.441 100.013H115.064C113.887 100.013 113.676 100.044 113.606 100.227ZM81.0738 103.25C81.5848 103.902 81.6014 104.206 81.5615 112.196C81.525 119.516 81.5112 119.914 81.2845 120.251C80.7279 121.075 79.7722 121.079 79.2373 120.26C79.005 119.905 78.7958 105.249 79.0065 104.089C79.204 103 80.4744 102.485 81.0738 103.25ZM97.5837 103.609C98.6142 104.311 99.1576 107.829 98.4334 109.107C97.7344 110.341 96.2992 111.067 95.9297 110.374C95.7901 110.112 95.741 103.848 95.8759 103.495C96.0027 103.164 97.0316 103.232 97.5837 103.609Z" fill="#00BCD4"/>
</svg>
