<svg width="154" height="142" viewBox="0 0 154 142" fill="none" xmlns="http://www.w3.org/2000/svg">
<rect width="154" height="142" rx="6" fill="#00BCD4" fill-opacity="0.25"/>
<path d="M72.1478 18.525C69.2968 21.3759 66.2307 26.0557 64.9397 29.4984C64.4018 30.9507 63.9177 32.2417 63.8101 32.3493C63.7025 32.4569 63.0032 31.7576 62.1964 30.8432C60.6364 28.9605 55.9028 25.6254 52.7291 24.2268L50.7926 23.3124L50.2009 24.7647C48.4796 29.1756 48.103 35.0389 49.2865 39.0732C49.9857 41.4401 49.9857 41.6014 49.1789 41.2787C48.2106 40.9021 42.4012 39.7725 38.3668 39.1808L36 38.8043L36.3227 42.731C36.5917 47.1419 37.8827 50.4232 40.8412 54.2962C42.8315 56.8782 44.5528 58.4919 46.5431 59.6215C47.5113 60.1594 47.5113 60.267 46.059 60.5898C43.3156 61.289 39.9268 63.6021 38.4744 65.8075C37.1296 67.8516 37.0758 67.9592 38.0979 68.7123C39.9268 70.057 44.9294 71.6708 48.8023 72.1549C56.1717 73.0156 63.5949 71.5094 71.0719 67.5826C76.5049 64.7855 75.9132 64.4627 70.1037 67.0447C63.5412 70.0032 59.8296 70.8101 52.5677 70.8639C47.1886 70.8639 45.4673 70.6487 42.2398 69.5729C40.0881 68.8736 38.313 68.013 38.313 67.6902C38.313 66.5068 41.7557 63.6559 44.9294 62.2573L48.0493 60.8049L50.954 61.9883C52.5139 62.6338 55.58 63.4407 57.7855 63.8172C60.7978 64.3552 61.3895 64.5703 60.3675 64.8393C59.6144 65.0544 58.431 65.2158 57.7317 65.2158C56.871 65.2158 56.5483 65.3772 56.9248 65.7537C57.2476 66.0765 58.5924 65.9689 60.6364 65.4848C62.4115 65.0544 65.1011 64.7317 66.5535 64.7317H69.243L66.8224 65.8075C65.4776 66.3992 63.2184 67.2599 61.7122 67.6902L59.0227 68.4433L61.7122 68.1743C63.1646 68.013 65.9618 67.1523 67.8982 66.2378C70.4264 65.0544 72.0402 64.6241 73.8153 64.7317C75.1601 64.7855 76.3435 64.6241 76.5049 64.3552C76.6662 64.0862 73.7615 63.8172 69.512 63.7097C61.4433 63.5483 55.5262 62.2573 49.2327 59.245C42.8315 56.1789 37.7213 49.4012 36.9145 42.731C36.4841 39.3422 36.3765 39.396 44.1225 41.0635C53.9125 43.1614 67.8982 49.186 67.8982 51.2301C67.8982 52.2521 67.7907 52.3059 66.3921 51.5528C63.8639 50.2618 55.7952 48.164 56.2793 48.9708C56.4407 49.2398 57.3014 49.6163 58.162 49.7777C59.0227 49.9929 61.6585 50.8535 63.9715 51.768C67.6293 53.1666 68.3824 53.6507 69.1354 55.2644C69.6196 56.2865 69.8885 57.1471 69.7272 57.1471C68.9741 57.1471 57.6779 53.7045 54.5042 52.5211C50.1471 50.8535 49.1789 50.9073 52.3526 52.5749C54.827 53.8658 66.0156 57.7388 69.2968 58.4381C70.8568 58.7609 73.7615 61.1815 73.2236 61.6118C72.5781 62.1497 60.4213 60.6973 55.58 59.4601C54.7194 59.245 54.3966 59.3526 54.6656 59.7291C55.2573 60.6436 64.0791 62.4725 70.0499 62.849L75.5904 63.2255L73.9767 60.8587C71.8788 57.8464 71.5023 56.5554 72.1478 54.8341C72.8471 52.9514 74.5684 52.0907 75.9669 52.8438C76.5587 53.1666 77.0428 53.8121 77.0428 54.2962C77.0428 54.9417 77.3655 54.7803 78.3876 53.7045C79.0868 52.9514 79.8399 52.3059 80.0013 52.3059C81.0233 52.3059 82.3681 53.5431 82.8522 54.8879C83.3901 56.5016 82.5295 59.0298 80.4854 61.827L79.6248 63.0642H82.4757C87.9624 63.0642 101.464 60.4284 100.55 59.5139C100.442 59.4064 98.6669 59.6753 96.6228 60.1056C92.7498 60.9125 82.3143 61.9883 81.9378 61.6118C81.7764 61.5042 82.2605 60.8587 83.0136 60.1594C83.8205 59.3526 86.5638 58.2229 90.2216 57.1471C96.569 55.2644 105.229 51.8218 104.799 51.3914C104.638 51.2301 102.755 51.7142 100.603 52.4673C95.4394 54.2962 85.5956 57.2547 85.3804 57.0395C85.3266 56.932 85.5956 56.1251 85.9721 55.1568C86.5638 53.7583 87.3707 53.2204 91.0285 51.768C93.4491 50.8535 96.1387 49.9929 96.9994 49.7777C97.86 49.6163 98.5593 49.2936 98.5593 49.0784C98.5593 48.5405 91.7278 50.0467 89.8451 51.0149C87.9624 51.9832 87.2631 51.9832 87.2631 50.9611C87.2631 49.8853 95.7622 45.6896 102.54 43.4303C108.403 41.4938 117.655 39.5036 118.247 40.0953C118.462 40.3104 118.355 41.7628 118.032 43.4303C115.45 56.2327 103.992 63.3331 85.5418 63.6559C81.7764 63.7097 78.3876 63.9786 78.011 64.2476C77.2041 64.7317 77.6883 64.8393 81.3999 64.6779C83.2288 64.6241 84.7887 65.0544 87.1017 66.1841C88.8231 67.0985 91.4588 67.9592 92.9112 68.1743C95.3856 68.4971 95.278 68.3895 91.1361 66.9371C88.6617 66.0227 86.51 65.162 86.3487 65.0006C85.7032 64.4089 91.3513 64.7317 94.525 65.4848C96.569 65.9689 97.9138 66.0765 98.2366 65.7537C98.6131 65.3772 98.2903 65.2158 97.4297 65.2158C96.7304 65.2158 95.547 65.0544 94.7939 64.8393C93.7719 64.5703 94.3636 64.3552 97.3759 63.8172C99.5813 63.4407 102.647 62.6338 104.207 61.9883L107.112 60.8049L110.393 62.3111C113.298 63.6021 116.848 66.6682 116.848 67.8516C116.848 68.1205 115.073 68.8736 112.975 69.5729C109.694 70.6487 107.973 70.8639 102.594 70.8639C95.278 70.8101 91.6202 70.0032 84.9501 67.0447C78.4413 64.0862 78.8717 65.162 85.4342 68.2819C91.674 71.1867 92.3733 71.4018 98.4517 72.1549C104.745 72.9618 113.567 71.2942 117.064 68.7123C118.086 67.9592 118.032 67.9054 116.795 66.0227C115.288 63.8172 112.599 61.9345 109.694 60.9663L107.596 60.267L108.887 59.4064C114.697 55.5334 119 48.0564 119 41.8166V38.8581L116.741 39.1808C112.814 39.7725 106.951 40.9021 106.036 41.2787C105.229 41.6014 105.229 41.3325 105.875 38.7505C106.305 37.1905 106.628 34.9851 106.628 33.8555C106.628 30.7356 105.014 24.2806 104.154 23.9579C102.916 23.5275 97.7524 26.4323 94.3636 29.4984L91.2437 32.2955L89.4148 28.2074C87.5859 24.1192 83.4977 18.4712 81.2923 16.9112C80.6468 16.4809 81.3999 17.7719 82.9598 19.8159C84.5198 21.86 86.5638 25.0875 87.4245 27.024C89.1996 30.897 91.2437 38.5891 91.7816 43.2152L92.1043 46.1737L90.0603 47.1957C88.9844 47.7874 87.9086 48.3253 87.7472 48.4329C87.5321 48.4867 87.2631 46.8192 87.1555 44.6675C86.7252 39.0732 85.0577 34.9851 81.5612 31.4349C78.0648 27.8308 77.1504 27.9384 80.4854 31.5425C85.4342 36.814 87.5859 47.0881 85.2191 54.1886L84.1432 57.4161L84.0356 52.5749C83.9281 46.8192 83.0674 43.7531 83.0136 48.917L82.9598 52.2521L81.3461 51.9832C80.3778 51.768 79.4096 51.9294 78.9255 52.3059C78.2262 52.8976 78.1186 52.4135 78.0648 48.4867C77.9572 41.4401 77.1504 40.2566 77.0966 47.1419C77.0428 52.2521 76.9352 52.8976 76.2359 52.3059C75.8056 51.9294 74.7297 51.768 73.8153 51.8756L72.2016 52.1445V48.9708C72.2016 46.9806 71.9864 45.9047 71.6636 46.1199C71.3409 46.2813 71.1257 48.917 71.0719 51.9294C71.0181 57.3623 71.0181 57.4161 70.2113 55.5334C69.0817 53.059 68.7051 45.7971 69.4582 42.0855C70.3189 37.8898 72.3091 33.9093 74.9987 31.0045C76.2897 29.5522 76.8276 28.7453 76.1821 29.0681C74.2994 30.0363 71.0719 34.0169 69.7272 36.9216C68.4362 39.7725 67.199 46.4426 67.7369 47.7874C67.8982 48.2178 67.8445 48.5405 67.6293 48.5405C67.3065 48.5405 64.348 46.9268 63.1646 46.1199C62.7343 45.7972 64.7784 34.8237 65.8004 31.8114C67.5755 26.6474 70.534 21.1069 72.7395 18.9553C72.9008 18.7939 73.4925 18.1484 74.0305 17.4491C75.7518 15.4588 74.5146 16.1581 72.1478 18.525ZM60.1523 30.5742L63.4874 33.9093L62.8957 36.1147L62.304 38.3202L60.744 36.3837C58.5924 33.8017 58.2696 34.4472 60.3137 37.2981C61.6585 39.0732 61.9812 40.0953 61.9812 42.1931C61.9812 43.5917 61.8198 44.7751 61.6047 44.7213C61.3357 44.7213 59.9909 42.2469 58.4848 39.2884C55.2573 32.8334 54.5042 33.5865 57.6241 40.2029C58.8075 42.731 59.6682 44.7751 59.5606 44.7751C59.453 44.7751 58.6999 44.5062 57.9469 44.1296C56.9786 43.6993 56.2793 42.6235 55.4725 40.3642C53.7511 35.792 53.4284 36.4913 54.7732 41.7628C55.0959 43.1076 55.0421 43.1076 53.3746 42.5697C51.4381 41.8704 50.8464 40.6332 50.0395 35.6844C49.5554 32.6183 50.1471 26.3247 51.0616 24.711C51.5457 23.9041 56.9248 27.3467 60.1523 30.5742ZM104.745 32.0266C104.745 39.6649 104.154 41.709 101.679 42.5697C100.765 42.8924 99.9579 43.1614 99.8503 43.1614C99.7965 43.1614 100.065 42.0318 100.496 40.6332C101.195 38.3202 101.249 35.8458 100.55 37.7822C98.7207 42.8924 98.3441 43.6455 97.1607 44.1834C96.4076 44.5062 95.7084 44.7751 95.6008 44.7751C95.4932 44.7751 96.3001 42.7848 97.4297 40.3104C99.9041 34.8775 100.227 34.0169 99.7427 34.0169C99.3124 34.0169 98.2366 35.792 95.3856 41.2787L93.4491 45.0441L93.2877 42.9462C93.0188 40.0953 93.4491 38.6967 95.1167 36.7064C95.9235 35.792 96.4076 34.9313 96.2463 34.7699C96.1387 34.6086 95.278 35.3616 94.4174 36.4375L92.8036 38.3739L92.2119 36.1147L91.6202 33.8555L94.9553 30.5204C98.5593 26.9164 103.293 24.0655 104.207 24.9261C104.53 25.2489 104.745 28.3688 104.745 32.0266Z" fill="#00BCD4"/>
<path d="M75.5367 20.1387C74.676 20.9993 74.7298 22.9896 75.5905 23.6889C76.0746 24.1192 76.236 23.6889 76.236 21.86C76.236 20.569 76.236 19.4932 76.236 19.4932C76.1822 19.4932 75.9132 19.7621 75.5367 20.1387Z" fill="#00BCD4"/>
<path d="M78.3877 21.9138C78.3877 23.7427 78.5491 24.1192 79.087 23.6889C79.4097 23.3662 79.7325 22.5593 79.7325 21.9138C79.7325 21.2683 79.4097 20.4614 79.087 20.1387C78.5491 19.7084 78.3877 20.0849 78.3877 21.9138Z" fill="#00BCD4"/>
<path d="M78.3337 67.6364C78.4413 68.4971 78.9254 71.079 79.4634 73.2845C80.0013 75.8127 80.2702 78.8788 80.1626 81.4608C80.0013 84.9572 79.7861 85.8179 78.7641 86.8399L77.5269 88.0771L76.1283 86.4634C74.7835 84.9034 74.7297 84.7958 75.0525 78.9326C75.2676 75.7051 75.7518 71.8321 76.2359 70.3798C77.4731 66.3454 77.1503 66.1302 75.5904 70.057C74.4608 73.0155 74.2456 74.5217 74.1918 79.7394C74.0842 86.9475 74.7835 88.884 77.5269 88.884C80.2164 88.884 81.0771 86.8399 81.0233 80.6539C81.0233 76.9961 81.1309 75.6513 81.5074 76.3506C83.2288 79.5781 86.1873 81.138 87.6934 79.6319C89.092 78.2333 88.1776 75.6513 84.8963 71.7245C83.8205 70.4336 83.0674 69.1963 83.2288 68.9812C83.3901 68.7122 83.2288 68.3357 82.906 68.1205C82.4757 67.9054 82.4219 67.9591 82.6371 68.3357C82.8522 68.7122 82.7984 68.9812 82.4757 68.9812C82.1529 68.9812 81.6688 68.4971 81.3461 67.8516C80.9695 67.2599 80.593 66.8833 80.4316 67.0447C80.2702 67.2061 81.0771 68.3895 82.3143 69.7343C86.5638 74.3065 88.3389 78.2871 86.51 78.9864C84.466 79.7932 81.5612 75.9741 79.302 69.5191C78.6565 67.5826 78.2262 66.7219 78.3337 67.6364Z" fill="#00BCD4"/>
<path d="M72.4706 68.3895C72.632 68.4971 71.8251 69.7343 70.6955 71.0791C67.6832 74.7369 66.8225 76.2968 66.8225 78.0719C66.8225 79.4167 67.0915 79.7932 68.2749 80.0622C69.028 80.2774 70.05 80.1698 70.5341 79.9008C71.6099 79.2553 73.8154 76.0279 73.7616 75.221C73.7616 74.8982 73.3313 75.221 72.8471 75.9741C70.4803 79.4167 68.3287 80.1698 68.0059 77.6954C67.7908 76.2968 69.5659 73.3383 72.5244 70.057C74.1381 68.2819 74.2457 67.9592 73.3313 68.0667C72.7396 68.1205 72.363 68.2281 72.4706 68.3895Z" fill="#00BCD4"/>
<path d="M66.4459 72.1549C61.0668 76.1893 54.4505 83.0745 52.9443 86.2482C51.0078 90.2288 51.5457 93.7252 54.0201 93.7252C55.2573 93.7252 55.9028 92.2729 54.9884 91.4122C54.5043 90.9281 54.3967 90.9819 54.558 91.8425C54.6656 92.5418 54.3967 92.9183 53.9126 92.9183C52.6216 92.9183 52.6216 89.8522 53.9126 87.1089C55.6877 83.3973 60.2599 78.2333 65.908 73.6073C68.759 71.2942 71.1258 69.304 71.1258 69.1964C71.1258 68.7123 70.4265 69.1426 66.4459 72.1549Z" fill="#00BCD4"/>
<path d="M84.0356 69.1426C84.0356 69.304 85.4342 70.5412 87.1555 71.8859C93.3953 76.9961 99.0972 83.1283 100.765 86.5172C102.486 90.0136 102.701 92.9184 101.249 92.9184C100.765 92.9184 100.496 92.5418 100.603 91.8425C100.765 90.9819 100.657 90.9281 100.173 91.4122C99.2586 92.2729 99.9041 93.7252 101.141 93.7252C103.616 93.7252 104.1 90.4439 102.217 86.302C100.819 83.2897 92.3733 74.6831 87.4245 71.2405C85.5418 69.9495 84.0356 69.035 84.0356 69.1426Z" fill="#00BCD4"/>
<path d="M41.3253 106.528C41.9708 107.012 43.1542 109.325 43.9611 111.584C44.768 113.897 45.6286 115.78 45.8976 115.78C46.1128 115.78 46.8121 114.22 47.4575 112.283C48.103 110.347 48.6947 108.787 48.8023 108.787C48.9099 108.787 49.5016 110.347 50.1471 112.283C50.7926 114.22 51.4919 115.78 51.7071 115.78C51.9222 115.78 52.6753 113.897 53.3746 111.584C54.0739 109.271 55.1497 107.012 55.7414 106.528C56.871 105.613 56.8172 105.559 54.7732 105.559C52.9981 105.559 52.7829 105.667 53.3746 106.366C53.9663 107.119 53.8049 108.249 52.4601 112.014C52.2988 112.498 51.7609 111.638 51.1691 109.916C50.2009 107.173 50.2009 106.958 51.1154 106.312C51.9222 105.667 51.6533 105.613 49.0713 105.613C46.1666 105.559 46.1128 105.613 47.2962 106.528C48.4796 107.442 48.4796 107.496 47.5651 109.97C47.081 111.423 46.5431 112.552 46.3279 112.552C46.1666 112.552 45.6286 111.315 45.1445 109.755C44.3376 107.173 44.3376 106.958 45.1983 106.312C46.0052 105.667 45.6824 105.613 43.1542 105.613C40.2495 105.559 40.2495 105.613 41.3253 106.528Z" fill="#00BCD4"/>
<path d="M57.6777 106.043C57.6777 106.312 58.1619 106.635 58.7536 106.797C59.7218 107.065 59.8294 107.55 59.8294 110.885C59.8294 114.381 59.7218 114.758 58.646 115.242C57.6777 115.618 58.0543 115.726 60.3673 115.726C62.6265 115.726 63.1107 115.618 62.4114 115.188C61.0666 114.435 60.959 106.635 62.25 106.635C62.6803 106.635 63.0569 106.366 63.0569 106.097C63.0569 105.774 61.8735 105.559 60.3673 105.559C58.9149 105.559 57.6777 105.774 57.6777 106.043Z" fill="#00BCD4"/>
<path d="M65.8003 106.259C66.7148 106.958 67.0375 108.894 66.8762 112.929C66.8224 114.542 66.5534 115.242 65.9079 115.403C65.37 115.564 66.2845 115.672 67.8982 115.672C69.5119 115.672 70.4264 115.564 69.9423 115.403C69.4044 115.296 68.974 114.758 68.974 114.273C68.974 113.789 68.8127 112.821 68.6513 112.122C68.1134 110.239 69.6195 110.723 71.0181 112.929C71.9863 114.435 72.0939 114.973 71.556 115.296C71.1257 115.564 72.0401 115.726 73.8152 115.726C75.9669 115.726 76.451 115.564 75.6441 115.242C74.5145 114.811 71.1257 110.885 71.1257 110.078C71.1257 109.378 73.9766 106.635 74.6759 106.635C75.0524 106.635 75.5366 106.366 75.6979 106.097C75.9131 105.774 75.16 105.559 73.7615 105.559C71.9863 105.559 71.6636 105.721 72.1477 106.259C72.578 106.797 72.2553 107.388 70.8567 108.787C69.8347 109.809 68.974 110.401 68.9202 110.078C68.7051 108.518 69.1892 106.85 69.9423 106.259C70.6953 105.721 70.3726 105.613 67.8982 105.613C65.4238 105.613 65.1011 105.721 65.8003 106.259Z" fill="#00BCD4"/>
<path d="M78.5491 106.474C79.5711 107.173 79.7325 107.765 79.7325 111.046C79.7325 114.381 79.6249 114.811 78.5491 115.242C77.5808 115.618 77.9574 115.726 80.2704 115.726C82.5296 115.726 83.0138 115.618 82.3145 115.188C80.9697 114.435 80.8621 106.635 82.1531 106.635C82.5834 106.635 82.96 106.366 82.96 106.097C82.96 105.774 81.669 105.559 80.1628 105.613C77.4195 105.613 77.3657 105.667 78.5491 106.474Z" fill="#00BCD4"/>
<path d="M85.1113 106.043C85.1113 106.312 85.5954 106.635 86.1872 106.797C87.1554 107.065 87.263 107.55 87.263 110.885C87.263 114.381 87.1554 114.758 86.0796 115.242C85.1113 115.618 85.5417 115.726 87.8009 115.672C89.4146 115.672 90.3291 115.564 89.845 115.403C89.1457 115.242 88.8767 114.596 88.8767 113.036C88.8767 111.1 88.9843 110.938 90.2753 110.938C91.0822 110.938 92.0504 111.369 92.4269 111.853C93.0724 112.714 93.1262 112.606 93.18 110.777C93.18 108.787 93.18 108.733 91.9966 109.54C89.8988 110.992 88.8767 110.669 88.8767 108.518C88.8767 106.689 88.9305 106.635 90.8132 106.635C92.0504 106.635 93.0724 106.958 93.5028 107.55C94.1483 108.41 94.2021 108.356 94.2559 107.012V105.559H89.6836C87.1554 105.559 85.1113 105.774 85.1113 106.043Z" fill="#00BCD4"/>
<path d="M96.4076 106.097C96.4076 106.366 96.7841 106.635 97.2145 106.635C97.8599 106.635 98.0213 107.442 98.0213 110.669C98.0213 114.381 97.9137 114.758 96.8379 115.242C95.8697 115.618 96.3538 115.726 98.8282 115.726C101.303 115.726 101.787 115.618 100.872 115.242C99.7426 114.811 99.6351 114.381 99.6351 110.938C99.6351 108.034 99.8502 107.065 100.442 106.85C102.056 106.205 101.195 105.559 98.8282 105.559C97.4834 105.559 96.4076 105.774 96.4076 106.097Z" fill="#00BCD4"/>
<path d="M103.777 105.936C103.239 106.474 103.347 108.249 103.885 108.249C104.154 108.249 104.477 107.872 104.692 107.442C104.853 107.012 105.606 106.635 106.359 106.635C107.704 106.635 107.704 106.689 107.704 110.669C107.704 113.897 107.543 114.758 106.79 115.188C106.036 115.618 106.521 115.726 108.78 115.726C111.093 115.726 111.469 115.618 110.555 115.242C109.425 114.758 109.318 114.381 109.318 110.669C109.318 106.689 109.318 106.635 110.716 106.635C111.523 106.635 112.491 107.065 112.868 107.55C113.513 108.41 113.567 108.356 113.621 107.012V105.559H108.887C106.252 105.559 103.939 105.721 103.777 105.936Z" fill="#00BCD4"/>
<path d="M50.416 123.848C50.416 125.516 50.6312 126 51.3305 126C51.9222 126 52.1373 125.731 51.976 125.193C51.7608 124.655 51.976 124.386 52.5677 124.386C53.1594 124.386 53.3745 124.655 53.1594 125.193C52.998 125.731 53.2132 126 53.8049 126C54.5042 126 54.7193 125.516 54.7193 123.848C54.7193 122.181 54.5042 121.697 53.8049 121.697C53.2132 121.697 52.998 122.019 53.2132 122.773C53.4283 123.526 53.2132 123.848 52.6215 123.848C52.1373 123.848 51.7608 123.418 51.7608 122.773C51.7608 122.181 51.4381 121.697 51.1153 121.697C50.685 121.697 50.416 122.504 50.416 123.848Z" fill="#00BCD4"/>
<path d="M56.333 123.848C56.333 125.892 56.3868 126 58.0543 126C58.9688 126 59.937 125.731 60.0984 125.462C60.3136 125.086 59.9908 124.978 59.0764 125.247C57.7854 125.57 57.6778 125.462 57.6778 123.848C57.6778 122.396 57.8392 122.235 58.7536 122.504C59.3453 122.719 59.8294 122.611 59.8294 122.288C59.8294 121.966 59.0226 121.697 58.1081 121.697C56.3868 121.697 56.333 121.804 56.333 123.848Z" fill="#00BCD4"/>
<path d="M62.0889 123.848C61.2821 125.516 61.2283 126 61.7662 126C62.1965 126 62.5193 125.623 62.5193 125.139C62.5193 124.655 62.842 124.386 63.2186 124.548C63.5413 124.655 63.8103 125.086 63.7565 125.408C63.6489 125.731 63.9716 126 64.402 126C64.8323 126 65.2088 125.892 65.2088 125.785C65.2088 125.355 63.5951 121.697 63.3799 121.697C63.2723 121.697 62.6806 122.665 62.0889 123.848Z" fill="#00BCD4"/>
<path d="M66.5537 123.848C66.5537 125.892 66.6075 126 68.275 126C69.1895 126 70.1577 125.731 70.3191 125.462C70.5343 125.086 70.1577 125.032 69.1895 125.247C67.7909 125.623 67.7371 125.57 68.0599 123.633C68.3288 122.073 68.2212 121.697 67.4682 121.697C66.7689 121.697 66.5537 122.181 66.5537 123.848Z" fill="#00BCD4"/>
<path d="M71.1257 122.288C71.1257 122.611 71.5023 122.719 71.9864 122.557C72.6857 122.288 72.8471 122.557 72.6319 124.117C72.4705 125.57 72.6319 126 73.2774 126C73.9229 126 74.0843 125.57 73.9229 124.117C73.7077 122.557 73.8691 122.288 74.5684 122.557C75.0525 122.719 75.429 122.611 75.429 122.288C75.429 121.966 74.5146 121.697 73.2774 121.697C72.0402 121.697 71.1257 121.966 71.1257 122.288Z" fill="#00BCD4"/>
<path d="M76.7739 123.848C76.7739 125.516 76.9891 126 77.6884 126C78.2801 126 78.4952 125.731 78.3339 125.193C78.1187 124.709 78.3339 124.386 78.8718 124.386C79.3559 124.386 79.7324 124.763 79.7324 125.193C79.7324 125.623 80.0552 126 80.4317 126C80.8083 126 81.0772 125.193 81.0772 123.848C81.131 122.45 80.9159 121.697 80.4317 121.697C80.0552 121.697 79.7324 122.181 79.7324 122.773C79.7324 123.418 79.3559 123.848 78.8718 123.848C78.2801 123.848 78.0649 123.526 78.2801 122.773C78.4952 122.019 78.2801 121.697 77.6884 121.697C76.9891 121.697 76.7739 122.181 76.7739 123.848Z" fill="#00BCD4"/>
<path d="M83.2286 123.848C83.2286 125.032 83.4975 126 83.7665 126C84.0892 126 84.3044 125.032 84.3044 123.848C84.3582 122.611 84.0892 121.697 83.7665 121.697C83.4437 121.697 83.1748 122.611 83.2286 123.848Z" fill="#00BCD4"/>
<path d="M86.4564 123.848C86.4564 125.032 86.7253 126 87.0481 126C87.4246 126 87.5322 125.408 87.4246 124.494L87.2095 123.041L88.4467 124.494C89.1459 125.355 89.8452 126 90.0604 126C90.2218 126 90.4907 125.032 90.5983 123.848C90.7059 122.342 90.5983 121.697 90.1142 121.697C89.6301 121.697 89.5225 122.127 89.7376 123.149L90.1142 124.655L88.5004 123.149C87.6398 122.342 86.8329 121.697 86.6715 121.697C86.5102 121.697 86.4026 122.665 86.4564 123.848Z" fill="#00BCD4"/>
<path d="M92.3733 123.848C92.3733 125.892 92.4271 126 94.0946 126C95.0091 126 95.9773 125.731 96.1387 125.462C96.3538 125.086 96.0311 124.978 95.1166 125.247C93.8257 125.57 93.7181 125.462 93.7181 123.848C93.7181 122.396 93.8794 122.235 94.7939 122.504C95.3856 122.719 95.8697 122.611 95.8697 122.288C95.8697 121.966 95.0629 121.697 94.1484 121.697C92.4271 121.697 92.3733 121.804 92.3733 123.848Z" fill="#00BCD4"/>
<path d="M97.7524 122.288C97.5372 122.611 97.9675 123.472 98.613 124.225L99.904 125.623L98.7206 125.301C98.0213 125.139 97.4834 125.247 97.4834 125.516C97.4834 126.215 100.065 126.108 100.496 125.355C100.711 125.032 100.388 124.332 99.7426 123.795C98.3979 122.719 98.1827 121.966 99.3661 122.45C99.7964 122.611 100.173 122.504 100.173 122.235C100.173 121.535 98.1827 121.535 97.7524 122.288Z" fill="#00BCD4"/>
<path d="M102.325 122.773C102.325 123.364 102.701 124.01 103.131 124.171C104.369 124.655 104.1 125.57 102.862 125.193C102.271 124.978 101.787 125.086 101.787 125.408C101.787 126.215 104.315 126.161 104.799 125.355C105.014 125.032 104.691 124.332 104.046 123.795C102.54 122.611 102.54 122.073 103.992 122.504C104.799 122.773 105.014 122.719 104.799 122.288C104.153 121.213 102.325 121.589 102.325 122.773Z" fill="#00BCD4"/>
</svg>
